<svg width="24" height="24" viewBox="0 0 24 24" fill="none" xmlns="http://www.w3.org/2000/svg">
<path d="M9.10222 17.4059C9.27315 18.1501 9.64978 18.8077 10.1737 19.2767C10.6976 19.7458 11.3396 20 12 20C12.6604 20 13.3024 19.7458 13.8263 19.2767C14.3502 18.8077 14.7269 18.1501 14.8978 17.4059" stroke="#263238" stroke-width="1.2" stroke-linecap="round"/>
<circle cx="17.5" cy="6.5" r="2" fill="#FF7C7C" stroke="#FF7C7C"/>
<mask id="mask0_452:7235" style="mask-type:alpha" maskUnits="userSpaceOnUse" x="3" y="2" width="18" height="16">
<path d="M6.44784 7.96942C6.76219 5.14032 9.15349 3 12 3H12.4723C15.0499 3 17.2153 4.93814 17.5 7.5V7.5L17.6799 9.11901C17.8066 10.2594 17.87 10.8296 18.012 11.38C18.1093 11.7572 18.2341 12.1269 18.3853 12.4859C18.6059 13.0098 18.901 13.5017 19.4914 14.4856V14.4856C20.0159 15.3599 20.2782 15.797 20.2216 16.1559C20.1839 16.3946 20.061 16.6117 19.8757 16.7668C19.5971 17 19.0873 17 18.0678 17H5.93223C4.91268 17 4.40291 17 4.12434 16.7668C3.93897 16.6117 3.81609 16.3946 3.77841 16.1559C3.72179 15.797 3.98407 15.3599 4.50862 14.4856L5.08665 13.5222C5.10161 13.4973 5.10909 13.4849 5.11644 13.4725C5.69488 12.5005 6.06064 11.4169 6.18959 10.2933C6.19123 10.279 6.19283 10.2645 6.19604 10.2356L6.44784 7.96942Z" stroke="black" stroke-width="1.2"/>
</mask>
<g mask="url(#mask0_452:7235)">
<path fill-rule="evenodd" clip-rule="evenodd" d="M24 0H0V24H24V0ZM17.5 9C18.8807 9 20 7.88071 20 6.5C20 5.11929 18.8807 4 17.5 4C16.1193 4 15 5.11929 15 6.5C15 7.88071 16.1193 9 17.5 9Z" fill="#263238"/>
</g>
</svg>
