<svg width="24" height="24" viewBox="0 0 24 24" fill="none" xmlns="http://www.w3.org/2000/svg">
<path d="M3 8.90976C3 5.65247 3 4.02382 3.98851 3.01191C4.97703 2 6.56802 2 9.75 2H14.25C17.432 2 19.023 2 20.0115 3.01191C21 4.02382 21 5.65247 21 8.90976V16.7726C21 19.8627 21 21.4078 20.0502 21.8804C19.1003 22.353 17.9135 21.3984 15.5399 19.4892L14.7802 18.8782C13.4455 17.8048 12.7782 17.268 12 17.268C11.2218 17.268 10.5545 17.8048 9.2198 18.8782L8.46015 19.4892C6.08649 21.3984 4.89966 22.353 3.94983 21.8804C3 21.4078 3 19.8627 3 16.7726V8.90976Z" fill="#D1DCFA" stroke="#263238" stroke-width="1.2"/>
</svg>
