<svg width="24" height="24" viewBox="0 0 24 24" fill="none" xmlns="http://www.w3.org/2000/svg">
<path fill-rule="evenodd" clip-rule="evenodd" d="M3.17157 3.17157C2 4.34315 2 6.22876 2 10V14C2 17.7712 2 19.6569 3.17157 20.8284C4.29143 21.9483 6.0637 21.9977 9.51155 21.9999C7.34549 21.9422 5.75 21.5615 5.75 19.5004C5.75 16.7043 8.68629 14.5 12 14.5C15.3137 14.5 18.25 16.7043 18.25 19.5004C18.25 21.5615 16.6545 21.9422 14.4885 21.9999C17.9363 21.9977 19.7086 21.9483 20.8284 20.8284C22 19.6569 22 17.7712 22 14V10C22 6.22876 22 4.34315 20.8284 3.17157C19.6569 2 17.7712 2 14 2H10C6.22876 2 4.34315 2 3.17157 3.17157ZM12 12C13.6569 12 15.125 10.5526 15.125 8.875C15.125 7.19736 13.6569 5.75 12 5.75C10.3431 5.75 8.875 7.19736 8.875 8.875C8.875 10.5526 10.3431 12 12 12Z" fill="#D1DCFA"/>
<rect x="2.6" y="2.6" width="18.8" height="18.8" rx="3.4" stroke="#263238" stroke-width="1.2"/>
<path d="M18 21C18 18 18 15 12 15C6 15 6 18 6 21M15 9.0434C15 10.6772 13.5906 12.0868 12 12.0868C10.4094 12.0868 9 10.6772 9 9.0434C9 7.40956 10.4094 6 12 6C13.5906 6 15 7.40956 15 9.0434Z" stroke="#263238" stroke-width="1.2" stroke-linecap="round"/>
</svg>
