<svg width="24" height="24" viewBox="0 0 24 24" fill="none" xmlns="http://www.w3.org/2000/svg">
<path d="M6.44784 7.96942C6.76219 5.14032 9.15349 3 12 3C14.8465 3 17.2378 5.14032 17.5522 7.96942L17.804 10.2356C17.8072 10.2645 17.8088 10.279 17.8104 10.2933C17.9394 11.417 18.3051 12.5005 18.8836 13.4725C18.8909 13.4849 18.8984 13.4973 18.9133 13.5222L19.4914 14.4856C20.0159 15.3599 20.2782 15.797 20.2216 16.1559C20.1839 16.3946 20.061 16.6117 19.8757 16.7668C19.5971 17 19.0873 17 18.0678 17H5.93223C4.91268 17 4.40291 17 4.12434 16.7668C3.93897 16.6117 3.81609 16.3946 3.77841 16.1559C3.72179 15.797 3.98407 15.3599 4.50862 14.4856L5.08665 13.5222C5.10161 13.4973 5.10909 13.4849 5.11644 13.4725C5.69488 12.5005 6.06064 11.417 6.18959 10.2933C6.19123 10.279 6.19283 10.2645 6.19604 10.2356L6.44784 7.96942Z" fill="#6A92FF"/>
<path d="M10.1093 19.4424C9.64842 19.1351 9.29764 18.7229 9.09405 18.254C9.04043 18.1305 9.13636 18 9.27098 18L14.729 18C14.8636 18 14.9596 18.1305 14.906 18.254C14.7024 18.7229 14.3516 19.1351 13.8907 19.4424C13.3483 19.804 12.6837 20 12 20C11.3163 20 10.6517 19.804 10.1093 19.4424Z" fill="#6A92FF" stroke="#6A92FF" stroke-width="1.2" stroke-linecap="round"/>
</svg>
