<svg width="17" height="16" viewBox="0 0 17 16" fill="none" xmlns="http://www.w3.org/2000/svg">
<path d="M1.25 3.49995C1.25 1.84312 2.59312 0.5 4.24995 0.5H13.2498C14.9066 0.5 16.2498 1.84312 16.2498 3.49995V12.4998C16.2498 14.1566 14.9066 15.4998 13.2498 15.4998H4.24995C2.59312 15.4998 1.25 14.1566 1.25 12.4998V3.49995Z" stroke="white" stroke-linecap="round" stroke-linejoin="round"/>
<path d="M6.12497 7.24994C7.16049 7.24994 7.99994 6.41049 7.99994 5.37497C7.99994 4.33945 7.16049 3.5 6.12497 3.5C5.08945 3.5 4.25 4.33945 4.25 5.37497C4.25 6.41049 5.08945 7.24994 6.12497 7.24994Z" stroke="white" stroke-linecap="round" stroke-linejoin="round"/>
<path d="M10.6446 8.46556L4.25 15.4996H13.453C14.9976 15.4996 16.2498 14.2474 16.2498 12.7028C16.2498 12.3528 16.1186 12.0157 15.8822 11.7578L12.8602 8.46099C12.264 7.81067 11.2381 7.81277 10.6446 8.46556V8.46556Z" stroke="white" stroke-linecap="round" stroke-linejoin="round"/>
</svg>
