<svg width="17" height="17" viewBox="0 0 17 17" fill="none" xmlns="http://www.w3.org/2000/svg">
<path d="M1.25 3.99995C1.25 2.34312 2.59312 1 4.24995 1H13.2498C14.9066 1 16.2498 2.34312 16.2498 3.99995V12.9998C16.2498 14.6566 14.9066 15.9998 13.2498 15.9998H4.24995C2.59312 15.9998 1.25 14.6566 1.25 12.9998V3.99995Z" stroke="white" stroke-linecap="round" stroke-linejoin="round"/>
<path d="M6.12497 7.74994C7.16049 7.74994 7.99994 6.91049 7.99994 5.87497C7.99994 4.83945 7.16049 4 6.12497 4C5.08945 4 4.25 4.83945 4.25 5.87497C4.25 6.91049 5.08945 7.74994 6.12497 7.74994Z" stroke="white" stroke-linecap="round" stroke-linejoin="round"/>
<path d="M10.6446 8.96556L4.25 15.9996H13.453C14.9976 15.9996 16.2498 14.7474 16.2498 13.2028C16.2498 12.8528 16.1186 12.5157 15.8822 12.2578L12.8602 8.96099C12.264 8.31067 11.2381 8.31277 10.6446 8.96556Z" stroke="white" stroke-linecap="round" stroke-linejoin="round"/>
</svg>
