<svg width="16" height="16" viewBox="0 0 16 16" fill="none" xmlns="http://www.w3.org/2000/svg">
<path d="M0.75 3.79996C0.75 2.25358 2.0036 1 3.55 1H11.95C13.4964 1 14.75 2.25358 14.75 3.79996V12.1998C14.75 13.7462 13.4964 14.9998 11.95 14.9998H3.55C2.0036 14.9998 0.75 13.7462 0.75 12.1998V3.79996Z" stroke="white" stroke-width="1.3" stroke-linecap="round" stroke-linejoin="round"/>
<path d="M5.29688 7.30073C6.26337 7.30073 7.04688 6.51724 7.04688 5.55075C7.04688 4.58427 6.26337 3.80078 5.29688 3.80078C4.33038 3.80078 3.54688 4.58427 3.54688 5.55075C3.54688 6.51724 4.33038 7.30073 5.29688 7.30073Z" stroke="white" stroke-width="1.3" stroke-linecap="round" stroke-linejoin="round"/>
<path d="M9.51522 8.43479L3.54688 14.9999H12.1364C13.5782 14.9999 14.7469 13.8312 14.7469 12.3895C14.7469 12.0629 14.6244 11.7483 14.4038 11.5075L11.5832 8.43052C11.0267 7.82356 10.0692 7.82552 9.51522 8.43479Z" stroke="white" stroke-width="1.3" stroke-linecap="round" stroke-linejoin="round"/>
</svg>
