<svg width="16" height="16" viewBox="0 0 16 16" fill="none" xmlns="http://www.w3.org/2000/svg">
<path d="M11.652 9.08551L11.1922 8.62612L11.1921 8.6262L11.652 9.08551ZM13.7641 6.97139L14.224 7.43085L14.2318 7.42272L13.7641 6.97139ZM8.78668 1.9891L8.33485 1.52174L8.32818 1.52837L8.78668 1.9891ZM5.82307 9.09406C6.18119 9.57329 6.63812 9.96988 7.1629 10.2569L7.78667 9.11629C7.42553 8.91879 7.11099 8.64583 6.86443 8.31588L5.82307 9.09406ZM7.1629 10.2569C7.68769 10.5439 8.26803 10.7146 8.86457 10.7573L8.95753 9.46065C8.54712 9.43122 8.14781 9.3138 7.78667 9.11629L7.1629 10.2569ZM8.86457 10.7573C9.46111 10.8001 10.0598 10.7139 10.6202 10.5047L10.1654 9.28684C9.77987 9.4308 9.36793 9.49007 8.95753 9.46065L8.86457 10.7573ZM10.6202 10.5047C11.1805 10.2955 11.6892 9.96811 12.112 9.54482L11.1921 8.6262C10.9011 8.91758 10.551 9.14288 10.1654 9.28684L10.6202 10.5047ZM12.1119 9.5449L14.2239 7.43078L13.3042 6.51199L11.1922 8.62612L12.1119 9.5449ZM14.2318 7.42272C14.9914 6.63554 15.4115 5.58137 15.402 4.48728L14.1021 4.49857C14.1086 5.2522 13.8192 5.97814 13.2963 6.52005L14.2318 7.42272ZM15.402 4.48728C15.3925 3.39319 14.9541 2.34648 14.181 1.57263L13.2614 2.49141C13.7936 3.02414 14.0956 3.74493 14.1021 4.49857L15.402 4.48728ZM14.181 1.57263C13.4079 0.79875 12.3619 0.35967 11.2684 0.350158L11.2571 1.65011C12.0094 1.65665 12.7292 1.95871 13.2614 2.49141L14.181 1.57263ZM11.2684 0.350158C10.1748 0.340645 9.12134 0.761465 8.33489 1.52178L9.23848 2.45641C9.77982 1.93305 10.5047 1.64356 11.2571 1.65011L11.2684 0.350158ZM8.32818 1.52837L7.11727 2.73342L8.03428 3.65488L9.24519 2.44983L8.32818 1.52837Z" fill="white"/>
<path d="M3.85017 6.91529L4.31002 7.37468L4.3101 7.3746L3.85017 6.91529ZM1.73813 9.02941L1.27821 8.56995L1.27037 8.57808L1.73813 9.02941ZM6.71552 14.0117L7.16738 14.4791L7.17536 14.4711L6.71552 14.0117ZM9.67913 6.90674C9.32101 6.4275 8.86408 6.03092 8.3393 5.74392L7.71553 6.8845C8.07667 7.082 8.39121 7.35497 8.63777 7.68492L9.67913 6.90674ZM8.3393 5.74392C7.81451 5.45693 7.23417 5.28624 6.63763 5.24348L6.54468 6.54015C6.95508 6.56957 7.3544 6.687 7.71553 6.8845L8.3393 5.74392ZM6.63763 5.24348C6.0411 5.20071 5.44236 5.28687 4.88204 5.49609L5.33679 6.71396C5.72233 6.57 6.13427 6.51073 6.54468 6.54015L6.63763 5.24348ZM4.88204 5.49609C4.32173 5.70531 3.81297 6.03269 3.39025 6.45598L4.3101 7.3746C4.6011 7.08321 4.95125 6.85792 5.33679 6.71396L4.88204 5.49609ZM3.39033 6.45589L1.27828 8.57002L2.19797 9.4888L4.31002 7.37468L3.39033 6.45589ZM1.27037 8.57808C0.51083 9.36526 0.0906596 10.4194 0.100158 11.5135L1.40011 11.5022C1.39357 10.7486 1.683 10.0227 2.20589 9.48074L1.27037 8.57808ZM0.100158 11.5135C0.109656 12.6076 0.548065 13.6543 1.32116 14.4282L2.24085 13.5094C1.70865 12.9767 1.40665 12.2559 1.40011 11.5022L0.100158 11.5135ZM1.32116 14.4282C2.09428 15.202 3.14025 15.6411 4.23384 15.6506L4.24514 14.3507C3.49282 14.3441 2.77304 14.0421 2.24085 13.5094L1.32116 14.4282ZM4.23384 15.6506C5.32742 15.6602 6.38087 15.2393 7.16731 14.479L6.26373 13.5444C5.72238 14.0677 4.99747 14.3572 4.24514 14.3507L4.23384 15.6506ZM7.17536 14.4711L8.37923 13.266L7.45954 12.3473L6.25567 13.5523L7.17536 14.4711Z" fill="white"/>
</svg>
