<svg width="17" height="17" viewBox="0 0 17 17" fill="none" xmlns="http://www.w3.org/2000/svg">
<path d="M12.933 9.66261L12.5794 9.30906L12.5794 9.30912L12.933 9.66261ZM15.198 7.39759L15.5516 7.7512L15.5576 7.74495L15.198 7.39759ZM9.86011 2.0597L9.51271 1.70001L9.50759 1.70511L9.86011 2.0597ZM6.83985 9.5544C7.20704 10.0453 7.6755 10.4515 8.21346 10.7454L8.69292 9.8678C8.28079 9.64264 7.92191 9.33148 7.64062 8.95542L6.83985 9.5544ZM8.21346 10.7454C8.75143 11.0393 9.34631 11.2141 9.95776 11.2579L10.0292 10.2604C9.56077 10.2269 9.10504 10.093 8.69292 9.8678L8.21346 10.7454ZM9.95776 11.2579C10.5692 11.3016 11.1829 11.2134 11.7573 10.9992L11.4078 10.0622C10.9678 10.2264 10.4976 10.294 10.0292 10.2604L9.95776 11.2579ZM11.7573 10.9992C12.3316 10.7849 12.8532 10.4496 13.2866 10.0161L12.5794 9.30912C12.2474 9.64126 11.8478 9.8981 11.4078 10.0622L11.7573 10.9992ZM13.2865 10.0162L15.5516 7.75115L14.8444 7.04404L12.5794 9.30906L13.2865 10.0162ZM15.5576 7.74495C16.3364 6.93867 16.7673 5.85878 16.7575 4.73788L15.7576 4.74657C15.765 5.60528 15.4349 6.43256 14.8384 7.05024L15.5576 7.74495ZM16.7575 4.73788C16.7478 3.61699 16.2982 2.54475 15.5056 1.75213L14.7985 2.45923C15.4057 3.06645 15.7501 3.88787 15.7576 4.74657L16.7575 4.73788ZM15.5056 1.75213C14.7129 0.959502 13.6407 0.509902 12.5198 0.500162L12.5111 1.50012C13.3698 1.50759 14.1912 1.85202 14.7985 2.45923L15.5056 1.75213ZM12.5198 0.500162C11.3989 0.490421 10.319 0.921321 9.51275 1.70005L10.2075 2.41934C10.8251 1.82277 11.6524 1.49266 12.5111 1.50012L12.5198 0.500162ZM9.50759 1.70511L8.20897 2.99617L8.91402 3.70534L10.2126 2.41428L9.50759 1.70511Z" fill="white"/>
<path d="M4.5669 7.33663L4.92046 7.69019L4.92052 7.69012L4.5669 7.33663ZM2.30188 9.60165L1.94828 9.24805L1.94224 9.2543L2.30188 9.60165ZM7.63978 14.9396L7.98719 15.2992L7.99333 15.2931L7.63978 14.9396ZM10.66 7.44485C10.2928 6.95397 9.82439 6.54779 9.28642 6.25388L8.80697 7.13144C9.21909 7.35661 9.57797 7.66777 9.85927 8.04383L10.66 7.44485ZM9.28642 6.25388C8.74846 5.95996 8.15358 5.78518 7.54212 5.74139L7.47069 6.73884C7.93911 6.77238 8.39484 6.90628 8.80697 7.13144L9.28642 6.25388ZM7.54212 5.74139C6.93067 5.6976 6.31695 5.78582 5.7426 6.00007L6.0921 6.93701C6.53211 6.77287 7.00227 6.70529 7.47069 6.73884L7.54212 5.74139ZM5.7426 6.00007C5.16824 6.21433 4.64668 6.5496 4.21329 6.98315L4.92052 7.69012C5.25253 7.35799 5.65209 7.10114 6.0921 6.93701L5.7426 6.00007ZM4.21335 6.98308L1.94833 9.2481L2.65544 9.95521L4.92046 7.69019L4.21335 6.98308ZM1.94224 9.2543C1.16351 10.0606 0.732609 11.1405 0.742349 12.2614L1.74231 12.2527C1.73485 11.394 2.06495 10.5667 2.66153 9.94901L1.94224 9.2543ZM0.742349 12.2614C0.752089 13.3823 1.20169 14.4545 1.99432 15.2471L2.70142 14.54C2.0942 13.9328 1.74977 13.1114 1.74231 12.2527L0.742349 12.2614ZM1.99432 15.2471C2.78694 16.0397 3.85917 16.4893 4.98007 16.4991L4.98876 15.4991C4.13006 15.4917 3.30864 15.1472 2.70142 14.54L1.99432 15.2471ZM4.98007 16.4991C6.10097 16.5088 7.18085 16.0779 7.98713 15.2992L7.29242 14.5799C6.67474 15.1765 5.84746 15.5066 4.98876 15.4991L4.98007 16.4991ZM7.99333 15.2931L9.28439 14.002L8.57729 13.2949L7.28623 14.586L7.99333 15.2931Z" fill="white"/>
</svg>
