<svg width="17" height="16" viewBox="0 0 17 16" fill="none" xmlns="http://www.w3.org/2000/svg">
<path d="M12.433 9.16261L12.0794 8.80906L12.0794 8.80912L12.433 9.16261ZM14.698 6.89759L15.0516 7.2512L15.0576 7.24495L14.698 6.89759ZM9.36011 1.5597L9.01271 1.20001L9.00759 1.20511L9.36011 1.5597ZM6.33985 9.0544C6.70704 9.54528 7.1755 9.95146 7.71346 10.2454L8.19292 9.3678C7.78079 9.14264 7.42191 8.83148 7.14062 8.45542L6.33985 9.0544ZM7.71346 10.2454C8.25143 10.5393 8.84631 10.7141 9.45776 10.7579L9.5292 9.76041C9.06077 9.72686 8.60504 9.59297 8.19292 9.3678L7.71346 10.2454ZM9.45776 10.7579C10.0692 10.8016 10.6829 10.7134 11.2573 10.4992L10.9078 9.56224C10.4678 9.72637 9.99762 9.79396 9.5292 9.76041L9.45776 10.7579ZM11.2573 10.4992C11.8316 10.2849 12.3532 9.94965 12.7866 9.5161L12.0794 8.80912C11.7474 9.14126 11.3478 9.3981 10.9078 9.56224L11.2573 10.4992ZM12.7865 9.51616L15.0516 7.25115L14.3444 6.54404L12.0794 8.80906L12.7865 9.51616ZM15.0576 7.24495C15.8364 6.43867 16.2673 5.35878 16.2575 4.23788L15.2576 4.24657C15.265 5.10528 14.9349 5.93256 14.3384 6.55024L15.0576 7.24495ZM16.2575 4.23788C16.2478 3.11699 15.7982 2.04475 15.0056 1.25213L14.2985 1.95923C14.9057 2.56645 15.2501 3.38787 15.2576 4.24657L16.2575 4.23788ZM15.0056 1.25213C14.2129 0.459502 13.1407 0.00990191 12.0198 0.000161588L12.0111 1.00012C12.8698 1.00759 13.6912 1.35202 14.2985 1.95923L15.0056 1.25213ZM12.0198 0.000161588C10.8989 -0.0095787 9.81903 0.421321 9.01275 1.20005L9.70746 1.91934C10.3251 1.32277 11.1524 0.992662 12.0111 1.00012L12.0198 0.000161588ZM9.00759 1.20511L7.70897 2.49617L8.41402 3.20534L9.71263 1.91428L9.00759 1.20511Z" fill="white"/>
<path d="M4.0669 6.83663L4.42046 7.19019L4.42052 7.19012L4.0669 6.83663ZM1.80188 9.10165L1.44828 8.74805L1.44224 8.7543L1.80188 9.10165ZM7.13978 14.4396L7.48719 14.7992L7.49333 14.7931L7.13978 14.4396ZM10.16 6.94485C9.79285 6.45397 9.32439 6.04779 8.78642 5.75388L8.30697 6.63144C8.71909 6.85661 9.07797 7.16777 9.35927 7.54383L10.16 6.94485ZM8.78642 5.75388C8.24846 5.45996 7.65358 5.28518 7.04212 5.24139L6.97069 6.23884C7.43911 6.27238 7.89484 6.40628 8.30697 6.63144L8.78642 5.75388ZM7.04212 5.24139C6.43067 5.1976 5.81695 5.28582 5.2426 5.50007L5.5921 6.43701C6.03211 6.27287 6.50227 6.20529 6.97069 6.23884L7.04212 5.24139ZM5.2426 5.50007C4.66824 5.71433 4.14668 6.0496 3.71329 6.48315L4.42052 7.19012C4.75253 6.85799 5.15209 6.60114 5.5921 6.43701L5.2426 5.50007ZM3.71335 6.48308L1.44833 8.7481L2.15544 9.45521L4.42046 7.19019L3.71335 6.48308ZM1.44224 8.7543C0.663508 9.56058 0.232609 10.6405 0.242349 11.7614L1.24231 11.7527C1.23485 10.894 1.56495 10.0667 2.16153 9.44901L1.44224 8.7543ZM0.242349 11.7614C0.252089 12.8823 0.70169 13.9545 1.49432 14.7471L2.20142 14.04C1.5942 13.4328 1.24977 12.6114 1.24231 11.7527L0.242349 11.7614ZM1.49432 14.7471C2.28694 15.5397 3.35917 15.9893 4.48007 15.9991L4.48876 14.9991C3.63006 14.9917 2.80864 14.6472 2.20142 14.04L1.49432 14.7471ZM4.48007 15.9991C5.60097 16.0088 6.68085 15.5779 7.48713 14.7992L6.79242 14.0799C6.17474 14.6765 5.34746 15.0066 4.48876 14.9991L4.48007 15.9991ZM7.49333 14.7931L8.78439 13.502L8.07729 12.7949L6.78623 14.086L7.49333 14.7931Z" fill="white"/>
</svg>
