<svg width="24" height="24" viewBox="0 0 24 24" fill="none" xmlns="http://www.w3.org/2000/svg">
<path d="M20.684 16.2406L20.0345 16.6156L20.0352 16.6168L20.684 16.2406ZM12.0568 2L12.062 1.25H12.0568V2ZM12.0007 2L12.0007 1.25L11.9997 1.25L12.0007 2ZM9.14034 2.57378L8.85199 1.88142L8.85199 1.88142L9.14034 2.57378ZM6.7169 4.20058L6.1854 3.67142L6.1854 3.67142L6.7169 4.20058ZM5.09928 6.63275L5.79274 6.91842L5.79274 6.91842L5.09928 6.63275ZM4.53377 9.5L5.28377 9.5L5.28377 9.49906L4.53377 9.5ZM3.31735 16.2406L3.96447 16.6198L3.96688 16.6156L3.31735 16.2406ZM3.30925 17.7454L2.65809 18.1175L2.65809 18.1175L3.30925 17.7454ZM3.85766 18.2977L4.23432 17.6492L4.23431 17.6492L3.85766 18.2977ZM4.60862 18.5L4.60862 17.75L4.60854 17.75L4.60862 18.5ZM19.3927 18.5L19.3975 17.75H19.3927V18.5ZM20.1443 18.3013L19.7697 17.6516L19.7697 17.6516L20.1443 18.3013ZM20.6934 17.75L21.3446 18.1221L21.3468 18.1181L20.6934 17.75ZM20.8891 16.9941L21.6391 16.9894L21.6391 16.9894L20.8891 16.9941ZM15.8383 19C15.8383 18.5858 15.5025 18.25 15.0883 18.25C14.6741 18.25 14.3383 18.5858 14.3383 19H15.8383ZM14.8604 20.148L15.5535 20.4346L15.5535 20.4346L14.8604 20.148ZM14.2113 21.1213L13.6805 20.5915L13.6805 20.5915L14.2113 21.1213ZM13.2399 21.7716L13.5274 22.4644L13.5274 22.4644L13.2399 21.7716ZM10.9482 21.7716L11.2357 21.0789L11.2357 21.0789L10.9482 21.7716ZM9.97682 21.1213L10.5077 20.5915L10.5077 20.5915L9.97682 21.1213ZM9.84983 19C9.84983 18.5858 9.51404 18.25 9.09983 18.25C8.68561 18.25 8.34983 18.5858 8.34983 19H9.84983ZM21.3335 15.8656C20.8598 15.0451 20.2176 13.3616 20.2176 10.25H18.7176C18.7176 13.5697 19.404 15.5236 20.0345 16.6156L21.3335 15.8656ZM20.2176 10.25V9.58437H18.7176V10.25H20.2176ZM20.2176 9.58437C20.2176 5.0308 16.5748 1.28106 12.062 1.25002L12.0517 2.74998C15.7168 2.77519 18.7176 5.8317 18.7176 9.58437H20.2176ZM12.0568 1.25H12.0007V2.75H12.0568V1.25ZM11.9997 1.25C10.9192 1.25135 9.84964 1.46592 8.85199 1.88142L9.4287 3.26613C10.2442 2.92648 11.1185 2.75111 12.0016 2.75L11.9997 1.25ZM8.85199 1.88142C7.85435 2.29692 6.94825 2.90519 6.1854 3.67142L7.2484 4.72974C7.87227 4.1031 8.61315 3.60579 9.4287 3.26613L8.85199 1.88142ZM6.1854 3.67142C5.42254 4.43766 4.81786 5.34686 4.40582 6.34707L5.79274 6.91842C6.12986 6.10008 6.62452 5.35638 7.2484 4.72974L6.1854 3.67142ZM4.40582 6.34707C3.99378 7.34728 3.78241 8.41896 3.78377 9.50094L5.28377 9.49906C5.28266 8.61367 5.45562 7.73676 5.79274 6.91842L4.40582 6.34707ZM3.78377 9.5V10.25H5.28377V9.5H3.78377ZM3.78377 10.25C3.78377 13.3616 3.14152 15.0451 2.66783 15.8656L3.96688 16.6156C4.59731 15.5236 5.28377 13.5697 5.28377 10.25H3.78377ZM2.67024 15.8615C2.47001 16.2032 2.36349 16.5918 2.36136 16.9879L3.86134 16.9959C3.86205 16.8635 3.89766 16.7338 3.96446 16.6198L2.67024 15.8615ZM2.36136 16.9879C2.35923 17.3839 2.46155 17.7736 2.65809 18.1175L3.96041 17.3732C3.89484 17.2585 3.86063 17.1283 3.86134 16.9959L2.36136 16.9879ZM2.65809 18.1175C2.85463 18.4614 3.13846 18.7474 3.481 18.9463L4.23431 17.6492C4.12051 17.5831 4.02597 17.4879 3.96041 17.3732L2.65809 18.1175ZM3.481 18.9463C3.82355 19.1452 4.21258 19.25 4.6087 19.25L4.60854 17.75C4.4772 17.75 4.34811 17.7153 4.23432 17.6492L3.481 18.9463ZM19.3879 19.25C19.7848 19.2525 20.1752 19.1493 20.519 18.951L19.7697 17.6516C19.6564 17.7169 19.528 17.7508 19.3975 17.75L19.3879 19.25ZM20.519 18.9511C20.8628 18.7528 21.1477 18.4667 21.3445 18.1221L20.0422 17.3779C19.977 17.4919 19.8829 17.5863 19.7697 17.6516L20.519 18.9511ZM21.3468 18.1181C21.5408 17.7737 21.6415 17.3846 21.6391 16.9894L20.1391 16.9987C20.1399 17.133 20.1057 17.2651 20.0399 17.3819L21.3468 18.1181ZM21.6391 16.9894C21.6366 16.5942 21.5311 16.2064 21.3328 15.8644L20.0352 16.6168C20.1024 16.7328 20.1383 16.8644 20.1391 16.9987L21.6391 16.9894ZM14.3383 19C14.3383 19.2957 14.2802 19.5884 14.1673 19.8615L15.5535 20.4346C15.7416 19.9797 15.8383 19.4923 15.8383 19H14.3383ZM14.1673 19.8615C14.0544 20.1346 13.889 20.3826 13.6805 20.5915L14.7422 21.6511C15.0898 21.3029 15.3655 20.8895 15.5535 20.4346L14.1673 19.8615ZM13.6805 20.5915C13.472 20.8004 13.2246 20.966 12.9524 21.0789L13.5274 22.4644C13.9818 22.2758 14.3946 21.9994 14.7422 21.6511L13.6805 20.5915ZM12.9524 21.0789C12.6803 21.1919 12.3886 21.25 12.0941 21.25V22.75C12.586 22.75 13.073 22.6529 13.5274 22.4644L12.9524 21.0789ZM12.0941 21.25C11.7996 21.25 11.5079 21.1919 11.2357 21.0789L10.6607 22.4644C11.1151 22.6529 11.6022 22.75 12.0941 22.75V21.25ZM11.2357 21.0789C10.9635 20.966 10.7161 20.8004 10.5077 20.5915L9.44598 21.6511C9.7936 21.9994 10.2064 22.2758 10.6607 22.4644L11.2357 21.0789ZM10.5077 20.5915C10.2992 20.3826 10.1338 20.1346 10.0209 19.8615L8.63465 20.4346C8.8227 20.8895 9.09837 21.3029 9.44598 21.6511L10.5077 20.5915ZM10.0209 19.8615C9.90796 19.5884 9.84983 19.2957 9.84983 19H8.34983C8.34983 19.4923 8.4466 19.9797 8.63465 20.4346L10.0209 19.8615ZM4.60862 19.25H19.3927V17.75H4.60862V19.25Z" fill="#0D0D0D" fill-opacity="0.8"/>
</svg>
