<svg width="24" height="24" viewBox="0 0 24 24" fill="none" xmlns="http://www.w3.org/2000/svg">
<path d="M20.5727 16.2406L19.9231 16.6156L19.9238 16.6168L20.5727 16.2406ZM11.9455 2L11.9507 1.25H11.9455V2ZM11.8893 2V1.25L11.8884 1.25L11.8893 2ZM9.02902 2.57378L8.74067 1.88142V1.88142L9.02902 2.57378ZM6.60557 4.20058L6.07407 3.67142L6.07407 3.67142L6.60557 4.20058ZM4.98795 6.63275L5.68141 6.91842V6.91842L4.98795 6.63275ZM4.42244 9.5H5.17244L5.17244 9.49906L4.42244 9.5ZM3.20602 16.2406L3.85315 16.6198L3.85555 16.6156L3.20602 16.2406ZM3.19792 17.7454L2.54676 18.1175L2.54676 18.1175L3.19792 17.7454ZM3.74633 18.2977L4.12299 17.6492L4.12299 17.6492L3.74633 18.2977ZM4.49729 18.5V17.75H4.49721L4.49729 18.5ZM19.2814 18.5L19.2862 17.75H19.2814V18.5ZM20.033 18.3013L19.6584 17.6516L19.6584 17.6516L20.033 18.3013ZM20.582 17.75L21.2332 18.1221L21.2355 18.1181L20.582 17.75ZM20.7778 16.9941L21.5277 16.9894V16.9894L20.7778 16.9941ZM15.727 19C15.727 18.5858 15.3912 18.25 14.977 18.25C14.5628 18.25 14.227 18.5858 14.227 19H15.727ZM14.7491 20.1481L15.4422 20.4346L14.7491 20.1481ZM14.1 21.1213L13.5692 20.5915L14.1 21.1213ZM13.1286 21.7716L13.4161 22.4644L13.1286 21.7716ZM10.8369 21.7716L11.1244 21.0789L10.8369 21.7716ZM9.86549 21.1213L10.3963 20.5915L9.86549 21.1213ZM9.7385 19C9.7385 18.5858 9.40271 18.25 8.9885 18.25C8.57429 18.25 8.2385 18.5858 8.2385 19H9.7385ZM21.2222 15.8656C20.7485 15.0451 20.1063 13.3616 20.1063 10.25H18.6063C18.6063 13.5697 19.2927 15.5236 19.9231 16.6156L21.2222 15.8656ZM20.1063 10.25V9.58437H18.6063V10.25H20.1063ZM20.1063 9.58437C20.1063 5.0308 16.4635 1.28106 11.9507 1.25002L11.9403 2.74998C15.6055 2.77519 18.6063 5.8317 18.6063 9.58437H20.1063ZM11.9455 1.25H11.8893V2.75H11.9455V1.25ZM11.8884 1.25C10.8079 1.25135 9.73831 1.46592 8.74067 1.88142L9.31737 3.26613C10.1329 2.92648 11.0072 2.75111 11.8903 2.75L11.8884 1.25ZM8.74067 1.88142C7.74302 2.29692 6.83693 2.90519 6.07407 3.67142L7.13707 4.72974C7.76095 4.1031 8.50182 3.60579 9.31737 3.26613L8.74067 1.88142ZM6.07407 3.67142C5.31121 4.43766 4.70654 5.34686 4.29449 6.34707L5.68141 6.91842C6.01853 6.10008 6.51319 5.35638 7.13707 4.72974L6.07407 3.67142ZM4.29449 6.34707C3.88245 7.34728 3.67109 8.41896 3.67244 9.50094L5.17244 9.49906C5.17133 8.61367 5.34429 7.73676 5.68141 6.91842L4.29449 6.34707ZM3.67244 9.5V10.25H5.17244V9.5H3.67244ZM3.67244 10.25C3.67244 13.3616 3.03019 15.0451 2.5565 15.8656L3.85555 16.6156C4.48599 15.5236 5.17244 13.5697 5.17244 10.25H3.67244ZM2.55892 15.8615C2.35868 16.2032 2.25217 16.5918 2.25003 16.9879L3.75001 16.9959C3.75072 16.8635 3.78634 16.7338 3.85313 16.6198L2.55892 15.8615ZM2.25003 16.9879C2.2479 17.3839 2.35023 17.7736 2.54676 18.1175L3.84908 17.3732C3.78351 17.2585 3.7493 17.1283 3.75001 16.9959L2.25003 16.9879ZM2.54676 18.1175C2.7433 18.4614 3.02713 18.7474 3.36967 18.9463L4.12299 17.6492C4.00918 17.5831 3.91464 17.4879 3.84908 17.3732L2.54676 18.1175ZM3.36967 18.9463C3.71222 19.1452 4.10125 19.25 4.49738 19.25L4.49721 17.75C4.36588 17.75 4.23678 17.7153 4.12299 17.6492L3.36967 18.9463ZM19.2766 19.25C19.6735 19.2525 20.0639 19.1493 20.4077 18.951L19.6584 17.6516C19.5451 17.7169 19.4167 17.7508 19.2862 17.75L19.2766 19.25ZM20.4077 18.9511C20.7515 18.7528 21.0363 18.4667 21.2332 18.1221L19.9308 17.3779C19.8657 17.4919 19.7716 17.5863 19.6584 17.6516L20.4077 18.9511ZM21.2355 18.1181C21.4295 17.7737 21.5302 17.3846 21.5277 16.9894L20.0278 16.9987C20.0286 17.133 19.9944 17.2651 19.9286 17.3819L21.2355 18.1181ZM21.5277 16.9894C21.5253 16.5942 21.4198 16.2064 21.2215 15.8644L19.9238 16.6168C19.9911 16.7328 20.0269 16.8644 20.0278 16.9987L21.5277 16.9894ZM14.227 19C14.227 19.2957 14.1689 19.5884 14.056 19.8615L15.4422 20.4346C15.6302 19.9797 15.727 19.4923 15.727 19H14.227ZM14.056 19.8615C13.9431 20.1346 13.7776 20.3826 13.5692 20.5915L14.6308 21.6511C14.9785 21.3029 15.2541 20.8895 15.4422 20.4346L14.056 19.8615ZM13.5692 20.5915C13.3607 20.8004 13.1133 20.966 12.8411 21.0789L13.4161 22.4644C13.8705 22.2758 14.2832 21.9994 14.6308 21.6511L13.5692 20.5915ZM12.8411 21.0789C12.5689 21.1919 12.2773 21.25 11.9827 21.25V22.75C12.4747 22.75 12.9617 22.6529 13.4161 22.4644L12.8411 21.0789ZM11.9827 21.25C11.6882 21.25 11.3966 21.1919 11.1244 21.0789L10.5494 22.4644C11.0038 22.6529 11.4908 22.75 11.9827 22.75V21.25ZM11.1244 21.0789C10.8522 20.966 10.6048 20.8004 10.3963 20.5915L9.33466 21.6511C9.68228 21.9994 10.095 22.2758 10.5494 22.4644L11.1244 21.0789ZM10.3963 20.5915C10.1879 20.3826 10.0224 20.1346 9.90953 19.8615L8.52332 20.4346C8.71137 20.8895 8.98704 21.3029 9.33466 21.6511L10.3963 20.5915ZM9.90953 19.8615C9.79663 19.5884 9.7385 19.2957 9.7385 19H8.2385C8.2385 19.4923 8.33527 19.9797 8.52332 20.4346L9.90953 19.8615ZM4.49729 19.25H19.2814V17.75H4.49729V19.25Z" fill="#505050"/>
<circle cx="17.5" cy="5.5" r="3.5" fill="#F16A6A"/>
</svg>
