<svg width="44" height="44" viewBox="0 0 44 44" fill="none" xmlns="http://www.w3.org/2000/svg">
<path d="M24.4713 28.1904L24.8817 27.6864V27.6864L24.4713 28.1904ZM19.5287 28.1904L19.1183 27.6864L19.5287 28.1904ZM18.8535 28.7403L19.2639 29.2443L18.8535 28.7403ZM25.1465 28.7403L24.7361 29.2443L25.1465 28.7403ZM20 13.65H24V12.35H20V13.65ZM29.35 19.2188V26.2953H30.65V19.2188H29.35ZM14.65 26.2953V19.2188H13.35V26.2953H14.65ZM25.557 28.2363L24.8817 27.6864L24.0608 28.6944L24.7361 29.2443L25.557 28.2363ZM19.1183 27.6864L18.443 28.2363L19.2639 29.2443L19.9392 28.6944L19.1183 27.6864ZM24.8817 27.6864C24.3011 27.2136 23.821 26.8211 23.3968 26.5537C22.9581 26.277 22.5152 26.0912 22 26.0912V27.3912C22.1766 27.3912 22.3761 27.4469 22.7035 27.6533C23.0454 27.8689 23.4551 28.2011 24.0608 28.6944L24.8817 27.6864ZM19.9392 28.6944C20.5449 28.2011 20.9546 27.8689 21.2965 27.6533C21.6239 27.4469 21.8234 27.3912 22 27.3912V26.0912C21.4848 26.0912 21.0419 26.277 20.6032 26.5537C20.179 26.8211 19.6989 27.2136 19.1183 27.6864L19.9392 28.6944ZM13.35 26.2953C13.35 27.6646 13.3484 28.7632 13.4619 29.568C13.5735 30.3595 13.8265 31.1074 14.5519 31.4729L15.1367 30.3119C15.0178 30.2519 14.8486 30.092 14.7492 29.3865C14.6516 28.6944 14.65 27.7073 14.65 26.2953H13.35ZM18.443 28.2363C17.3706 29.1097 16.6237 29.7156 16.0421 30.0615C15.4526 30.412 15.245 30.3664 15.1367 30.3119L14.5519 31.4729C15.2878 31.8436 16.0299 31.5812 16.7065 31.1789C17.3909 30.7719 18.2264 30.0892 19.2639 29.2443L18.443 28.2363ZM29.35 26.2953C29.35 27.7073 29.3484 28.6944 29.2508 29.3865C29.1514 30.092 28.9822 30.2519 28.8633 30.3119L29.4481 31.4729C30.1735 31.1074 30.4265 30.3595 30.5381 29.568C30.6516 28.7632 30.65 27.6646 30.65 26.2953H29.35ZM24.7361 29.2443C25.7736 30.0892 26.6091 30.7719 27.2935 31.1789C27.9701 31.5812 28.7122 31.8436 29.4481 31.4729L28.8633 30.3119C28.755 30.3664 28.5474 30.412 27.9579 30.0615C27.3763 29.7156 26.6294 29.1097 25.557 28.2363L24.7361 29.2443ZM24 13.65C25.4332 13.65 26.4404 13.6515 27.2021 13.7576C27.9426 13.8608 28.3541 14.0516 28.6535 14.362L29.5891 13.4594C29.0099 12.8591 28.2749 12.5945 27.3815 12.4701C26.5093 12.3485 25.3952 12.35 24 12.35V13.65ZM30.65 19.2188C30.65 17.7707 30.6513 16.6216 30.5348 15.7233C30.4161 14.8087 30.1651 14.0564 29.5891 13.4594L28.6535 14.362C28.9562 14.6757 29.1445 15.1118 29.2456 15.8905C29.3487 16.6857 29.35 17.7353 29.35 19.2188H30.65ZM20 12.35C18.6048 12.35 17.4907 12.3485 16.6185 12.4701C15.7251 12.5945 14.9901 12.8591 14.4109 13.4594L15.3465 14.362C15.6459 14.0516 16.0574 13.8608 16.7979 13.7576C17.5596 13.6515 18.5668 13.65 20 13.65V12.35ZM14.65 19.2188C14.65 17.7353 14.6513 16.6857 14.7544 15.8905C14.8555 15.1118 15.0438 14.6757 15.3465 14.362L14.4109 13.4594C13.8349 14.0564 13.5839 14.8087 13.4652 15.7233C13.3487 16.6216 13.35 17.7707 13.35 19.2188H14.65Z" fill="#505050"/>
</svg>
