<svg width="24" height="24" viewBox="0 0 24 24" fill="none" xmlns="http://www.w3.org/2000/svg">
<path d="M21.1352 16.4527L20.486 16.8282L20.4867 16.8294L21.1352 16.4527ZM12.0592 1.5L12.0644 0.75H12.0592V1.5ZM12.0002 1.5V0.749999L11.9992 0.750001L12.0002 1.5ZM8.99106 2.10246L8.70318 1.40991V1.40991L8.99106 2.10246ZM6.44155 3.81061L5.91056 3.28094V3.28094L6.44155 3.81061ZM4.7398 6.36438L5.43306 6.65053L4.7398 6.36438ZM4.14487 9.375H4.89487L4.89487 9.37406L4.14487 9.375ZM2.86518 16.4527L3.51198 16.8323L3.51439 16.8282L2.86518 16.4527ZM2.85665 18.0326L2.2058 18.4053L2.2058 18.4053L2.85665 18.0326ZM3.43359 18.6126L3.80971 17.9638L3.8097 17.9638L3.43359 18.6126ZM4.22362 18.825V18.075H4.22353L4.22362 18.825ZM19.7767 18.825L19.7815 18.075H19.7767V18.825ZM20.5674 18.6164L20.1933 17.9664L20.1933 17.9664L20.5674 18.6164ZM21.145 18.0375L21.7959 18.4101L21.7982 18.4061L21.145 18.0375ZM21.3509 17.2438L22.1009 17.2391V17.2391L21.3509 17.2438ZM15.0087 20.5555L15.7016 20.8425L15.0087 20.5555ZM14.3258 21.5774L13.7955 21.0471H13.7955L14.3258 21.5774ZM13.3039 22.2602L13.5909 22.9531L13.3039 22.2602ZM10.893 22.2602L11.18 21.5673L10.893 22.2602ZM9.87105 21.5774L10.4014 21.0471L9.87105 21.5774ZM21.7844 16.0771C21.2822 15.2089 20.6055 13.4346 20.6055 10.1625H19.1055C19.1055 13.6432 19.8266 15.6883 20.486 16.8282L21.7844 16.0771ZM20.6055 10.1625V9.46359H19.1055V10.1625H20.6055ZM20.6055 9.46359C20.6055 4.701 16.7886 0.782449 12.0644 0.750018L12.0541 2.24998C15.9333 2.27661 19.1055 5.50462 19.1055 9.46359H20.6055ZM12.0592 0.75H12.0002V2.25H12.0592V0.75ZM11.9992 0.750001C10.8679 0.751416 9.74788 0.975655 8.70318 1.40991L9.27894 2.79501C10.1417 2.43636 11.0667 2.25117 12.0011 2.25L11.9992 0.750001ZM8.70318 1.40991C7.65849 1.84417 6.70955 2.47995 5.91056 3.28094L6.97255 4.34028C7.63242 3.67875 8.41614 3.15366 9.27894 2.79501L8.70318 1.40991ZM5.91056 3.28094C5.11157 4.08194 4.47817 5.03246 4.04653 6.07824L5.43306 6.65053C5.78955 5.78683 6.31267 5.00181 6.97255 4.34028L5.91056 3.28094ZM4.04653 6.07824C3.61488 7.12402 3.39345 8.24458 3.39487 9.37594L4.89487 9.37406C4.8937 8.43968 5.07658 7.51423 5.43306 6.65053L4.04653 6.07824ZM3.39487 9.375V10.1625H4.89487V9.375H3.39487ZM3.39487 10.1625C3.39487 13.4346 2.71816 15.2089 2.21596 16.0771L3.51439 16.8282C4.17376 15.6883 4.89487 13.6432 4.89487 10.1625H3.39487ZM2.21839 16.073C2.01104 16.4262 1.90068 16.8279 1.89847 17.2375L3.39845 17.2455C3.39923 17.1002 3.43839 16.9577 3.51197 16.8323L2.21839 16.073ZM1.89847 17.2375C1.89626 17.647 2.00228 18.0499 2.2058 18.4053L3.5075 17.66C3.43529 17.5338 3.39767 17.3909 3.39845 17.2455L1.89847 17.2375ZM2.2058 18.4053C2.40932 18.7607 2.70312 19.0561 3.05747 19.2615L3.8097 17.9638C3.68397 17.8909 3.57972 17.7861 3.5075 17.66L2.2058 18.4053ZM3.05747 19.2615C3.41182 19.4669 3.81413 19.575 4.2237 19.575L4.22353 18.075C4.0782 18.075 3.93544 18.0366 3.80971 17.9638L3.05747 19.2615ZM19.772 19.575C20.1823 19.5776 20.5859 19.4711 20.9416 19.2664L20.1933 17.9664C20.0681 18.0384 19.926 18.0759 19.7815 18.075L19.772 19.575ZM20.9416 19.2664C21.2972 19.0617 21.592 18.7662 21.7959 18.4101L20.4941 17.6649C20.4224 17.7903 20.3185 17.8943 20.1933 17.9664L20.9416 19.2664ZM21.7982 18.4061C21.9991 18.0502 22.1034 17.6479 22.1009 17.2391L20.6009 17.2484C20.6019 17.3957 20.5643 17.5406 20.4919 17.6689L21.7982 18.4061ZM22.1009 17.2391C22.0984 16.8304 21.989 16.4294 21.7837 16.0759L20.4867 16.8294C20.5606 16.9567 20.6 17.1012 20.6009 17.2484L22.1009 17.2391ZM14.4984 19.35C14.4984 19.6652 14.4364 19.9773 14.3157 20.2684L15.7016 20.8425C15.8976 20.3693 15.9984 19.8622 15.9984 19.35H14.4984ZM14.3157 20.2684C14.1951 20.5596 14.0184 20.8242 13.7955 21.0471L14.8562 22.1077C15.2183 21.7456 15.5056 21.3156 15.7016 20.8425L14.3157 20.2684ZM13.7955 21.0471C13.5726 21.2699 13.3081 21.4467 13.0169 21.5673L13.5909 22.9531C14.0641 22.7571 14.494 22.4699 14.8562 22.1077L13.7955 21.0471ZM13.0169 21.5673C12.7257 21.6879 12.4136 21.75 12.0984 21.75V23.25C12.6106 23.25 13.1177 23.1491 13.5909 22.9531L13.0169 21.5673ZM12.0984 21.75C11.7833 21.75 11.4712 21.6879 11.18 21.5673L10.606 22.9531C11.0791 23.1491 11.5863 23.25 12.0984 23.25V21.75ZM11.18 21.5673C10.8888 21.4467 10.6242 21.2699 10.4014 21.0471L9.34072 22.1077C9.70287 22.4699 10.1328 22.7571 10.606 22.9531L11.18 21.5673ZM10.4014 21.0471C10.1785 20.8242 10.0017 20.5596 9.88113 20.2684L8.49531 20.8425C8.6913 21.3156 8.97857 21.7456 9.34072 22.1077L10.4014 21.0471ZM9.88113 20.2684C9.76052 19.9773 9.69844 19.6652 9.69844 19.35H8.19844C8.19844 19.8622 8.29931 20.3693 8.49531 20.8425L9.88113 20.2684ZM4.22362 19.575H19.7767V18.075H4.22362V19.575Z" fill="#0D0D0D" fill-opacity="0.5"/>
</svg>
