<svg width="24" height="24" viewBox="0 0 24 24" fill="none" xmlns="http://www.w3.org/2000/svg">
<path d="M3.10938 8.90976C3.10938 5.65247 3.10938 4.02382 4.08569 3.01191C5.062 2 6.63334 2 9.77604 2H14.2205C17.3632 2 18.9345 2 19.9108 3.01191C20.8872 4.02382 20.8872 5.65247 20.8872 8.90976V16.7726C20.8872 19.8627 20.8872 21.4078 19.949 21.8804C19.0109 22.353 17.8388 21.3984 15.4944 19.4892L14.7441 18.8782C13.4259 17.8048 12.7668 17.268 11.9983 17.268C11.2297 17.268 10.5706 17.8048 9.25239 18.8782L8.50211 19.4892C6.15776 21.3984 4.98558 22.353 4.04748 21.8804C3.10938 21.4078 3.10938 19.8627 3.10938 16.7726V8.90976Z" fill="#2199FC"/>
<path d="M14.7441 18.8782L15.2177 18.2967V18.2967L14.7441 18.8782ZM9.25239 18.8782L8.77879 18.2967H8.77879L9.25239 18.8782ZM8.50211 19.4892L8.97571 20.0708L8.50211 19.4892ZM15.4944 19.4892L15.0208 20.0708L15.4944 19.4892ZM9.77604 2.75H14.2205V1.25H9.77604V2.75ZM20.1372 8.90976V16.7726H21.6372V8.90976H20.1372ZM3.85938 16.7726V8.90976H2.35938V16.7726H3.85938ZM15.968 18.9077L15.2177 18.2967L14.2705 19.4598L15.0208 20.0708L15.968 18.9077ZM8.77879 18.2967L8.02851 18.9077L8.97571 20.0708L9.72599 19.4598L8.77879 18.2967ZM15.2177 18.2967C14.5731 17.7717 14.0382 17.3344 13.5651 17.0362C13.0753 16.7273 12.5779 16.518 11.9983 16.518V18.018C12.1872 18.018 12.4037 18.0771 12.7651 18.305C13.1433 18.5434 13.597 18.9112 14.2705 19.4598L15.2177 18.2967ZM9.72599 19.4598C10.3996 18.9113 10.8533 18.5434 11.2315 18.305C11.5928 18.0771 11.8093 18.018 11.9983 18.018V16.518C11.4186 16.518 10.9213 16.7273 10.4314 17.0362C9.95835 17.3344 9.4234 17.7717 8.77879 18.2967L9.72599 19.4598ZM2.35938 16.7726C2.35938 18.293 2.35755 19.5162 2.48398 20.4128C2.60825 21.2941 2.89113 22.1377 3.71006 22.5502L4.3849 21.2106C4.26572 21.1505 4.07956 20.9853 3.96929 20.2034C3.8612 19.4368 3.85938 18.3423 3.85938 16.7726H2.35938ZM8.02851 18.9077C6.83617 19.8787 6.00821 20.5504 5.36414 20.9333C4.71102 21.3217 4.49184 21.2645 4.3849 21.2106L3.71006 22.5502C4.54122 22.9689 5.37718 22.6707 6.13076 22.2226C6.8934 21.7691 7.8237 21.0089 8.97571 20.0708L8.02851 18.9077ZM20.1372 16.7726C20.1372 18.3423 20.1353 19.4368 20.0272 20.2034C19.917 20.9853 19.7308 21.1505 19.6116 21.2106L20.2865 22.5502C21.1054 22.1377 21.3883 21.2941 21.5125 20.4128C21.639 19.5162 21.6372 18.293 21.6372 16.7726H20.1372ZM15.0208 20.0708C16.1728 21.0089 17.1031 21.7691 17.8658 22.2226C18.6193 22.6707 19.4553 22.9689 20.2865 22.5502L19.6116 21.2106C19.5047 21.2645 19.2855 21.3217 18.6324 20.9333C17.9883 20.5504 17.1604 19.8787 15.968 18.9077L15.0208 20.0708ZM14.2205 2.75C15.8138 2.75 16.9306 2.75171 17.7745 2.86931C18.5941 2.98351 19.0443 3.19395 19.3711 3.53266L20.4506 2.49116C19.8011 1.81796 18.9775 1.52244 17.9816 1.38367C17.0101 1.24829 15.7699 1.25 14.2205 1.25V2.75ZM21.6372 8.90976C21.6372 7.30159 21.6386 6.02263 21.5089 5.02234C21.3767 4.00314 21.0965 3.1606 20.4506 2.49116L19.3711 3.53266C19.7015 3.87513 19.9095 4.35287 20.0213 5.21529C20.1357 6.09662 20.1372 7.26063 20.1372 8.90976H21.6372ZM9.77604 1.25C8.22665 1.25 6.98644 1.24829 6.01496 1.38367C5.01906 1.52244 4.19546 1.81796 3.54595 2.49116L4.62542 3.53266C4.95222 3.19395 5.40245 2.98351 6.22198 2.86931C7.06592 2.75171 8.18274 2.75 9.77604 2.75V1.25ZM3.85938 8.90976C3.85938 7.26063 3.86086 6.09662 3.97518 5.21529C4.08705 4.35287 4.295 3.87513 4.62542 3.53266L3.54595 2.49116C2.90006 3.1606 2.61985 4.00314 2.48765 5.02234C2.35789 6.02263 2.35938 7.30159 2.35938 8.90976H3.85938Z" fill="#2199FC"/>
</svg>
