<svg width="24" height="24" viewBox="0 0 24 24" fill="none" xmlns="http://www.w3.org/2000/svg">
<path d="M14.7461 18.8782L15.2197 18.2967V18.2967L14.7461 18.8782ZM9.25434 18.8782L8.78075 18.2967H8.78075L9.25434 18.8782ZM8.50406 19.4892L8.97766 20.0708L8.50406 19.4892ZM15.4964 19.4892L15.0228 20.0708L15.4964 19.4892ZM9.77799 2.75H14.2224V1.25H9.77799V2.75ZM20.1391 8.90976V16.7726H21.6391V8.90976H20.1391ZM3.86133 16.7726V8.90976H2.36133V16.7726H3.86133ZM15.97 18.9077L15.2197 18.2967L14.2725 19.4598L15.0228 20.0708L15.97 18.9077ZM8.78075 18.2967L8.03047 18.9077L8.97766 20.0708L9.72794 19.4598L8.78075 18.2967ZM15.2197 18.2967C14.5751 17.7717 14.0401 17.3344 13.5671 17.0362C13.0772 16.7273 12.5799 16.518 12.0002 16.518V18.018C12.1892 18.018 12.4056 18.0771 12.767 18.305C13.1452 18.5434 13.5989 18.9112 14.2725 19.4598L15.2197 18.2967ZM9.72794 19.4598C10.4015 18.9113 10.8552 18.5434 11.2334 18.305C11.5948 18.0771 11.8113 18.018 12.0002 18.018V16.518C11.4206 16.518 10.9232 16.7273 10.4334 17.0362C9.9603 17.3344 9.42535 17.7717 8.78075 18.2967L9.72794 19.4598ZM2.36133 16.7726C2.36133 18.293 2.3595 19.5162 2.48594 20.4128C2.6102 21.2941 2.89308 22.1377 3.71201 22.5502L4.38685 21.2106C4.26768 21.1505 4.08151 20.9853 3.97124 20.2034C3.86315 19.4368 3.86133 18.3423 3.86133 16.7726H2.36133ZM8.03047 18.9077C6.83812 19.8787 6.01016 20.5504 5.36609 20.9333C4.71298 21.3217 4.4938 21.2645 4.38685 21.2106L3.71201 22.5502C4.54317 22.9689 5.37913 22.6707 6.13272 22.2226C6.89535 21.7691 7.82566 21.0089 8.97766 20.0708L8.03047 18.9077ZM20.1391 16.7726C20.1391 18.3423 20.1373 19.4368 20.0292 20.2034C19.9189 20.9853 19.7328 21.1505 19.6136 21.2106L20.2884 22.5502C21.1073 22.1377 21.3902 21.2941 21.5145 20.4128C21.6409 19.5162 21.6391 18.293 21.6391 16.7726H20.1391ZM15.0228 20.0708C16.1748 21.0089 17.1051 21.7691 17.8677 22.2226C18.6213 22.6707 19.4573 22.9689 20.2884 22.5502L19.6136 21.2106C19.5066 21.2645 19.2875 21.3217 18.6343 20.9333C17.9903 20.5504 17.1623 19.8787 15.97 18.9077L15.0228 20.0708ZM14.2224 2.75C15.8157 2.75 16.9326 2.75171 17.7765 2.86931C18.596 2.98351 19.0463 3.19395 19.3731 3.53266L20.4525 2.49116C19.803 1.81796 18.9794 1.52244 17.9835 1.38367C17.012 1.24829 15.7718 1.25 14.2224 1.25V2.75ZM21.6391 8.90976C21.6391 7.30159 21.6406 6.02263 21.5108 5.02234C21.3786 4.00314 21.0984 3.1606 20.4525 2.49116L19.3731 3.53266C19.7035 3.87513 19.9114 4.35287 20.0233 5.21529C20.1376 6.09662 20.1391 7.26063 20.1391 8.90976H21.6391ZM9.77799 1.25C8.2286 1.25 6.98839 1.24829 6.01691 1.38367C5.02102 1.52244 4.19742 1.81796 3.5479 2.49116L4.62738 3.53266C4.95417 3.19395 5.4044 2.98351 6.22393 2.86931C7.06788 2.75171 8.18469 2.75 9.77799 2.75V1.25ZM3.86133 8.90976C3.86133 7.26063 3.86281 6.09662 3.97714 5.21529C4.08901 4.35287 4.29696 3.87513 4.62738 3.53266L3.5479 2.49116C2.90201 3.1606 2.62181 4.00314 2.4896 5.02234C2.35984 6.02263 2.36133 7.30159 2.36133 8.90976H3.86133Z" fill="#0D0D0D" fill-opacity="0.8"/>
</svg>
