<svg width="22" height="22" viewBox="0 0 22 22" fill="none" xmlns="http://www.w3.org/2000/svg">
<path d="M5.80122 7.44444C5.80122 7.39842 5.83853 7.36111 5.88455 7.36111V8.86111C6.66695 8.86111 7.30122 8.22685 7.30122 7.44444H5.80122ZM5.88455 7.36111C5.93057 7.36111 5.96788 7.39842 5.96788 7.44444H4.46788C4.46788 8.22685 5.10215 8.86111 5.88455 8.86111V7.36111ZM5.96788 7.44444C5.96788 7.49047 5.93057 7.52778 5.88455 7.52778V6.02778C5.10215 6.02778 4.46788 6.66204 4.46788 7.44444H5.96788ZM5.88455 7.52778C5.83852 7.52778 5.80122 7.49047 5.80122 7.44444H7.30122C7.30122 6.66204 6.66695 6.02778 5.88455 6.02778V7.52778ZM8.79364 8.17231H16.7936V6.67231H8.79364V8.17231ZM5.80122 11C5.80122 10.954 5.83852 10.9167 5.88455 10.9167V12.4167C6.66695 12.4167 7.30122 11.7824 7.30122 11H5.80122ZM5.88455 10.9167C5.93057 10.9167 5.96788 10.954 5.96788 11H4.46788C4.46788 11.7824 5.10215 12.4167 5.88455 12.4167V10.9167ZM5.96788 11C5.96788 11.046 5.93057 11.0833 5.88455 11.0833V9.58333C5.10215 9.58333 4.46788 10.2176 4.46788 11H5.96788ZM5.88455 11.0833C5.83852 11.0833 5.80122 11.046 5.80122 11H7.30122C7.30122 10.2176 6.66695 9.58333 5.88455 9.58333V11.0833ZM8.79364 11.7279H16.7936V10.2279H8.79364V11.7279ZM5.80122 14.5556C5.80122 14.5095 5.83852 14.4722 5.88455 14.4722V15.9722C6.66695 15.9722 7.30122 15.338 7.30122 14.5556H5.80122ZM5.88455 14.4722C5.93057 14.4722 5.96788 14.5095 5.96788 14.5556H4.46788C4.46788 15.338 5.10215 15.9722 5.88455 15.9722V14.4722ZM5.96788 14.5556C5.96788 14.6016 5.93057 14.6389 5.88455 14.6389V13.1389C5.10215 13.1389 4.46788 13.7732 4.46788 14.5556H5.96788ZM5.88455 14.6389C5.83853 14.6389 5.80122 14.6016 5.80122 14.5556H7.30122C7.30122 13.7732 6.66695 13.1389 5.88455 13.1389V14.6389ZM8.79364 15.2834H16.7936V13.7834H8.79364V15.2834ZM3.77344 1.75H17.7734V0.25H3.77344V1.75ZM20.0234 4V18H21.5234V4H20.0234ZM17.7734 20.25H3.77344V21.75H17.7734V20.25ZM1.52344 18V4H0.0234375V18H1.52344ZM3.77344 20.25C2.5308 20.25 1.52344 19.2426 1.52344 18H0.0234375C0.0234375 20.0711 1.70237 21.75 3.77344 21.75V20.25ZM20.0234 18C20.0234 19.2426 19.0161 20.25 17.7734 20.25V21.75C19.8445 21.75 21.5234 20.0711 21.5234 18H20.0234ZM17.7734 1.75C19.0161 1.75 20.0234 2.75736 20.0234 4H21.5234C21.5234 1.92893 19.8445 0.25 17.7734 0.25V1.75ZM3.77344 0.25C1.70237 0.25 0.0234375 1.92893 0.0234375 4H1.52344C1.52344 2.75736 2.5308 1.75 3.77344 1.75V0.25Z" fill="#0D0D0D" fill-opacity="0.5"/>
</svg>
