<svg width="22" height="22" viewBox="0 0 22 22" fill="none" xmlns="http://www.w3.org/2000/svg">
<rect width="20" height="20" transform="translate(1 1)" fill="#2199FC"/>
<path d="M4 1.75H18V0.25H4V1.75ZM20.25 4V18H21.75V4H20.25ZM18 20.25H4V21.75H18V20.25ZM1.75 18V4H0.25V18H1.75ZM4 20.25C2.75736 20.25 1.75 19.2426 1.75 18H0.25C0.25 20.0711 1.92893 21.75 4 21.75V20.25ZM20.25 18C20.25 19.2426 19.2426 20.25 18 20.25V21.75C20.0711 21.75 21.75 20.0711 21.75 18H20.25ZM18 1.75C19.2426 1.75 20.25 2.75736 20.25 4H21.75C21.75 1.92893 20.0711 0.25 18 0.25V1.75ZM4 0.25C1.92893 0.25 0.25 1.92893 0.25 4H1.75C1.75 2.75736 2.75736 1.75 4 1.75V0.25Z" fill="#2199FC"/>
<path d="M6.03841 7.43913C6.03841 7.3931 6.07572 7.35579 6.12175 7.35579V8.85579C6.90415 8.85579 7.53841 8.22153 7.53841 7.43913H6.03841ZM6.12175 7.35579C6.16777 7.35579 6.20508 7.3931 6.20508 7.43913H4.70508C4.70508 8.22153 5.33934 8.85579 6.12175 8.85579V7.35579ZM6.20508 7.43913C6.20508 7.48515 6.16777 7.52246 6.12175 7.52246V6.02246C5.33934 6.02246 4.70508 6.65672 4.70508 7.43913H6.20508ZM6.12175 7.52246C6.07572 7.52246 6.03841 7.48515 6.03841 7.43913H7.53841C7.53841 6.65673 6.90415 6.02246 6.12175 6.02246V7.52246ZM9.03083 8.16699H17.0308V6.66699H9.03083V8.16699ZM6.03841 10.9947C6.03841 10.9487 6.07572 10.9114 6.12175 10.9114V12.4114C6.90415 12.4114 7.53841 11.7771 7.53841 10.9947H6.03841ZM6.12175 10.9114C6.16777 10.9114 6.20508 10.9487 6.20508 10.9947H4.70508C4.70508 11.7771 5.33934 12.4114 6.12175 12.4114V10.9114ZM6.20508 10.9947C6.20508 11.0407 6.16777 11.078 6.12175 11.078V9.57802C5.33934 9.57802 4.70508 10.2123 4.70508 10.9947H6.20508ZM6.12175 11.078C6.07572 11.078 6.03841 11.0407 6.03841 10.9947H7.53841C7.53841 10.2123 6.90415 9.57802 6.12175 9.57802V11.078ZM9.03083 11.7225H17.0308V10.2225H9.03083V11.7225ZM6.03841 14.5502C6.03841 14.5042 6.07572 14.4669 6.12175 14.4669V15.9669C6.90415 15.9669 7.53841 15.3326 7.53841 14.5502H6.03841ZM6.12175 14.4669C6.16777 14.4669 6.20508 14.5042 6.20508 14.5502H4.70508C4.70508 15.3326 5.33934 15.9669 6.12175 15.9669V14.4669ZM6.20508 14.5502C6.20508 14.5963 6.16777 14.6336 6.12175 14.6336V13.1336C5.33934 13.1336 4.70508 13.7678 4.70508 14.5502H6.20508ZM6.12175 14.6336C6.07572 14.6336 6.03841 14.5963 6.03841 14.5502H7.53841C7.53841 13.7678 6.90415 13.1336 6.12175 13.1336V14.6336ZM9.03083 15.2781H17.0308V13.7781H9.03083V15.2781Z" fill="white"/>
</svg>
