<svg width="22" height="22" viewBox="0 0 22 22" fill="none" xmlns="http://www.w3.org/2000/svg">
<rect width="20" height="20" transform="translate(1 1)" fill="#2199FC"/>
<path d="M4 1.75H18V0.25H4V1.75ZM20.25 4V18H21.75V4H20.25ZM18 20.25H4V21.75H18V20.25ZM1.75 18V4H0.25V18H1.75ZM4 20.25C2.75736 20.25 1.75 19.2426 1.75 18H0.25C0.25 20.0711 1.92893 21.75 4 21.75V20.25ZM20.25 18C20.25 19.2426 19.2426 20.25 18 20.25V21.75C20.0711 21.75 21.75 20.0711 21.75 18H20.25ZM18 1.75C19.2426 1.75 20.25 2.75736 20.25 4H21.75C21.75 1.92893 20.0711 0.25 18 0.25V1.75ZM4 0.25C1.92893 0.25 0.25 1.92893 0.25 4H1.75C1.75 2.75736 2.75736 1.75 4 1.75V0.25Z" fill="#2199FC"/>
<path d="M6.03646 7.4401C6.03646 7.39408 6.07377 7.35677 6.11979 7.35677V8.85677C6.9022 8.85677 7.53646 8.22251 7.53646 7.4401H6.03646ZM6.11979 7.35677C6.16581 7.35677 6.20312 7.39408 6.20312 7.4401H4.70312C4.70312 8.22251 5.33739 8.85677 6.11979 8.85677V7.35677ZM6.20312 7.4401C6.20312 7.48613 6.16582 7.52344 6.11979 7.52344V6.02344C5.33739 6.02344 4.70312 6.6577 4.70312 7.4401H6.20312ZM6.11979 7.52344C6.07377 7.52344 6.03646 7.48613 6.03646 7.4401H7.53646C7.53646 6.6577 6.9022 6.02344 6.11979 6.02344V7.52344ZM9.02888 8.16797H17.0289V6.66797H9.02888V8.16797ZM6.03646 10.9957C6.03646 10.9496 6.07377 10.9123 6.11979 10.9123V12.4123C6.9022 12.4123 7.53646 11.7781 7.53646 10.9957H6.03646ZM6.11979 10.9123C6.16582 10.9123 6.20312 10.9496 6.20312 10.9957H4.70312C4.70312 11.7781 5.33739 12.4123 6.11979 12.4123V10.9123ZM6.20312 10.9957C6.20312 11.0417 6.16582 11.079 6.11979 11.079V9.57899C5.33739 9.57899 4.70312 10.2133 4.70312 10.9957H6.20312ZM6.11979 11.079C6.07377 11.079 6.03646 11.0417 6.03646 10.9957H7.53646C7.53646 10.2133 6.9022 9.57899 6.11979 9.57899V11.079ZM9.02888 11.7235H17.0289V10.2235H9.02888V11.7235ZM6.03646 14.5512C6.03646 14.5052 6.07377 14.4679 6.11979 14.4679V15.9679C6.9022 15.9679 7.53646 15.3336 7.53646 14.5512H6.03646ZM6.11979 14.4679C6.16582 14.4679 6.20312 14.5052 6.20312 14.5512H4.70312C4.70312 15.3336 5.33739 15.9679 6.11979 15.9679V14.4679ZM6.20312 14.5512C6.20312 14.5972 6.16581 14.6345 6.11979 14.6345V13.1345C5.33739 13.1345 4.70312 13.7688 4.70312 14.5512H6.20312ZM6.11979 14.6345C6.07377 14.6345 6.03646 14.5972 6.03646 14.5512H7.53646C7.53646 13.7688 6.9022 13.1345 6.11979 13.1345V14.6345ZM9.02888 15.2791H17.0289V13.7791H9.02888V15.2791Z" fill="white"/>
</svg>
