<svg width="22" height="23" viewBox="0 0 22 23" fill="none" xmlns="http://www.w3.org/2000/svg">
<path d="M6.22934 7.94444C6.22934 7.94794 6.22876 7.94964 6.2283 7.95073C6.22765 7.95226 6.22644 7.95425 6.22446 7.95623C6.22248 7.95821 6.22049 7.95942 6.21896 7.96007C6.21787 7.96053 6.21617 7.96111 6.21267 7.96111V9.26111C6.93985 9.26111 7.52934 8.67162 7.52934 7.94444H6.22934ZM6.21267 7.96111C6.20917 7.96111 6.20748 7.96053 6.20639 7.96007C6.20486 7.95942 6.20287 7.95821 6.20089 7.95623C6.19891 7.95425 6.19769 7.95226 6.19705 7.95073C6.19659 7.94964 6.19601 7.94794 6.19601 7.94444H4.89601C4.89601 8.67162 5.4855 9.26111 6.21267 9.26111V7.96111ZM6.19601 7.94444C6.19601 7.94094 6.19659 7.93925 6.19705 7.93816C6.19769 7.93663 6.19891 7.93464 6.20089 7.93266C6.20287 7.93068 6.20486 7.92947 6.20639 7.92882C6.20748 7.92836 6.20917 7.92778 6.21267 7.92778V6.62778C5.4855 6.62778 4.89601 7.21727 4.89601 7.94444H6.19601ZM6.21267 7.92778C6.21617 7.92778 6.21787 7.92836 6.21896 7.92882C6.22049 7.92947 6.22248 7.93068 6.22446 7.93266C6.22644 7.93464 6.22765 7.93663 6.2283 7.93816C6.22876 7.93925 6.22934 7.94094 6.22934 7.94444H7.52934C7.52934 7.21727 6.93985 6.62778 6.21267 6.62778V7.92778ZM9.12176 8.57231H17.1218V7.27231H9.12176V8.57231ZM6.22934 11.5C6.22934 11.5035 6.22876 11.5052 6.2283 11.5063C6.22765 11.5078 6.22644 11.5098 6.22446 11.5118C6.22248 11.5138 6.22049 11.515 6.21896 11.5156C6.21787 11.5161 6.21617 11.5167 6.21267 11.5167V12.8167C6.93985 12.8167 7.52934 12.2272 7.52934 11.5H6.22934ZM6.21267 11.5167C6.20917 11.5167 6.20748 11.5161 6.20639 11.5156C6.20486 11.515 6.20287 11.5138 6.20089 11.5118C6.19891 11.5098 6.19769 11.5078 6.19705 11.5063C6.19659 11.5052 6.19601 11.5035 6.19601 11.5H4.89601C4.89601 12.2272 5.4855 12.8167 6.21267 12.8167V11.5167ZM6.19601 11.5C6.19601 11.4965 6.19659 11.4948 6.19705 11.4937C6.19769 11.4922 6.19891 11.4902 6.20089 11.4882C6.20287 11.4862 6.20486 11.485 6.20639 11.4844C6.20748 11.4839 6.20917 11.4833 6.21267 11.4833V10.1833C5.4855 10.1833 4.89601 10.7728 4.89601 11.5H6.19601ZM6.21267 11.4833C6.21617 11.4833 6.21787 11.4839 6.21896 11.4844C6.22049 11.485 6.22248 11.4862 6.22446 11.4882C6.22644 11.4902 6.22765 11.4922 6.2283 11.4937C6.22876 11.4948 6.22934 11.4965 6.22934 11.5H7.52934C7.52934 10.7728 6.93985 10.1833 6.21267 10.1833V11.4833ZM9.12176 12.1279H17.1218V10.8279H9.12176V12.1279ZM6.22934 15.0556C6.22934 15.0591 6.22876 15.0608 6.2283 15.0618C6.22765 15.0634 6.22644 15.0654 6.22446 15.0673C6.22248 15.0693 6.22049 15.0705 6.21896 15.0712C6.21787 15.0716 6.21617 15.0722 6.21267 15.0722V16.3722C6.93985 16.3722 7.52934 15.7827 7.52934 15.0556H6.22934ZM6.21267 15.0722C6.20917 15.0722 6.20748 15.0716 6.20639 15.0712C6.20486 15.0705 6.20287 15.0693 6.20089 15.0673C6.19891 15.0654 6.19769 15.0634 6.19705 15.0618C6.19659 15.0608 6.19601 15.0591 6.19601 15.0556H4.89601C4.89601 15.7827 5.4855 16.3722 6.21267 16.3722V15.0722ZM6.19601 15.0556C6.19601 15.0521 6.19659 15.0504 6.19705 15.0493C6.19769 15.0477 6.19891 15.0458 6.20089 15.0438C6.20287 15.0418 6.20486 15.0406 6.20639 15.0399C6.20748 15.0395 6.20917 15.0389 6.21267 15.0389V13.7389C5.4855 13.7389 4.89601 14.3284 4.89601 15.0556H6.19601ZM6.21267 15.0389C6.21617 15.0389 6.21787 15.0395 6.21896 15.0399C6.22049 15.0406 6.22248 15.0418 6.22446 15.0438C6.22644 15.0458 6.22765 15.0477 6.2283 15.0493C6.22876 15.0504 6.22934 15.0521 6.22934 15.0556H7.52934C7.52934 14.3284 6.93985 13.7389 6.21267 13.7389V15.0389ZM9.12176 15.6834H17.1218V14.3834H9.12176V15.6834ZM4.10156 2.15H18.1016V0.85H4.10156V2.15ZM20.4516 4.5V18.5H21.7516V4.5H20.4516ZM18.1016 20.85H4.10156V22.15H18.1016V20.85ZM1.75156 18.5V4.5H0.451563V18.5H1.75156ZM4.10156 20.85C2.80369 20.85 1.75156 19.7979 1.75156 18.5H0.451563C0.451563 20.5158 2.08572 22.15 4.10156 22.15V20.85ZM20.4516 18.5C20.4516 19.7979 19.3994 20.85 18.1016 20.85V22.15C20.1174 22.15 21.7516 20.5158 21.7516 18.5H20.4516ZM18.1016 2.15C19.3994 2.15 20.4516 3.20213 20.4516 4.5H21.7516C21.7516 2.48416 20.1174 0.85 18.1016 0.85V2.15ZM4.10156 0.85C2.08572 0.85 0.451563 2.48416 0.451563 4.5H1.75156C1.75156 3.20213 2.80369 2.15 4.10156 2.15V0.85Z" fill="#505050"/>
</svg>
