<svg width="24" height="24" viewBox="0 0 24 24" fill="none" xmlns="http://www.w3.org/2000/svg">
<path d="M22.0479 1.95187L21.5158 2.48045L21.5196 2.48422L22.0479 1.95187ZM20.5464 1.55745L20.7498 2.27937L20.75 2.27931L20.5464 1.55745ZM2.61546 6.60791L2.41212 5.88597L2.40544 5.88791L2.61546 6.60791ZM1.85131 7.11266L1.27147 6.63697H1.27147L1.85131 7.11266ZM1.69971 8.85525L1.04645 9.22369H1.04645L1.69971 8.85525ZM2.36522 9.48426L2.03408 10.1573L2.0449 10.1624L2.36522 9.48426ZM10.6137 13.3803L11.2917 13.0597L11.1769 12.8169L10.934 12.7022L10.6137 13.3803ZM14.5117 21.6246L13.8337 21.9452L13.8351 21.9482L14.5117 21.6246ZM15.0784 22.262L15.479 21.6279L15.4789 21.6279L15.0784 22.262ZM15.8977 22.5L15.896 23.25H15.8977V22.5ZM16.0324 22.5V23.25H16.0612L16.09 23.2478L16.0324 22.5ZM16.8872 22.1562L17.3635 22.7355L17.3635 22.7355L16.8872 22.1562ZM17.3895 21.3841L16.6676 21.1807L16.6669 21.1834L17.3895 21.3841ZM22.4425 3.45258L21.7207 3.24885L21.7206 3.24915L22.4425 3.45258ZM22.4497 2.6485L23.1751 2.45777L23.1751 2.45776L22.4497 2.6485ZM10.1665 12.773C9.86839 13.0605 9.85983 13.5353 10.1474 13.8334C10.4349 14.1316 10.9097 14.1401 11.2079 13.8526L10.1665 12.773ZM17.0925 8.17651C17.3906 7.88895 17.3992 7.41416 17.1116 7.11603C16.8241 6.8179 16.3493 6.80933 16.0512 7.09689L17.0925 8.17651ZM22.58 1.4233C22.2934 1.13478 21.9348 0.928174 21.5415 0.824849L21.1604 2.27563C21.295 2.31101 21.4178 2.38173 21.5158 2.48044L22.58 1.4233ZM21.5415 0.824849C21.1481 0.721525 20.7343 0.725237 20.3429 0.8356L20.75 2.27931C20.884 2.24152 21.0257 2.24025 21.1604 2.27563L21.5415 0.824849ZM20.3431 0.835544L2.41213 5.886L2.8188 7.32982L20.7498 2.27937L20.3431 0.835544ZM2.40544 5.88791C1.96063 6.01766 1.56535 6.27874 1.27147 6.63697L2.43116 7.58835C2.5333 7.46385 2.67073 7.37304 2.82548 7.3279L2.40544 5.88791ZM1.27147 6.63697C0.97758 6.99521 0.79881 7.43389 0.758649 7.89551L2.253 8.02552C2.26695 7.86523 2.32903 7.71284 2.43116 7.58835L1.27147 6.63697ZM0.758649 7.89551C0.718488 8.35714 0.818815 8.8201 1.04645 9.22369L2.35297 8.48681C2.27389 8.3466 2.23906 8.18582 2.253 8.02552L0.758649 7.89551ZM1.04645 9.22369C1.27407 9.62729 1.61836 9.95266 2.03412 10.1572L2.69632 8.8113C2.55171 8.74016 2.43205 8.62703 2.35297 8.48681L1.04645 9.22369ZM2.0449 10.1624L10.2933 14.0585L10.934 12.7022L2.68554 8.80611L2.0449 10.1624ZM9.93563 13.7009L13.8337 21.9452L15.1897 21.304L11.2917 13.0597L9.93563 13.7009ZM13.8351 21.9482C14.0211 22.3372 14.3133 22.6658 14.6779 22.8961L15.4789 21.6279C15.3532 21.5484 15.2524 21.4351 15.1883 21.301L13.8351 21.9482ZM14.6779 22.8961C15.0425 23.1264 15.4648 23.249 15.896 23.25L15.8993 21.75C15.7505 21.7497 15.6047 21.7073 15.479 21.6279L14.6779 22.8961ZM15.8977 23.25H16.0324V21.75H15.8977V23.25ZM16.09 23.2478C16.557 23.2118 17.0017 23.033 17.3635 22.7355L16.4108 21.5768C16.287 21.6786 16.1348 21.7399 15.9749 21.7522L16.09 23.2478ZM17.3635 22.7355C17.7254 22.4379 17.9868 22.0362 18.1122 21.5848L16.6669 21.1834C16.624 21.3377 16.5346 21.475 16.4108 21.5768L17.3635 22.7355ZM18.1114 21.5875L23.1644 3.656L21.7206 3.24915L16.6676 21.1807L18.1114 21.5875ZM23.1643 3.6563C23.2748 3.2649 23.2785 2.85108 23.1751 2.45777L21.7244 2.83923C21.7597 2.97366 21.7585 3.11508 21.7207 3.24885L23.1643 3.6563ZM23.1751 2.45776C23.0717 2.06445 22.8649 1.70598 22.5762 1.41952L21.5196 2.48422C21.6184 2.58222 21.689 2.7048 21.7244 2.83923L23.1751 2.45776ZM11.2079 13.8526L17.0925 8.17651L16.0512 7.09689L10.1665 12.773L11.2079 13.8526Z" fill="#0D0D0D" fill-opacity="0.5"/>
</svg>
