<svg width="16" height="16" viewBox="0 0 16 16" fill="none" xmlns="http://www.w3.org/2000/svg">
<rect x="0.6" y="0.6" width="14.8" height="14.8" rx="7.4" fill="white"/>
<path d="M8.6907 4.22727L8.57351 9.36222H7.43004L7.31641 4.22727H8.6907ZM8.00178 11.5781C7.78634 11.5781 7.60168 11.5024 7.4478 11.3509C7.29628 11.1993 7.22053 11.0147 7.22053 10.7969C7.22053 10.5838 7.29628 10.4015 7.4478 10.25C7.60168 10.0985 7.78634 10.0227 8.00178 10.0227C8.21248 10.0227 8.39477 10.0985 8.54865 10.25C8.7049 10.4015 8.78303 10.5838 8.78303 10.7969C8.78303 10.9413 8.74633 11.0727 8.67294 11.1911C8.60192 11.3094 8.50722 11.4041 8.38885 11.4751C8.27285 11.5438 8.14382 11.5781 8.00178 11.5781Z" fill="#2199FC"/>
<rect x="0.6" y="0.6" width="14.8" height="14.8" rx="7.4" stroke="#2199FC" stroke-width="1.2"/>
</svg>
