<svg width="24" height="24" viewBox="0 0 24 24" fill="none" xmlns="http://www.w3.org/2000/svg">
<path d="M20 11C20 7.22876 20 5.34315 18.8284 4.17157C17.6569 3 15.7712 3 12 3V3C8.22876 3 6.34315 3 5.17157 4.17157C4 5.34315 4 7.22876 4 11V17C4 17.9428 4 18.4142 4.29289 18.7071C4.58579 19 5.05719 19 6 19H12C15.7712 19 17.6569 19 18.8284 17.8284C20 16.6569 20 14.7712 20 11V11Z" stroke="#263238" stroke-width="1.2"/>
<path d="M9 9L15 9" stroke="#263238" stroke-width="1.2" stroke-linecap="round" stroke-linejoin="round"/>
<path d="M9 13H12" stroke="#263238" stroke-width="1.2" stroke-linecap="round" stroke-linejoin="round"/>
</svg>
