<svg width="26" height="26" viewBox="0 0 26 26" fill="none" xmlns="http://www.w3.org/2000/svg">
<path d="M13.5417 22.1181V21.3681H13.5001L13.4588 21.3726L13.5417 22.1181ZM6.68056 19.7159L7.40587 19.9067L7.52832 19.4413L7.15627 19.136L6.68056 19.7159ZM5.82292 22.9757L5.0976 22.7849L4.81953 23.8418L5.90574 23.7211L5.82292 22.9757ZM23.0833 12.684C23.0833 17.42 18.8741 21.3681 13.5417 21.3681V22.8681C19.577 22.8681 24.5833 18.3686 24.5833 12.684H23.0833ZM4 12.684C4 7.94807 8.20919 4 13.5417 4V2.5C7.50629 2.5 2.5 6.99945 2.5 12.684H4ZM13.5417 4C18.8741 4 23.0833 7.94807 23.0833 12.684H24.5833C24.5833 6.99945 19.577 2.5 13.5417 2.5V4ZM7.15627 19.136C5.2065 17.5364 4 15.2313 4 12.684H2.5C2.5 15.7248 3.94361 18.4405 6.20484 20.2957L7.15627 19.136ZM5.95524 19.525L5.0976 22.7849L6.54823 23.1665L7.40587 19.9067L5.95524 19.525ZM13.4588 21.3726C12.7053 21.4564 12.1172 21.5217 11.5292 21.5871C10.9411 21.6524 10.3531 21.7177 9.59947 21.8015L9.76512 23.2923C10.5187 23.2086 11.1068 23.1432 11.6948 23.0779C12.2828 23.0125 12.8709 22.9472 13.6245 22.8635L13.4588 21.3726ZM5.90574 23.7211C6.65933 23.6374 7.24738 23.572 7.83543 23.5067C8.42347 23.4414 9.01153 23.376 9.76512 23.2923L9.59947 21.8015C8.84588 21.8852 8.25783 21.9505 7.66978 22.0159C7.08173 22.0812 6.49368 22.1465 5.74009 22.2303L5.90574 23.7211Z" fill="#2F2F2F"/>
</svg>
