<svg width="24" height="24" viewBox="0 0 24 24" fill="none" xmlns="http://www.w3.org/2000/svg">
<path d="M12.0026 21.0048V20.2548H11.9611L11.9198 20.2594L12.0026 21.0048ZM5.14149 18.6026L5.86681 18.7934L5.98926 18.328L5.6172 18.0228L5.14149 18.6026ZM4.28385 21.8624L3.55854 21.6716L3.28047 22.7285L4.36668 22.6078L4.28385 21.8624ZM21.5443 11.5707C21.5443 16.3067 17.3351 20.2548 12.0026 20.2548V21.7548C18.038 21.7548 23.0443 17.2553 23.0443 11.5707H21.5443ZM2.46094 11.5707C2.46094 6.83478 6.67012 2.88672 12.0026 2.88672V1.38672C5.96722 1.38672 0.960938 5.88617 0.960938 11.5707H2.46094ZM12.0026 2.88672C17.3351 2.88672 21.5443 6.83478 21.5443 11.5707H23.0443C23.0443 5.88617 18.038 1.38672 12.0026 1.38672V2.88672ZM5.6172 18.0228C3.66744 16.4231 2.46094 14.118 2.46094 11.5707H0.960938C0.960938 14.6116 2.40455 17.3272 4.66578 19.1824L5.6172 18.0228ZM4.41618 18.4118L3.55854 21.6716L5.00917 22.0532L5.86681 18.7934L4.41618 18.4118ZM11.9198 20.2594C11.1662 20.3431 10.5781 20.4084 9.99009 20.4738C9.40205 20.5391 8.81399 20.6044 8.06041 20.6882L8.22605 22.179C8.97964 22.0953 9.56769 22.0299 10.1557 21.9646C10.7438 21.8993 11.3318 21.8339 12.0854 21.7502L11.9198 20.2594ZM4.36668 22.6078C5.12027 22.5241 5.70832 22.4588 6.29637 22.3934C6.88441 22.3281 7.47247 22.2627 8.22605 22.179L8.06041 20.6882C7.30681 20.7719 6.71877 20.8373 6.13072 20.9026C5.54267 20.9679 4.95462 21.0333 4.20103 21.117L4.36668 22.6078Z" fill="#505050"/>
</svg>
