<svg width="28" height="28" viewBox="0 0 28 28" fill="none" xmlns="http://www.w3.org/2000/svg">
<path d="M14.0026 23.0048V22.3548H13.9666L13.9308 22.3587L14.0026 23.0048ZM7.14149 20.6026L7.7701 20.768L7.87622 20.3646L7.55378 20.1001L7.14149 20.6026ZM6.28385 23.8624L5.65525 23.697L5.41425 24.613L6.35563 24.5084L6.28385 23.8624ZM23.6443 13.5707C23.6443 18.3699 19.3819 22.3548 14.0026 22.3548V23.6548C19.9911 23.6548 24.9443 19.1921 24.9443 13.5707H23.6443ZM4.36094 13.5707C4.36094 8.77154 8.62326 4.78672 14.0026 4.78672V3.48672C8.01408 3.48672 3.06094 7.94941 3.06094 13.5707H4.36094ZM14.0026 4.78672C19.3819 4.78672 23.6443 8.77154 23.6443 13.5707H24.9443C24.9443 7.94941 19.9911 3.48672 14.0026 3.48672V4.78672ZM7.55378 20.1001C5.58324 18.4834 4.36094 16.1509 4.36094 13.5707H3.06094C3.06094 16.5787 4.48874 19.2669 6.72921 21.1051L7.55378 20.1001ZM6.51288 20.4372L5.65525 23.697L6.91246 24.0278L7.7701 20.768L6.51288 20.4372ZM13.9308 22.3587C13.1772 22.4425 12.5892 22.5078 12.0011 22.5732C11.4131 22.6385 10.825 22.7038 10.0714 22.7876L10.215 24.0796C10.9686 23.9959 11.5566 23.9305 12.1447 23.8652C12.7327 23.7999 13.3208 23.7345 14.0744 23.6508L13.9308 22.3587ZM6.35563 24.5084C7.10923 24.4247 7.69727 24.3594 8.28532 24.294C8.87337 24.2287 9.46142 24.1634 10.215 24.0796L10.0714 22.7876C9.31786 22.8713 8.72981 22.9366 8.14176 23.002C7.55371 23.0673 6.96566 23.1327 6.21207 23.2164L6.35563 24.5084Z" fill="#505050"/>
</svg>
