<svg width="24" height="24" viewBox="0 0 24 24" fill="none" xmlns="http://www.w3.org/2000/svg">
<path d="M12.0007 21.0048V20.2548H11.9591L11.9178 20.2594L12.0007 21.0048ZM5.13954 18.6026L5.86486 18.7934L5.9873 18.328L5.61525 18.0228L5.13954 18.6026ZM4.2819 21.8624L3.55658 21.6716L3.27851 22.7285L4.36472 22.6078L4.2819 21.8624ZM21.5423 11.5707C21.5423 16.3067 17.3331 20.2548 12.0007 20.2548V21.7548C18.036 21.7548 23.0423 17.2553 23.0423 11.5707H21.5423ZM2.45898 11.5707C2.45898 6.83478 6.66817 2.88672 12.0007 2.88672V1.38672C5.96527 1.38672 0.958984 5.88617 0.958984 11.5707H2.45898ZM12.0007 2.88672C17.3331 2.88672 21.5423 6.83478 21.5423 11.5707H23.0423C23.0423 5.88617 18.036 1.38672 12.0007 1.38672V2.88672ZM5.61525 18.0228C3.66548 16.4231 2.45898 14.118 2.45898 11.5707H0.958984C0.958984 14.6116 2.40259 17.3272 4.66383 19.1824L5.61525 18.0228ZM4.41422 18.4118L3.55658 21.6716L5.00722 22.0532L5.86486 18.7934L4.41422 18.4118ZM11.9178 20.2594C11.1642 20.3431 10.5762 20.4084 9.98814 20.4738C9.40009 20.5391 8.81204 20.6044 8.05845 20.6882L8.2241 22.179C8.97769 22.0953 9.56574 22.0299 10.1538 21.9646C10.7418 21.8993 11.3299 21.8339 12.0835 21.7502L11.9178 20.2594ZM4.36472 22.6078C5.11832 22.5241 5.70636 22.4588 6.29441 22.3934C6.88246 22.3281 7.47051 22.2627 8.2241 22.179L8.05845 20.6882C7.30486 20.7719 6.71681 20.8373 6.12877 20.9026C5.54072 20.9679 4.95267 21.0333 4.19908 21.117L4.36472 22.6078Z" fill="#0D0D0D" fill-opacity="0.8"/>
</svg>
