<svg width="61" height="61" viewBox="0 0 61 61" fill="none" xmlns="http://www.w3.org/2000/svg">
<path d="M44.5262 58.4531L43.8211 57.2363C50.9384 53.1112 55.1865 46.0368 55.1885 38.3141H56.5967C56.5928 46.5427 52.081 54.0702 44.5262 58.4531ZM54.9815 30.2827C54.7393 30.2827 54.5029 30.1577 54.3721 29.9311L48.6688 20.0715L46.4169 21.3723C46.2606 21.4622 46.077 21.4876 45.8993 21.4466L43.3055 20.8176C43.4891 21.6009 43.4773 22.4212 43.2645 23.22C42.9207 24.4974 42.1023 25.5638 40.9558 26.2259C40.7937 26.3197 40.5984 26.3431 40.4246 26.2963C40.2429 26.2494 40.0906 26.1302 39.9968 25.9701L38.1784 22.8196L36.7096 23.6673L36.0085 22.4485L37.4753 21.6028L35.7506 18.6145C35.6569 18.4524 35.6315 18.261 35.6803 18.0813C35.7292 17.9016 35.8463 17.7473 36.0085 17.6535C37.9362 16.5383 40.3132 16.8801 41.8621 18.3235L42.616 15.759C42.6668 15.5851 42.784 15.4386 42.9402 15.3488L45.1395 14.0812L39.5261 4.33102C39.3327 3.99507 39.4499 3.56538 39.7859 3.37006L44.5946 0.59462C44.7528 0.500868 44.9442 0.475477 45.1278 0.524306C45.3075 0.573135 45.4618 0.690325 45.5555 0.852437L51.165 10.6046L52.9678 9.56549C53.3017 9.37408 53.7334 9.48541 53.9268 9.8233L56.7022 14.63C56.7959 14.7921 56.8213 14.9836 56.7725 15.1632C56.7237 15.3429 56.6065 15.4972 56.4444 15.591L54.6963 16.5988L60.4054 26.4545C60.4991 26.6166 60.5245 26.808 60.4757 26.9896C60.4288 27.1693 60.3097 27.3236 60.1476 27.4174L55.3311 30.1928C55.2217 30.2534 55.1026 30.2827 54.9815 30.2827ZM49.8896 19.3704L55.2393 28.6205L58.837 26.5463L53.4795 17.298L49.8896 19.3704ZM37.3561 18.5793L40.8289 24.597C41.3484 24.14 41.7215 23.5403 41.9051 22.8567C42.1453 21.9622 42.0301 21.0286 41.5808 20.22C41.5691 20.2024 41.5574 20.1848 41.5476 20.1672C41.5359 20.1497 41.5261 20.1301 41.5183 20.1126C40.6511 18.6692 38.8952 18.0617 37.3561 18.5793ZM43.0398 19.3078L45.9579 20.0149L55.1319 14.7238L53.0596 11.1358L43.8856 16.4269L43.0398 19.3078ZM41.0964 4.23531L46.3563 13.3781L49.9462 11.3058L44.6883 2.16301L41.0964 4.23531ZM19.7582 60.5C17.723 60.5 15.762 60.1816 13.9202 59.5937C13.8538 59.582 13.7874 59.5605 13.7268 59.5312C12.5022 59.1269 11.3322 58.6015 10.2287 57.9707C10.1955 57.9589 10.1642 57.9433 10.133 57.9257C10.1017 57.9082 10.0705 57.8867 10.0431 57.8652C4.33796 54.5175 0.5 48.3201 0.5 41.2418C0.5 37.8258 1.39455 34.6128 2.96098 31.8276C2.96684 31.8178 2.9727 31.8061 2.97856 31.7964C6.28526 25.9427 12.5686 21.9837 19.7562 21.9837C30.3755 21.9837 39.0144 30.6225 39.0144 41.2418C39.0163 51.8612 30.3775 60.5 19.7582 60.5ZM15.4202 58.5605C16.8089 58.9082 18.262 59.0937 19.7582 59.0937C28.5103 59.0937 35.8112 52.7635 37.3229 44.4411H34.6315C33.8385 44.4411 33.1002 44.0134 32.7057 43.3278L29.7447 38.1793C29.3521 37.4957 29.3521 36.65 29.7427 35.9664L33.3522 29.683C30.2408 26.0267 25.6821 23.638 20.5726 23.4075L22.6996 27.0912C23.2172 27.9896 23.0512 29.1147 22.2934 29.8237L17.6058 34.148C17.3304 34.4058 17.2698 34.8179 17.4593 35.148L24.5844 47.5213C25.1001 48.4158 24.936 49.535 24.184 50.2459L15.4202 58.5605ZM11.4553 57.0429C12.2287 57.4511 13.0354 57.8046 13.8674 58.0957L23.2172 49.2244C23.4946 48.9607 23.5551 48.5506 23.3657 48.2224L16.2405 35.8492C15.7229 34.9488 15.8909 33.8276 16.6468 33.1186L21.3344 28.7943C21.6098 28.5385 21.6703 28.1244 21.4789 27.7963L18.9476 23.4075C12.758 23.6868 7.37903 27.1303 4.3946 32.1557L6.30284 35.441C6.44737 35.691 6.71691 35.8453 7.00598 35.8453H11.8986C12.6916 35.8453 13.428 36.273 13.8225 36.9566L15.8323 40.4352C16.3499 41.3317 16.1858 42.4548 15.43 43.1637L12.7366 45.697C12.4592 45.9568 12.4006 46.3669 12.5901 46.697L14.3694 49.7791C14.7659 50.4666 14.7639 51.3162 14.3694 52.0018L11.4553 57.0429ZM3.61724 33.6187C2.51957 35.9312 1.90628 38.5152 1.90628 41.2418C1.90628 47.5877 5.23446 53.1698 10.2385 56.3378L13.1526 51.3006C13.2971 51.0487 13.2971 50.7362 13.1526 50.4842L11.3732 47.4021C10.8557 46.5056 11.0217 45.3845 11.7756 44.6755L14.469 42.1422C14.7464 41.8825 14.8069 41.4704 14.6155 41.1403L12.6057 37.6617C12.4612 37.4097 12.1916 37.2554 11.9006 37.2554H7.00598C6.21885 37.2554 5.48251 36.8316 5.08602 36.1499L3.61724 33.6187ZM34.2858 30.8784L30.9615 36.6656C30.8189 36.9156 30.8189 37.2261 30.9615 37.4761L33.9244 42.6247C34.069 42.8766 34.3385 43.0329 34.6295 43.0329H37.5183C37.5749 42.443 37.6061 41.8473 37.6061 41.2418C37.6101 37.3804 36.3796 33.8023 34.2858 30.8784Z" fill="#2F2F2F"/>
</svg>
