<svg width="36" height="36" viewBox="0 0 36 36" fill="none" xmlns="http://www.w3.org/2000/svg">
<path d="M14.5 11.5C14.2348 11.5 13.9804 11.6054 13.7929 11.7929C13.6054 11.9804 13.5 12.2348 13.5 12.5C13.5 12.7652 13.6054 13.0196 13.7929 13.2071C13.9804 13.3946 14.2348 13.5 14.5 13.5C14.7652 13.5 15.0196 13.3946 15.2071 13.2071C15.3946 13.0196 15.5 12.7652 15.5 12.5C15.5 12.2348 15.3946 11.9804 15.2071 11.7929C15.0196 11.6054 14.7652 11.5 14.5 11.5ZM13.5 19.5C13.5 19.2348 13.6054 18.9804 13.7929 18.7929C13.9804 18.6054 14.2348 18.5 14.5 18.5C14.7652 18.5 15.0196 18.6054 15.2071 18.7929C15.3946 18.9804 15.5 19.2348 15.5 19.5C15.5 19.7652 15.3946 20.0196 15.2071 20.2071C15.0196 20.3946 14.7652 20.5 14.5 20.5C14.2348 20.5 13.9804 20.3946 13.7929 20.2071C13.6054 20.0196 13.5 19.7652 13.5 19.5ZM14.5 15C14.2348 15 13.9804 15.1054 13.7929 15.2929C13.6054 15.4804 13.5 15.7348 13.5 16C13.5 16.2652 13.6054 16.5196 13.7929 16.7071C13.9804 16.8946 14.2348 17 14.5 17C14.7652 17 15.0196 16.8946 15.2071 16.7071C15.3946 16.5196 15.5 16.2652 15.5 16C15.5 15.7348 15.3946 15.4804 15.2071 15.2929C15.0196 15.1054 14.7652 15 14.5 15ZM17 12.5C17 12.2348 17.1054 11.9804 17.2929 11.7929C17.4804 11.6054 17.7348 11.5 18 11.5C18.2652 11.5 18.5196 11.6054 18.7071 11.7929C18.8946 11.9804 19 12.2348 19 12.5C19 12.7652 18.8946 13.0196 18.7071 13.2071C18.5196 13.3946 18.2652 13.5 18 13.5C17.7348 13.5 17.4804 13.3946 17.2929 13.2071C17.1054 13.0196 17 12.7652 17 12.5ZM18 18.5C17.7348 18.5 17.4804 18.6054 17.2929 18.7929C17.1054 18.9804 17 19.2348 17 19.5C17 19.7652 17.1054 20.0196 17.2929 20.2071C17.4804 20.3946 17.7348 20.5 18 20.5C18.2652 20.5 18.5196 20.3946 18.7071 20.2071C18.8946 20.0196 19 19.7652 19 19.5C19 19.2348 18.8946 18.9804 18.7071 18.7929C18.5196 18.6054 18.2652 18.5 18 18.5ZM18 15C17.7348 15 17.4804 15.1054 17.2929 15.2929C17.1054 15.4804 17 15.7348 17 16C17 16.2652 17.1054 16.5196 17.2929 16.7071C17.4804 16.8946 17.7348 17 18 17C18.2652 17 18.5196 16.8946 18.7071 16.7071C18.8946 16.5196 19 16.2652 19 16C19 15.7348 18.8946 15.4804 18.7071 15.2929C18.5196 15.1054 18.2652 15 18 15ZM12.25 8C11.6533 8 11.081 8.23705 10.659 8.65901C10.2371 9.08097 10 9.65326 10 10.25V26.75C10 27.164 10.336 27.5 10.75 27.5H25.253C25.4519 27.5 25.6427 27.421 25.7833 27.2803C25.924 27.1397 26.003 26.9489 26.003 26.75V17.75C26.003 17.4545 25.9448 17.1619 25.8317 16.889C25.7187 16.616 25.5529 16.3679 25.344 16.159C25.1351 15.9501 24.887 15.7843 24.614 15.6713C24.3411 15.5582 24.0485 15.5 23.753 15.5H22.5V10.25C22.5 9.65326 22.2629 9.08097 21.841 8.65901C21.419 8.23705 20.8467 8 20.25 8H12.25ZM11.5 10.25C11.5 10.0511 11.579 9.86032 11.7197 9.71967C11.8603 9.57902 12.0511 9.5 12.25 9.5H20.25C20.4489 9.5 20.6397 9.57902 20.7803 9.71967C20.921 9.86032 21 10.0511 21 10.25V16.25C21 16.664 21.336 17 21.75 17H23.753C23.9519 17 24.1427 17.079 24.2833 17.2197C24.424 17.3603 24.503 17.5511 24.503 17.75V26H22.5V23.25C22.5 23.0511 22.421 22.8603 22.2803 22.7197C22.1397 22.579 21.9489 22.5 21.75 22.5H14.25C14.0511 22.5 13.8603 22.579 13.7197 22.7197C13.579 22.8603 13.5 23.0511 13.5 23.25V26H11.5V10.25ZM21 24V26H18.75V24H21ZM17.25 24V26H15V24H17.25Z" fill="#5A5A5A" fill-opacity="0.5"/>
</svg>
