<svg width="25" height="24" viewBox="0 0 25 24" fill="none" xmlns="http://www.w3.org/2000/svg">
<path d="M11.751 8H14.7507M11.751 11H14.7507M11.751 14H14.7507M11.751 17H14.7507M8.75133 20V6.5C8.75133 6.2975 8.75133 6.0875 8.80383 5.885C8.84973 5.68297 8.95136 5.49786 9.09718 5.3507C9.24299 5.20355 9.42715 5.10023 9.62874 5.0525C9.84621 5 10.7986 5 11.0011 5H16.2505C16.453 5 16.663 5 16.8654 5.0525C17.0674 5.09841 17.2525 5.20005 17.3997 5.34588C17.5468 5.49171 17.6501 5.67589 17.6978 5.8775C17.7503 6.0875 17.7503 6.2975 17.7503 6.5V20H8.75133ZM5.75167 14V18.5C5.75167 19.325 6.42659 20 7.2515 20H8.75133V12.5H7.2515C7.04902 12.5 6.83905 12.5 6.63657 12.5525C6.43409 12.605 6.24661 12.7025 6.09663 12.8525C5.95414 12.995 5.85666 13.1825 5.80416 13.385C5.76183 13.5871 5.7442 13.7936 5.75167 14ZM19.8651 10.3025C19.663 10.2602 19.4565 10.2425 19.2502 10.25H17.7503V20H19.2502C19.6479 20 20.0294 19.842 20.3107 19.5607C20.592 19.2794 20.75 18.8978 20.75 18.5V11.75C20.75 11.54 20.75 11.3375 20.6975 11.135C20.645 10.9325 20.5475 10.745 20.3975 10.595C20.2551 10.4525 20.0676 10.355 19.8651 10.3025V10.3025Z" stroke="white" stroke-width="1.5" stroke-linecap="round" stroke-linejoin="round"/>
</svg>
