<svg width="61" height="60" viewBox="0 0 61 60" fill="none" xmlns="http://www.w3.org/2000/svg">
<path d="M44.5262 57.9531L43.8211 56.7363C50.9384 52.6112 55.1865 45.5368 55.1885 37.8141H56.5967C56.5928 46.0427 52.081 53.5702 44.5262 57.9531ZM54.9815 29.7827C54.7393 29.7827 54.5029 29.6577 54.3721 29.4311L48.6688 19.5715L46.4169 20.8723C46.2606 20.9622 46.077 20.9876 45.8993 20.9466L43.3055 20.3176C43.4891 21.1009 43.4773 21.9212 43.2645 22.72C42.9207 23.9974 42.1023 25.0638 40.9558 25.7259C40.7937 25.8197 40.5984 25.8431 40.4246 25.7963C40.2429 25.7494 40.0906 25.6302 39.9968 25.4701L38.1784 22.3196L36.7096 23.1673L36.0085 21.9485L37.4753 21.1028L35.7506 18.1145C35.6569 17.9524 35.6315 17.761 35.6803 17.5813C35.7292 17.4016 35.8463 17.2473 36.0085 17.1535C37.9362 16.0383 40.3132 16.3801 41.8621 17.8235L42.616 15.259C42.6668 15.0851 42.784 14.9386 42.9402 14.8488L45.1395 13.5812L39.5261 3.83102C39.3327 3.49507 39.4499 3.06538 39.7859 2.87006L44.5946 0.0946198C44.7528 0.000868089 44.9442 -0.024523 45.1278 0.024306C45.3075 0.073135 45.4618 0.190325 45.5555 0.352437L51.165 10.1046L52.9678 9.06549C53.3017 8.87408 53.7334 8.98541 53.9268 9.3233L56.7022 14.13C56.7959 14.2921 56.8213 14.4836 56.7725 14.6632C56.7237 14.8429 56.6065 14.9972 56.4444 15.091L54.6963 16.0988L60.4054 25.9545C60.4991 26.1166 60.5245 26.308 60.4757 26.4896C60.4288 26.6693 60.3097 26.8236 60.1476 26.9174L55.3311 29.6928C55.2217 29.7534 55.1026 29.7827 54.9815 29.7827ZM49.8896 18.8704L55.2393 28.1205L58.837 26.0463L53.4795 16.798L49.8896 18.8704ZM37.3561 18.0793L40.8289 24.097C41.3484 23.64 41.7215 23.0403 41.9051 22.3567C42.1453 21.4622 42.0301 20.5286 41.5808 19.72C41.5691 19.7024 41.5574 19.6848 41.5476 19.6672C41.5359 19.6497 41.5261 19.6301 41.5183 19.6126C40.6511 18.1692 38.8952 17.5617 37.3561 18.0793ZM43.0398 18.8078L45.9579 19.5149L55.1319 14.2238L53.0596 10.6358L43.8856 15.9269L43.0398 18.8078ZM41.0964 3.73531L46.3563 12.8781L49.9462 10.8058L44.6883 1.66301L41.0964 3.73531ZM19.7582 60C17.723 60 15.762 59.6816 13.9202 59.0937C13.8538 59.082 13.7874 59.0605 13.7268 59.0312C12.5022 58.6269 11.3322 58.1015 10.2287 57.4707C10.1955 57.4589 10.1642 57.4433 10.133 57.4257C10.1017 57.4082 10.0705 57.3867 10.0431 57.3652C4.33796 54.0175 0.5 47.8201 0.5 40.7418C0.5 37.3258 1.39455 34.1128 2.96098 31.3276C2.96684 31.3178 2.9727 31.3061 2.97856 31.2964C6.28526 25.4427 12.5686 21.4837 19.7562 21.4837C30.3755 21.4837 39.0144 30.1225 39.0144 40.7418C39.0163 51.3612 30.3775 60 19.7582 60ZM15.4202 58.0605C16.8089 58.4082 18.262 58.5937 19.7582 58.5937C28.5103 58.5937 35.8112 52.2635 37.3229 43.9411H34.6315C33.8385 43.9411 33.1002 43.5134 32.7057 42.8278L29.7447 37.6793C29.3521 36.9957 29.3521 36.15 29.7427 35.4664L33.3522 29.183C30.2408 25.5267 25.6821 23.138 20.5726 22.9075L22.6996 26.5912C23.2172 27.4896 23.0512 28.6147 22.2934 29.3237L17.6058 33.648C17.3304 33.9058 17.2698 34.3179 17.4593 34.648L24.5844 47.0213C25.1001 47.9158 24.936 49.035 24.184 49.7459L15.4202 58.0605ZM11.4553 56.5429C12.2287 56.9511 13.0354 57.3046 13.8674 57.5957L23.2172 48.7244C23.4946 48.4607 23.5551 48.0506 23.3657 47.7224L16.2405 35.3492C15.7229 34.4488 15.8909 33.3276 16.6468 32.6186L21.3344 28.2943C21.6098 28.0385 21.6703 27.6244 21.4789 27.2963L18.9476 22.9075C12.758 23.1868 7.37903 26.6303 4.3946 31.6557L6.30284 34.941C6.44737 35.191 6.71691 35.3453 7.00598 35.3453H11.8986C12.6916 35.3453 13.428 35.773 13.8225 36.4566L15.8323 39.9352C16.3499 40.8317 16.1858 41.9548 15.43 42.6637L12.7366 45.197C12.4592 45.4568 12.4006 45.8669 12.5901 46.197L14.3694 49.2791C14.7659 49.9666 14.7639 50.8162 14.3694 51.5018L11.4553 56.5429ZM3.61724 33.1187C2.51957 35.4312 1.90628 38.0152 1.90628 40.7418C1.90628 47.0877 5.23446 52.6698 10.2385 55.8378L13.1526 50.8006C13.2971 50.5487 13.2971 50.2362 13.1526 49.9842L11.3732 46.9021C10.8557 46.0056 11.0217 44.8845 11.7756 44.1755L14.469 41.6422C14.7464 41.3825 14.8069 40.9704 14.6155 40.6403L12.6057 37.1617C12.4612 36.9097 12.1916 36.7554 11.9006 36.7554H7.00598C6.21885 36.7554 5.48251 36.3316 5.08602 35.6499L3.61724 33.1187ZM34.2858 30.3784L30.9615 36.1656C30.8189 36.4156 30.8189 36.7261 30.9615 36.9761L33.9244 42.1247C34.069 42.3766 34.3385 42.5329 34.6295 42.5329H37.5183C37.5749 41.943 37.6061 41.3473 37.6061 40.7418C37.6101 36.8804 36.3796 33.3023 34.2858 30.3784Z" fill="#2F2F2F"/>
</svg>
