<svg width="25" height="24" viewBox="0 0 25 24" fill="none" xmlns="http://www.w3.org/2000/svg">
<path d="M5.74471 13.5847C5.66415 13.8047 5.50101 13.9845 5.28996 14.0861C5.07891 14.1876 4.83658 14.2029 4.61445 14.1286C4.39232 14.0543 4.20791 13.8964 4.1004 13.6883C3.99289 13.4802 3.97075 13.2384 4.03868 13.0143C4.02069 13.0683 4.03868 13.0125 4.03868 13.0125C4.07069 12.9134 4.10793 12.8161 4.15026 12.7209C4.22224 12.55 4.32842 12.3142 4.47419 12.0353C4.77112 11.4774 5.23362 10.7342 5.91567 9.99094C7.29236 8.48827 9.54726 7 12.9899 7C16.4325 7 18.6874 8.48827 20.0641 9.99094C20.799 10.7971 21.3949 11.7196 21.8277 12.7209L21.9105 12.9243C21.9159 12.9387 21.9339 13.0323 21.9519 13.1222L21.9879 13.2986C21.9879 13.2986 22.1391 13.8979 21.3724 14.1516C21.1467 14.227 20.9002 14.2099 20.6871 14.104C20.4739 13.9981 20.3114 13.812 20.2351 13.5865V13.5811L20.2243 13.5523C20.1339 13.3212 20.0306 13.0953 19.9148 12.8757C19.5948 12.272 19.1993 11.7114 18.7378 11.2075C17.6401 10.0107 15.8459 8.7996 12.9899 8.7996C10.1339 8.7996 8.33973 10.0107 7.24197 11.2075C6.64764 11.859 6.16432 12.6038 5.81129 13.412C5.79241 13.4584 5.77441 13.5052 5.7573 13.5523L5.74471 13.5847ZM9.3907 14.1984C9.3907 13.2438 9.7699 12.3284 10.4449 11.6534C11.1199 10.9784 12.0353 10.5992 12.9899 10.5992C13.9445 10.5992 14.8599 10.9784 15.5349 11.6534C16.2099 12.3284 16.5891 13.2438 16.5891 14.1984C16.5891 15.153 16.2099 16.0684 15.5349 16.7434C14.8599 17.4184 13.9445 17.7976 12.9899 17.7976C12.0353 17.7976 11.1199 17.4184 10.4449 16.7434C9.7699 16.0684 9.3907 15.153 9.3907 14.1984Z" fill="#C1C1C1"/>
</svg>
