<svg width="30" height="30" viewBox="0 0 30 30" fill="none" xmlns="http://www.w3.org/2000/svg">
<path d="M1 1V0H0V1H1ZM29 1H30V0H29V1ZM0 14.9761C0 15.5284 0.447715 15.9761 1 15.9761C1.55228 15.9761 2 15.5284 2 14.9761H0ZM29 28.9522V29.9522H30V28.9522H29ZM16.1667 27.9522C15.6144 27.9522 15.1667 28.3999 15.1667 28.9522C15.1667 29.5045 15.6144 29.9522 16.1667 29.9522V27.9522ZM0.293497 28.2923C-0.0973604 28.6825 -0.0979009 29.3156 0.29229 29.7065C0.682481 30.0974 1.31565 30.0979 1.7065 29.7077L0.293497 28.2923ZM18.4992 12.5298C18.4996 11.9776 18.0523 11.5295 17.5 11.529L8.50001 11.5213C7.94773 11.5208 7.49963 11.9682 7.49916 12.5205C7.49869 13.0727 7.94602 13.5208 8.49831 13.5213L16.4983 13.5281L16.4915 21.5281C16.491 22.0804 16.9383 22.5285 17.4906 22.529C18.0429 22.5295 18.491 22.0821 18.4915 21.5298L18.4992 12.5298ZM1 2H29V0H1V2ZM2 14.9761V1H0V14.9761H2ZM28 1V28.9522H30V1H28ZM29 27.9522H16.1667V29.9522H29V27.9522ZM1.7065 29.7077L18.2057 13.2367L16.7927 11.8213L0.293497 28.2923L1.7065 29.7077Z" fill="#2199FC"/>
</svg>
