<svg width="51" height="44" viewBox="0 0 51 44" fill="none" xmlns="http://www.w3.org/2000/svg">
<path d="M10.5795 16.75H6.68448V15.154H4.70848V16.75H0.775484V18.175H10.5795V16.75ZM3.43548 21.272C3.43548 20.493 4.30948 20.018 5.67748 20.018C7.04548 20.018 7.91948 20.493 7.91948 21.272C7.91948 22.032 7.04548 22.488 5.67748 22.488C4.30948 22.488 3.43548 22.032 3.43548 21.272ZM11.0545 24.426C9.66749 24.635 8.16648 24.73 6.68448 24.806V23.742C8.58448 23.514 9.76249 22.621 9.76249 21.272C9.76249 19.676 8.14748 18.707 5.67748 18.707C3.20748 18.707 1.59248 19.676 1.59248 21.272C1.59248 22.621 2.77048 23.533 4.70848 23.742V24.882C3.13148 24.92 1.63048 24.92 0.338484 24.92L0.566484 26.478C3.56848 26.459 7.57748 26.44 11.2065 25.794L11.0545 24.426ZM2.46648 29.233H11.9665V32.482H13.9235V27.675H2.46648V29.233ZM16.2795 20.379H13.9235V15.325H11.9665V26.915H13.9235V21.994H16.2795V20.379ZM32.105 15.306H30.148V27.77H32.105V15.306ZM20.211 20.74C20.211 19.163 21.332 18.137 22.852 18.137C24.353 18.137 25.493 19.163 25.493 20.74C25.493 22.298 24.353 23.343 22.852 23.343C21.332 23.343 20.211 22.298 20.211 20.74ZM27.393 20.74C27.393 18.232 25.436 16.446 22.852 16.446C20.268 16.446 18.292 18.232 18.292 20.74C18.292 23.229 20.268 25.034 22.852 25.034C25.436 25.034 27.393 23.229 27.393 20.74ZM22.871 30.544V26.516H20.895V32.14H32.599V30.544H22.871Z" fill="#C1C1C1"/>
</svg>
