<svg width="24" height="24" viewBox="0 0 24 24" fill="none" xmlns="http://www.w3.org/2000/svg">
<path d="M15.7769 2.98995L4.42899 14.3379C4.41719 14.3497 4.4054 14.3614 4.39365 14.3731C4.23403 14.5323 4.08058 14.6853 3.97218 14.8768C3.86379 15.0682 3.81153 15.2785 3.75716 15.4973C3.75316 15.5134 3.74914 15.5296 3.7451 15.5458L2.62003 20.046C2.61762 20.0557 2.61518 20.0654 2.61272 20.0752C2.57411 20.2293 2.53044 20.4035 2.51593 20.5518C2.49978 20.7169 2.50127 21.0162 2.74255 21.2575C2.98383 21.4987 3.28307 21.5002 3.4482 21.4841C3.59648 21.4696 3.77076 21.4259 3.92484 21.3873C3.93464 21.3848 3.94435 21.3824 3.95398 21.38L8.45425 20.2549C8.47044 20.2509 8.48659 20.2468 8.5027 20.2428C8.72147 20.1885 8.93177 20.1362 9.12322 20.0278C9.31467 19.9194 9.46769 19.766 9.62687 19.6063C9.63858 19.5946 9.65033 19.5828 9.66213 19.571L21.0101 8.22309L21.0369 8.19625C21.3472 7.88597 21.6215 7.61176 21.8128 7.361C22.0202 7.08919 22.1858 6.77566 22.1858 6.38462C22.1858 5.99357 22.0202 5.68004 21.8128 5.40823C21.6215 5.15747 21.3472 4.88326 21.0369 4.57298L21.01 4.54614L19.4539 2.98995L19.427 2.9631C19.1167 2.65277 18.8425 2.37852 18.5918 2.1872C18.32 1.97981 18.0064 1.81421 17.6154 1.81421C17.2243 1.81421 16.9108 1.97981 16.639 2.1872C16.3882 2.37853 16.114 2.65279 15.8037 2.96312L15.7769 2.98995Z" stroke="#263238" stroke-width="1.2"/>
<path d="M14 5L19 10" stroke="#263238" stroke-width="1.2"/>
</svg>
