<svg width="36" height="37" viewBox="0 0 36 37" fill="none" xmlns="http://www.w3.org/2000/svg">
<circle cx="18" cy="18.5" r="18" fill="#2199FC"/>
<path d="M8.5 18.1508C8.14101 18.1508 7.85 18.4418 7.85 18.8008C7.85 19.1598 8.14101 19.4508 8.5 19.4508V18.1508ZM26.9596 19.2604C27.2135 19.0066 27.2135 18.595 26.9596 18.3412L22.823 14.2046C22.5692 13.9507 22.1576 13.9507 21.9038 14.2046C21.65 14.4584 21.65 14.87 21.9038 15.1238L25.5808 18.8008L21.9038 22.4777C21.65 22.7316 21.65 23.1431 21.9038 23.397C22.1576 23.6508 22.5692 23.6508 22.823 23.397L26.9596 19.2604ZM8.5 19.4508H26.5V18.1508H8.5V19.4508Z" fill="white"/>
</svg>
