<svg width="32" height="32" viewBox="0 0 32 32" fill="none" xmlns="http://www.w3.org/2000/svg">
<mask id="path-1-inside-1_258_3734" fill="white">
<path d="M16 32C24.8366 32 32 24.8366 32 16C32 7.16344 24.8366 0 16 0C7.16344 0 0 7.16344 0 16C0 24.8366 7.16344 32 16 32Z"/>
</mask>
<path d="M9.5 15.25C9.08579 15.25 8.75 15.5858 8.75 16C8.75 16.4142 9.08579 16.75 9.5 16.75V15.25ZM22.0303 16.5303C22.3232 16.2374 22.3232 15.7626 22.0303 15.4697L17.2574 10.6967C16.9645 10.4038 16.4896 10.4038 16.1967 10.6967C15.9038 10.9896 15.9038 11.4645 16.1967 11.7574L20.4393 16L16.1967 20.2426C15.9038 20.5355 15.9038 21.0104 16.1967 21.3033C16.4896 21.5962 16.9645 21.5962 17.2574 21.3033L22.0303 16.5303ZM9.5 16.75H21.5V15.25H9.5V16.75ZM30.5 16C30.5 24.0081 24.0081 30.5 16 30.5V33.5C25.665 33.5 33.5 25.665 33.5 16H30.5ZM16 30.5C7.99187 30.5 1.5 24.0081 1.5 16H-1.5C-1.5 25.665 6.33502 33.5 16 33.5V30.5ZM1.5 16C1.5 7.99187 7.99187 1.5 16 1.5V-1.5C6.33502 -1.5 -1.5 6.33502 -1.5 16H1.5ZM16 1.5C24.0081 1.5 30.5 7.99187 30.5 16H33.5C33.5 6.33502 25.665 -1.5 16 -1.5V1.5Z" fill="white" mask="url(#path-1-inside-1_258_3734)"/>
</svg>
