<svg width="116" height="20" viewBox="0 0 116 20" fill="none" xmlns="http://www.w3.org/2000/svg">
<path d="M5.16118 13.6602C6.75171 13.6602 8.0411 12.3709 8.0411 10.7803C8.0411 9.18978 6.75171 7.90039 5.16118 7.90039C3.57064 7.90039 2.28125 9.18978 2.28125 10.7803C2.28125 12.3709 3.57064 13.6602 5.16118 13.6602Z" stroke="white" stroke-opacity="0.7" stroke-width="1.5" stroke-linecap="round" stroke-linejoin="round"/>
<path d="M12.837 7.25985C14.4275 7.25985 15.7169 5.97046 15.7169 4.37993C15.7169 2.78939 14.4275 1.5 12.837 1.5C11.2464 1.5 9.95703 2.78939 9.95703 4.37993C9.95703 5.97046 11.2464 7.25985 12.837 7.25985Z" stroke="white" stroke-opacity="0.7" stroke-width="1.5" stroke-linecap="round" stroke-linejoin="round"/>
<path d="M8.6798 11.1006C8.6798 9.82068 9.63978 7.26074 12.8397 7.26074C16.0396 7.26074 16.9996 9.82068 16.9996 11.1006M1 17.5005C1 16.2205 1.95998 13.6606 5.15989 13.6606C8.35981 13.6606 9.31978 16.2205 9.31978 17.5005" stroke="white" stroke-opacity="0.7" stroke-width="1.5" stroke-linecap="round" stroke-linejoin="round"/>
<path d="M36.54 5.859C36.54 8.082 36.54 10.609 35.875 13.991L37.851 14.2C38.497 10.571 38.497 8.158 38.497 5.859V4.016H26.622V5.593H36.54V5.859ZM24.969 15.454V17.069H40.492V15.454H24.969ZM54.0945 5.365H44.4235V9.583H56.3745V8.082H46.3425V6.771H56.0325V2.629H44.3855V4.092H54.0945V5.365ZM54.1135 17.753H46.3805V16.309H54.1135V17.753ZM54.1135 14.865H46.3805V13.212H44.4425V19.254H56.0515V13.212H54.1135V14.865ZM42.4285 10.704V12.262H49.2115V14.086H51.1685V12.262H57.9895V10.704H42.4285ZM65.1056 4.016V5.612H70.9196C70.8626 6.562 70.6916 7.455 70.4636 8.31L64.2126 8.69L64.4976 10.362L69.8556 9.868C68.8486 11.977 67.0436 13.763 64.1366 15.245L65.2006 16.765C71.2996 13.649 72.8766 9.127 72.8766 4.016H65.1056ZM76.4296 2.306V9.051H72.8196V10.666H76.4296V19.482H78.4056V2.306H76.4296ZM84.6171 10.191H90.6021V3.826H82.6031V5.422H88.6261V8.614H82.6411V15.416H84.1041C87.1251 15.416 89.6901 15.321 92.6351 14.808L92.4261 13.212C89.7091 13.649 87.3341 13.782 84.6171 13.801V10.191ZM93.8511 2.268V19.501H95.8271V2.268H93.8511ZM103.768 13.915C102.305 13.915 101.298 12.319 101.298 9.602C101.298 6.942 102.305 5.327 103.768 5.327C105.25 5.327 106.257 6.942 106.257 9.602C106.257 12.319 105.25 13.915 103.768 13.915ZM111.425 2.287V8.69H108.081C107.815 5.536 106.067 3.56 103.768 3.56C101.241 3.56 99.4356 5.916 99.4356 9.602C99.4356 13.326 101.241 15.663 103.768 15.663C106.124 15.663 107.872 13.611 108.1 10.286H111.425V19.501H113.401V2.287H111.425Z" fill="white" fill-opacity="0.7"/>
</svg>
