<svg width="14" height="14" viewBox="0 0 14 14" fill="none" xmlns="http://www.w3.org/2000/svg">
<path d="M4.12094 10.1208C5.31387 10.1208 6.28094 9.15372 6.28094 7.96078C6.28094 6.76785 5.31387 5.80078 4.12094 5.80078C2.928 5.80078 1.96094 6.76785 1.96094 7.96078C1.96094 9.15372 2.928 10.1208 4.12094 10.1208Z" stroke="white" stroke-width="1.3" stroke-linecap="round" stroke-linejoin="round"/>
<path d="M9.87875 5.32C11.0717 5.32 12.0388 4.35294 12.0388 3.16C12.0388 1.96706 11.0717 1 9.87875 1C8.68581 1 7.71875 1.96706 7.71875 3.16C7.71875 4.35294 8.68581 5.32 9.87875 5.32Z" stroke="white" stroke-width="1.3" stroke-linecap="round" stroke-linejoin="round"/>
<path d="M6.76 8.20031C6.76 7.24031 7.48 5.32031 9.88 5.32031C12.28 5.32031 13 7.24031 13 8.20031M1 13.0003C1 12.0403 1.72 10.1203 4.12 10.1203C6.52 10.1203 7.24 12.0403 7.24 13.0003" stroke="white" stroke-width="1.3" stroke-linecap="round" stroke-linejoin="round"/>
</svg>
