<svg width="18" height="19" viewBox="0 0 18 19" fill="none" xmlns="http://www.w3.org/2000/svg">
<path d="M5.16118 13.6602C6.75171 13.6602 8.0411 12.3709 8.0411 10.7803C8.0411 9.18978 6.75171 7.90039 5.16118 7.90039C3.57064 7.90039 2.28125 9.18978 2.28125 10.7803C2.28125 12.3709 3.57064 13.6602 5.16118 13.6602Z" stroke="white" stroke-opacity="0.7" stroke-width="1.5" stroke-linecap="round" stroke-linejoin="round"/>
<path d="M12.837 7.25985C14.4275 7.25985 15.7169 5.97046 15.7169 4.37993C15.7169 2.78939 14.4275 1.5 12.837 1.5C11.2464 1.5 9.95703 2.78939 9.95703 4.37993C9.95703 5.97046 11.2464 7.25985 12.837 7.25985Z" stroke="white" stroke-opacity="0.7" stroke-width="1.5" stroke-linecap="round" stroke-linejoin="round"/>
<path d="M8.6798 11.1006C8.6798 9.82068 9.63978 7.26074 12.8397 7.26074C16.0396 7.26074 16.9996 9.82068 16.9996 11.1006M1 17.5005C1 16.2205 1.95998 13.6606 5.15989 13.6606C8.35981 13.6606 9.31978 16.2205 9.31978 17.5005" stroke="white" stroke-opacity="0.7" stroke-width="1.5" stroke-linecap="round" stroke-linejoin="round"/>
</svg>
