<svg width="122" height="24" viewBox="0 0 122 24" fill="none" xmlns="http://www.w3.org/2000/svg">
<path d="M0 0.450868H4.86528V19.1792H12.9182V23.5491H0V0.450868ZM25.5331 24C23.3409 24 21.406 23.5028 19.7283 22.5087C18.0506 21.5145 16.742 20.1156 15.8025 18.3121C14.8853 16.5087 14.4268 14.4394 14.4268 12.104C14.4268 9.74567 14.8853 7.66474 15.8025 5.86127C16.7197 4.0578 18.017 2.65896 19.6947 1.66474C21.3724 0.670521 23.3185 0.17341 25.5331 0.17341C27.7253 0.17341 29.6602 0.670521 31.3379 1.66474C33.0156 2.63584 34.3129 4.01156 35.2301 5.79191C36.1473 7.57226 36.6058 9.63005 36.6058 11.9653C36.6058 14.3468 36.1473 16.4509 35.2301 18.2775C34.3129 20.0809 33.0156 21.4913 31.3379 22.5087C29.6602 23.5028 27.7253 24 25.5331 24ZM25.5331 19.5954C27.3673 19.5954 28.8326 18.9133 29.9286 17.5491C31.0471 16.1849 31.6063 14.37 31.6063 12.104C31.6063 10.6243 31.3491 9.31792 30.8346 8.18497C30.3425 7.0289 29.6266 6.15029 28.6871 5.54913C27.77 4.92486 26.7187 4.61272 25.5331 4.61272C24.3475 4.61272 23.285 4.92486 22.3455 5.54913C21.4283 6.15029 20.7126 7.0289 20.198 8.18497C19.706 9.31792 19.4599 10.6243 19.4599 12.104C19.4599 13.5838 19.706 14.8902 20.198 16.0231C20.7126 17.156 21.4283 18.0347 22.3455 18.659C23.2627 19.2832 24.3251 19.5954 25.5331 19.5954ZM50.8949 24C48.7028 24 46.7678 23.5028 45.0901 22.5087C43.4124 21.5145 42.1038 20.1156 41.1643 18.3121C40.2473 16.5087 39.7886 14.4394 39.7886 12.104C39.7886 9.74567 40.2473 7.66474 41.1643 5.86127C42.0815 4.0578 43.3789 2.65896 45.0566 1.66474C46.7343 0.670521 48.6804 0.17341 50.8949 0.17341C53.0871 0.17341 55.022 0.670521 56.6997 1.66474C58.3774 2.63584 59.6749 4.01156 60.5919 5.79191C61.5091 7.57226 61.9676 9.63005 61.9676 11.9653C61.9676 14.3468 61.5091 16.4509 60.5919 18.2775C59.6749 20.0809 58.3774 21.4913 56.6997 22.5087C55.022 23.5028 53.0871 24 50.8949 24ZM50.8949 19.5954C52.7293 19.5954 54.1944 18.9133 55.2904 17.5491C56.4089 16.1849 56.9681 14.37 56.9681 12.104C56.9681 10.6243 56.7109 9.31792 56.1964 8.18497C55.7043 7.0289 54.9885 6.15029 54.049 5.54913C53.1319 4.92486 52.0805 4.61272 50.8949 4.61272C49.7094 4.61272 48.6468 4.92486 47.7073 5.54913C46.7903 6.15029 46.0744 7.0289 45.5599 8.18497C45.0678 9.31792 44.8217 10.6243 44.8217 12.104C44.8217 13.5838 45.0678 14.8902 45.5599 16.0231C46.0744 17.156 46.7903 18.0347 47.7073 18.659C48.6245 19.2832 49.687 19.5954 50.8949 19.5954ZM65.6656 0.450868C66.3144 0.427746 67.5446 0.416185 69.3565 0.416185C71.1909 0.416185 72.4324 0.427746 73.081 0.450868C75.3851 0.49711 77.197 1.13294 78.5167 2.35838C79.8365 3.58382 80.4964 5.28324 80.4964 7.45665C80.4964 9.00578 80.1608 10.3815 79.4898 11.5838C78.8187 12.763 77.8681 13.6763 76.6377 14.3237C75.4298 14.9711 74.0541 15.2948 72.5106 15.2948H70.3296V23.5491H65.6656V0.450868ZM72.3093 11.2023C73.4055 11.2023 74.2554 10.8786 74.8594 10.2312C75.4858 9.58382 75.7989 8.7052 75.7989 7.59538C75.7989 5.5607 74.714 4.54335 72.5442 4.54335H70.3296V11.2023H72.3093ZM93.671 24C91.8143 24 90.1814 23.5954 88.7721 22.7861C87.3629 21.9768 86.2667 20.8439 85.4839 19.3873C84.7232 17.9076 84.3431 16.2081 84.3431 14.289V0.450868H89.2419V13.9075C89.2419 15.6185 89.6333 16.9826 90.4163 18C91.2216 18.9942 92.3064 19.4913 93.671 19.4913C95.0355 19.4913 96.1204 18.9942 96.9257 18C97.731 16.9826 98.1336 15.6185 98.1336 13.9075V0.450868H102.999V14.289C102.999 16.2081 102.607 17.9076 101.825 19.3873C101.064 20.8439 99.9791 21.9768 98.5698 22.7861C97.1606 23.5954 95.5275 24 93.671 24ZM113.612 24C112.314 24 111.073 23.8497 109.887 23.5491C108.724 23.2486 107.717 22.8439 106.867 22.3353L107.27 17.6879C108.277 18.3352 109.328 18.844 110.424 19.2139C111.542 19.5607 112.571 19.7341 113.511 19.7341C114.585 19.7341 115.457 19.5029 116.128 19.0405C116.799 18.578 117.135 17.9653 117.135 17.2023C117.135 16.578 116.911 16.1041 116.464 15.7803C116.016 15.4335 115.312 15.0636 114.35 14.6705L113.544 14.3237C113.433 14.2774 113.31 14.2313 113.175 14.185C113.041 14.1156 112.885 14.0462 112.706 13.9769C111.453 13.445 110.446 12.948 109.686 12.4856C108.925 12 108.265 11.3295 107.706 10.474C107.169 9.6185 106.901 8.50868 106.901 7.14451C106.901 4.92486 107.628 3.17919 109.082 1.90752C110.536 0.635839 112.56 0 115.155 0C117.123 0 119.137 0.416186 121.195 1.24856L120.457 5.82659C119.629 5.34104 118.734 4.95954 117.772 4.68208C116.833 4.40463 115.938 4.2659 115.088 4.2659C114.037 4.2659 113.22 4.48555 112.639 4.92486C112.057 5.34104 111.766 5.90752 111.766 6.62428C111.766 7.24856 111.967 7.7341 112.37 8.08093C112.773 8.42775 113.421 8.79769 114.316 9.19075L115.692 9.74567C116.989 10.2543 118.063 10.7514 118.913 11.237C119.763 11.7225 120.49 12.4278 121.094 13.3526C121.698 14.2543 122 15.4335 122 16.8902C122 19.1329 121.262 20.8786 119.785 22.1272C118.309 23.3757 116.251 24 113.612 24Z" fill="#2199FC"/>
</svg>
