<svg width="58" height="32" viewBox="0 0 58 32" fill="none" xmlns="http://www.w3.org/2000/svg">
<path d="M42.8027 32C34.9821 32 29.7115 24.8583 25.8809 19.6458L25.3117 18.9028L24.2473 17.4589C20.6387 12.492 18.2538 9.44842 15.1973 9.44842C13.5495 9.45784 11.9717 10.1506 10.8061 11.3765C9.64041 12.6024 8.98082 14.2626 8.97036 15.997H0C0.00451955 11.7558 1.60711 7.68966 4.45616 4.69067C7.30522 1.69168 11.1681 0.00475739 15.1973 0C22.8073 0 27.3607 6.21307 31.3792 11.6952L32.4094 13.0972L32.9786 13.8521C35.8245 17.7285 39.3933 22.5516 42.8141 22.5516C44.4599 22.5374 46.0341 21.8418 47.1963 20.6151C48.3584 19.3884 49.015 17.7294 49.0239 15.997H58C57.9955 20.2388 56.3931 24.3055 53.5442 27.3055C50.6953 30.3054 46.8324 31.9937 42.8027 32Z" fill="#2199FC"/>
<path style="mix-blend-mode:multiply" d="M39.3125 21.1269C37.0358 19.4074 34.8444 16.4237 32.949 13.8534L32.3798 13.0984L31.3496 11.6965C29.8762 9.59969 28.2833 7.5989 26.5798 5.70508L20.2676 12.3675C21.6796 13.9904 23.0095 15.6903 24.2519 17.4602L25.3163 18.9041L25.8854 19.647C27.8264 22.2832 30.1316 25.4048 32.9433 27.8552L39.3125 21.1269Z" fill="url(#paint0_linear_159_3812)"/>
<path d="M15.1973 32C11.1671 31.9952 7.30338 30.3075 4.45415 27.3072C1.60493 24.3069 0.00301292 20.2392 0 15.997H8.97036C8.97933 17.7325 9.63826 19.3942 10.8041 20.6214C11.9699 21.8485 13.5485 22.5421 15.1973 22.5516C18.2538 22.5516 20.6387 19.508 24.2701 14.5351L25.3344 13.0972L25.9036 12.3542C29.7229 7.14173 34.9821 0 42.8027 0C46.8319 0.00475739 50.6948 1.69168 53.5438 4.69067C56.3929 7.68966 57.9955 11.7558 58 15.997H49.0239C49.0224 14.2607 48.3665 12.596 47.2001 11.3682C46.0338 10.1405 44.4522 9.45 42.8027 9.44842C39.3876 9.44842 35.8245 14.2415 32.9672 18.1419L32.398 18.9028L31.3678 20.3048C27.3607 25.763 22.8073 32 15.1973 32Z" fill="#2199FC"/>
<defs>
<linearGradient id="paint0_linear_159_3812" x1="21.9979" y1="8.67681" x2="36.1612" y2="22.1377" gradientUnits="userSpaceOnUse">
<stop offset="0.15" stop-color="white"/>
<stop offset="0.61" stop-color="#878787"/>
<stop offset="0.89" stop-color="white"/>
</linearGradient>
</defs>
</svg>
