<svg width="65" height="36" viewBox="0 0 65 36" fill="none" xmlns="http://www.w3.org/2000/svg">
<defs>
<linearGradient id="paint0_linear_270_3759" x1="24.5777" y1="9.76116" x2="40.5054" y2="24.7946" gradientUnits="userSpaceOnUse">
<stop offset="0.15" stop-color="white"/>
<stop offset="0.61" stop-color="#878787"/>
<stop offset="0.89" stop-color="white"/>
</linearGradient>
</defs>
<path d="M47.821 36C39.0835 36 33.1949 27.9655 28.9152 22.1015L28.2792 21.2657L27.0901 19.6413C23.0584 14.0535 20.3939 10.6295 16.979 10.6295C15.1381 10.6401 13.3753 11.4194 12.073 12.7986C10.7707 14.1777 10.0337 16.0454 10.0221 17.9966H0C0.00504943 13.2253 1.79552 8.65086 4.97861 5.277C8.1617 1.90314 12.4774 0.00535206 16.979 0C25.4812 0 30.5685 6.9897 35.0581 13.1571L36.2091 14.7343L36.8451 15.5836C40.0246 19.9446 44.0118 25.3705 47.8337 25.3705C49.6724 25.3546 51.4312 24.572 52.7296 23.192C54.028 21.8119 54.7616 19.9456 54.7716 17.9966H64.8C64.7949 22.7686 63.0047 27.3437 59.8218 30.7186C56.6389 34.0936 52.3231 35.9929 47.821 36Z" fill="#2199FC"/>
<path style="mix-blend-mode:multiply" d="M43.9223 23.7675C41.3787 21.8331 38.9304 18.4764 36.8128 15.5848L36.1769 14.7355L35.0258 13.1583C33.3797 10.7994 31.6001 8.54852 29.6969 6.41797L22.6445 13.9132C24.2221 15.7389 25.7079 17.6513 27.096 19.6425L28.2851 21.2669L28.921 22.1027C31.0895 25.0684 33.665 28.5801 36.8064 31.3369L43.9223 23.7675Z" fill="url(#paint0_linear_270_3759)"/>
<path d="M16.979 36C12.4763 35.9946 8.15963 34.0959 4.97636 30.7206C1.7931 27.3453 0.00336616 22.7692 0 17.9966H10.0221C10.0321 19.949 10.7683 21.8184 12.0708 23.199C13.3733 24.5796 15.137 25.3599 16.979 25.3705C20.3939 25.3705 23.0584 21.9465 27.1155 16.352L28.3047 14.7343L28.9406 13.8985C33.2076 8.03445 39.0835 0 47.821 0C52.3225 0.00535206 56.6383 1.90314 59.8214 5.277C63.0045 8.65086 64.7949 13.2253 64.8 17.9966H54.7716C54.7699 16.0433 54.0371 14.1705 52.7339 12.7892C51.4308 11.408 49.6639 10.6313 47.821 10.6295C44.0055 10.6295 40.0246 16.0217 36.8323 20.4097L36.1964 21.2657L35.0454 22.8429C30.5686 28.9833 25.4812 36 16.979 36Z" fill="#2199FC"/>
</svg>
