<svg width="201" height="106" viewBox="0 0 201 106" fill="none" xmlns="http://www.w3.org/2000/svg">
<path d="M148.096 105.5C121.128 105.5 102.953 82.0662 89.7444 64.9626L87.7816 62.5249L84.1114 57.787C71.6678 41.4895 63.4441 31.5026 52.9043 31.5026C47.2225 31.5335 41.7819 33.8067 37.7623 37.8292C33.7428 41.8516 31.4684 47.2991 31.4323 52.9902H0.5C0.515585 39.0737 6.04174 25.7317 15.8661 15.8913C25.6904 6.05082 39.0106 0.51561 52.9043 0.5C79.1457 0.5 94.8474 20.8866 108.704 38.8748L112.257 43.4751L114.219 45.9522C124.033 58.6717 136.339 74.4974 148.135 74.4974C153.81 74.451 159.238 72.1683 163.246 68.1432C167.253 64.1182 169.517 58.6745 169.548 52.9902H200.5C200.484 66.9084 194.959 80.2525 185.135 90.096C175.311 99.9396 161.991 105.479 148.096 105.5Z" fill="#2199FC"/>
<path style="mix-blend-mode:multiply" d="M136.065 69.8236C128.214 64.1814 120.658 54.3911 114.122 45.9573L112.159 43.4802L108.607 38.8799C103.526 31.9999 98.0331 25.4348 92.159 19.2207L70.3926 41.0818C75.2615 46.4068 79.8475 51.9846 84.1315 57.7921L87.8018 62.53L89.7645 64.9677C96.4574 73.6178 104.406 83.8603 114.102 91.9009L136.065 69.8236Z" fill="url(#paint0_linear_159_4053)"/>
<path d="M52.9043 105.5C39.0072 105.484 25.6841 99.9465 15.8592 90.1018C6.03425 80.2571 0.510389 66.91 0.5 52.9902H31.4323C31.4632 58.6847 33.7354 64.1371 37.7555 68.1638C41.7756 72.1905 47.2191 74.4664 52.9043 74.4974C63.4441 74.4974 71.6678 64.5105 84.1899 48.1933L87.8602 43.4751L89.8229 41.0374C102.993 23.9338 121.128 0.5 148.096 0.5C161.989 0.51561 175.31 6.05082 185.134 15.8913C194.958 25.7317 200.484 39.0737 200.5 52.9902H169.548C169.543 47.2929 167.281 41.8305 163.259 37.8019C159.237 33.7734 153.784 31.5078 148.096 31.5026C136.319 31.5026 124.033 47.23 114.18 60.0282L112.217 62.5249L108.665 67.1252C94.8474 85.0347 79.1457 105.5 52.9043 105.5Z" fill="#2199FC"/>
<defs>
<linearGradient id="paint0_linear_159_4053" x1="76.3592" y1="28.9717" x2="122.893" y2="75.4486" gradientUnits="userSpaceOnUse">
<stop offset="0.15" stop-color="white"/>
<stop offset="0.61" stop-color="#878787"/>
<stop offset="0.89" stop-color="white"/>
</linearGradient>
</defs>
</svg>
