<svg width="19" height="22" viewBox="0 0 19 22" fill="none" xmlns="http://www.w3.org/2000/svg">
<path d="M18.1296 19.2495V7.87751C18.1296 7.55336 17.9797 7.24742 17.7235 7.04877L10.2075 1.22001C9.82923 0.926664 9.30035 0.926664 8.92209 1.22001L1.40605 7.04877C1.1499 7.24742 1 7.55336 1 7.87751V19.2495C1 19.8287 1.46954 20.2982 2.04875 20.2982H17.0808C17.66 20.2982 18.1296 19.8287 18.1296 19.2495Z" fill="#2199FC"/>
<path d="M1.40605 7.04877L0.946434 6.45611H0.946434L1.40605 7.04877ZM8.92209 1.22001L9.38171 1.81267V1.81267L8.92209 1.22001ZM10.2075 1.22001L10.6671 0.627342V0.627342L10.2075 1.22001ZM17.7235 7.04877L17.2639 7.64144L17.2639 7.64144L17.7235 7.04877ZM17.3796 7.87751V19.2495H18.8796V7.87751H17.3796ZM17.0808 19.5482H2.04875V21.0482H17.0808V19.5482ZM1.75 19.2495V7.87751H0.25V19.2495H1.75ZM1.86567 7.64144L9.38171 1.81267L8.46247 0.627342L0.946434 6.45611L1.86567 7.64144ZM9.74787 1.81267L17.2639 7.64144L18.1831 6.45611L10.6671 0.627342L9.74787 1.81267ZM9.38171 1.81267C9.48946 1.72911 9.64012 1.72911 9.74787 1.81267L10.6671 0.627342C10.0183 0.124219 9.11124 0.124219 8.46247 0.627342L9.38171 1.81267ZM2.04875 19.5482C1.88376 19.5482 1.75 19.4145 1.75 19.2495H0.25C0.25 20.2429 1.05533 21.0482 2.04875 21.0482V19.5482ZM17.3796 19.2495C17.3796 19.4145 17.2458 19.5482 17.0808 19.5482V21.0482C18.0743 21.0482 18.8796 20.2429 18.8796 19.2495H17.3796ZM18.8796 7.87751C18.8796 7.32155 18.6225 6.79682 18.1831 6.45611L17.2639 7.64144C17.3369 7.69802 17.3796 7.78517 17.3796 7.87751H18.8796ZM1.75 7.87751C1.75 7.78517 1.7927 7.69802 1.86567 7.64144L0.946434 6.45611C0.507095 6.79682 0.25 7.32154 0.25 7.87751H1.75Z" fill="#2199FC"/>
<path d="M18.1296 19.2495V7.87751C18.1296 7.55336 17.9797 7.24742 17.7235 7.04877L10.2075 1.22001C9.82923 0.926664 9.30035 0.926664 8.92209 1.22001L1.40605 7.04877C1.1499 7.24742 1 7.55336 1 7.87751V19.2495C1 19.8287 1.46954 20.2982 2.04875 20.2982H17.0808C17.66 20.2982 18.1296 19.8287 18.1296 19.2495Z" fill="#2199FC"/>
<path d="M1.40605 7.04877L0.946434 6.45611H0.946434L1.40605 7.04877ZM8.92209 1.22001L9.38171 1.81267V1.81267L8.92209 1.22001ZM10.2075 1.22001L10.6671 0.627342V0.627342L10.2075 1.22001ZM17.7235 7.04877L17.2639 7.64144L17.2639 7.64144L17.7235 7.04877ZM17.3796 7.87751V19.2495H18.8796V7.87751H17.3796ZM17.0808 19.5482H2.04875V21.0482H17.0808V19.5482ZM1.75 19.2495V7.87751H0.25V19.2495H1.75ZM1.86567 7.64144L9.38171 1.81267L8.46247 0.627342L0.946434 6.45611L1.86567 7.64144ZM9.74787 1.81267L17.2639 7.64144L18.1831 6.45611L10.6671 0.627342L9.74787 1.81267ZM9.38171 1.81267C9.48946 1.72911 9.64012 1.72911 9.74787 1.81267L10.6671 0.627342C10.0183 0.124219 9.11124 0.124219 8.46247 0.627342L9.38171 1.81267ZM2.04875 19.5482C1.88376 19.5482 1.75 19.4145 1.75 19.2495H0.25C0.25 20.2429 1.05533 21.0482 2.04875 21.0482V19.5482ZM17.3796 19.2495C17.3796 19.4145 17.2458 19.5482 17.0808 19.5482V21.0482C18.0743 21.0482 18.8796 20.2429 18.8796 19.2495H17.3796ZM18.8796 7.87751C18.8796 7.32155 18.6225 6.79682 18.1831 6.45611L17.2639 7.64144C17.3369 7.69802 17.3796 7.78517 17.3796 7.87751H18.8796ZM1.75 7.87751C1.75 7.78517 1.7927 7.69802 1.86567 7.64144L0.946434 6.45611C0.507095 6.79682 0.25 7.32154 0.25 7.87751H1.75Z" fill="#2199FC"/>
<path d="M7.31826 14.0312H12.2305V12.5312H7.31826V14.0312ZM12.2305 14.0312C12.332 14.0312 12.5332 14.145 12.5332 14.4391H14.0332C14.0332 13.4543 13.2918 12.5312 12.2305 12.5312V14.0312ZM7.31826 12.5312C6.25702 12.5312 5.51562 13.4543 5.51562 14.4391H7.01562C7.01562 14.145 7.21679 14.0312 7.31826 14.0312V12.5312ZM7.01562 21.0005V17.7198H5.51562V21.0005H7.01562ZM7.01562 17.7198V14.4391H5.51562V17.7198H7.01562ZM12.5332 14.4391V17.7198H14.0332V14.4391H12.5332ZM12.5332 17.7198V21.0005H14.0332V17.7198H12.5332Z" fill="white"/>
</svg>
