<svg width="24" height="24" viewBox="0 0 24 24" fill="none" xmlns="http://www.w3.org/2000/svg">
<path d="M3 11.7308C3 10.0388 3 9.19275 3.35288 8.44909C3.70576 7.70544 4.36847 7.15485 5.6939 6.05369L6.97961 4.98552C9.3753 2.99517 10.5732 2 12 2C13.4268 2 14.6247 2.99517 17.0204 4.98552L18.3061 6.05369C19.6315 7.15485 20.2942 7.70544 20.6471 8.44909C21 9.19275 21 10.0388 21 11.7308V17.0152C21 19.3651 21 20.54 20.2468 21.27C19.4937 22 18.2815 22 15.8571 22H8.14286C5.71849 22 4.50631 22 3.75315 21.27C3 20.54 3 19.3651 3 17.0152V11.7308Z" stroke="#263238" stroke-width="1.2"/>
<path d="M15 22V16C15 15.4477 14.5523 15 14 15H10C9.44772 15 9 15.4477 9 16V22" stroke="#263238" stroke-width="1.2" stroke-linecap="round" stroke-linejoin="round"/>
</svg>
