<svg width="24" height="24" viewBox="0 0 24 24" fill="none" xmlns="http://www.w3.org/2000/svg">
<path d="M6.30742 11.6926L4.17157 13.8284C3.59351 14.4065 3.30448 14.6955 3.15224 15.0631C3 15.4306 3 15.8394 3 16.6569V19.5C3 20.3284 3.67157 21 4.5 21H17.8866C18.9251 21 19.4443 21 19.8469 20.8119C20.2717 20.6133 20.6133 20.2717 20.8119 19.8469C21 19.4443 21 18.9251 21 17.8866C21 17.3998 21 17.1564 20.9458 16.9284C20.8884 16.6868 20.7865 16.458 20.6453 16.2536C20.5121 16.0609 20.3312 15.8981 19.9694 15.5724L19.9694 15.5724L17.6445 13.4801C17.4259 13.2833 17.3166 13.185 17.213 13.113C16.4954 12.6149 15.5376 12.6401 14.8472 13.1752C14.7475 13.2525 14.6435 13.3565 14.4356 13.5644C14.1279 13.8721 13.9741 14.0259 13.8423 14.1207C12.9094 14.7915 11.6044 14.5402 10.9874 13.5709C10.9003 13.434 10.8146 13.234 10.6432 12.8341L10.5 12.5L10.5 12.5C10.2012 11.8029 10.0518 11.4543 9.87182 11.2348C9.26062 10.4895 8.20482 10.2862 7.36055 10.7512C7.11189 10.8881 6.84373 11.1563 6.30742 11.6926Z" stroke="#263238" stroke-width="1.2"/>
<path d="M3 7C3 5.11438 3 4.17157 3.58579 3.58579C4.17157 3 5.11438 3 7 3H17C18.8856 3 19.8284 3 20.4142 3.58579C21 4.17157 21 5.11438 21 7V17C21 18.8856 21 19.8284 20.4142 20.4142C19.8284 21 18.8856 21 17 21H7C5.11438 21 4.17157 21 3.58579 20.4142C3 19.8284 3 18.8856 3 17V7Z" stroke="#263238" stroke-width="1.2"/>
<circle cx="16" cy="8" r="1" fill="#263238"/>
</svg>
