<svg width="22" height="22" viewBox="0 0 22 22" fill="none" xmlns="http://www.w3.org/2000/svg">
<path d="M10.4518 3.12864L10.0745 2.82677C7.74864 0.966102 4.37025 1.26595 2.40848 3.50717C0.468063 5.72399 0.325745 9.00142 2.1649 11.3029C2.91976 12.2476 3.71249 13.2091 4.41602 14C6.2054 16.0117 8.96695 18.6621 10.2359 19.8616C10.5559 20.164 10.7158 20.3152 10.9153 20.3148C11.1148 20.3144 11.2743 20.1625 11.5933 19.8586C12.8572 18.6544 15.6103 15.9968 17.416 14C18.104 13.2392 18.8803 12.3246 19.6282 11.4192C21.567 9.07232 21.4151 5.66614 19.3583 3.42191C17.4103 1.2964 14.161 1.01173 11.8731 2.76612L11.3878 3.13827C11.1107 3.35072 10.7244 3.34674 10.4518 3.12864Z" fill="#FF7373"/>
<path d="M10.0745 2.82677L9.60596 3.41242L9.60596 3.41242L10.0745 2.82677ZM10.4518 3.12864L9.9833 3.71429L9.9833 3.71429L10.4518 3.12864ZM11.3878 3.13827L10.9314 2.5431L10.9314 2.5431L11.3878 3.13827ZM11.8731 2.76612L12.3295 3.36129L12.3295 3.36129L11.8731 2.76612ZM19.6282 11.4192L20.2064 11.8969L20.2064 11.8969L19.6282 11.4192ZM17.416 14L16.8597 13.497L16.8597 13.497L17.416 14ZM11.5933 19.8586L12.1106 20.4016L12.1106 20.4016L11.5933 19.8586ZM10.2359 19.8616L9.7207 20.4066L9.7207 20.4066L10.2359 19.8616ZM4.41602 14L3.85562 14.4985L3.85562 14.4985L4.41602 14ZM2.1649 11.3029L2.75081 10.8347L2.75081 10.8347L2.1649 11.3029ZM19.3583 3.42191L18.8054 3.92865L18.8054 3.92865L19.3583 3.42191ZM2.40848 3.50717L2.97282 4.00115L2.97282 4.00115L2.40848 3.50717ZM10.9153 20.3148L10.9168 21.0648L10.9168 21.0648L10.9153 20.3148ZM9.60596 3.41242L9.9833 3.71429L10.9203 2.54299L10.543 2.24112L9.60596 3.41242ZM11.8441 3.73344L12.3295 3.36129L11.4167 2.17095L10.9314 2.5431L11.8441 3.73344ZM19.05 10.9416C18.3053 11.843 17.537 12.748 16.8597 13.497L17.9723 14.503C18.671 13.7304 19.4553 12.8062 20.2064 11.8969L19.05 10.9416ZM16.8597 13.497C15.0751 15.4705 12.341 18.1103 11.0759 19.3156L12.1106 20.4016C13.3734 19.1985 16.1455 16.5232 17.9723 14.503L16.8597 13.497ZM10.7511 19.3165C9.48081 18.1158 6.74146 15.4859 4.97641 13.5015L3.85562 14.4985C5.66933 16.5375 8.45309 19.2084 9.7207 20.4066L10.7511 19.3165ZM4.97641 13.5015C4.28551 12.7248 3.5021 11.7749 2.75081 10.8347L1.57899 11.7711C2.33742 12.7203 3.13947 13.6933 3.85562 14.4985L4.97641 13.5015ZM18.8054 3.92865C20.6195 5.90811 20.741 8.89461 19.05 10.9416L20.2064 11.8969C22.3931 9.25004 22.2107 5.42418 19.9112 2.91517L18.8054 3.92865ZM12.3295 3.36129C14.3089 1.84346 17.12 2.08974 18.8054 3.92865L19.9112 2.91517C17.7005 0.503064 14.0132 0.180008 11.4167 2.17095L12.3295 3.36129ZM9.9833 3.71429C10.5253 4.14792 11.2933 4.15583 11.8441 3.73344L10.9314 2.5431C10.9281 2.54561 10.9236 2.54556 10.9203 2.54299L9.9833 3.71429ZM2.97282 4.00115C4.67028 2.0619 7.59349 1.80245 9.60596 3.41242L10.543 2.24112C7.9038 0.129756 4.07022 0.470007 1.84413 3.01319L2.97282 4.00115ZM1.84413 3.01319C-0.324684 5.49095 -0.496877 9.1734 1.57899 11.7711L2.75081 10.8347C1.14837 8.82944 1.26081 5.95703 2.97282 4.00115L1.84413 3.01319ZM11.0759 19.3156C10.9942 19.3935 10.9318 19.4528 10.8774 19.5021C10.8227 19.5516 10.7894 19.5787 10.7688 19.5937C10.7487 19.6083 10.7557 19.6002 10.7838 19.589C10.8174 19.5757 10.8631 19.5649 10.9138 19.5648L10.9168 21.0648C11.234 21.0642 11.4764 20.9336 11.6502 20.8074C11.8049 20.695 11.9662 20.5391 12.1106 20.4016L11.0759 19.3156ZM9.7207 20.4066C9.86552 20.5435 10.0274 20.6987 10.1825 20.8104C10.3568 20.9359 10.5997 21.0655 10.9168 21.0648L10.9138 19.5648C10.9645 19.5647 11.0103 19.5753 11.0439 19.5885C11.0721 19.5996 11.0791 19.6076 11.0591 19.5932C11.0384 19.5783 11.005 19.5514 10.9502 19.5021C10.8956 19.4531 10.8331 19.3941 10.7511 19.3165L9.7207 20.4066Z" fill="#FF7373"/>
</svg>
