<svg width="24" height="24" viewBox="0 0 24 24" fill="none" xmlns="http://www.w3.org/2000/svg">
<path d="M11.4538 4.12864L11.0764 3.82677C8.7506 1.9661 5.3722 2.26595 3.41043 4.50717C1.47002 6.72399 1.3277 10.0014 3.16685 12.3029C3.92171 13.2476 4.71444 14.2091 5.41797 15C7.20735 17.0117 9.9689 19.6621 11.2378 20.8616C11.5578 21.164 11.7178 21.3152 11.9173 21.3148C12.1168 21.3144 12.2763 21.1625 12.5952 20.8586C13.8591 19.6544 16.6122 16.9968 18.418 15C19.1059 14.2392 19.8822 13.3246 20.6302 12.4192C22.569 10.0723 22.4171 6.66614 20.3602 4.42191C18.4122 2.2964 15.163 2.01173 12.875 3.76612L12.3897 4.13827C12.1127 4.35072 11.7264 4.34674 11.4538 4.12864Z" fill="#F16A6A"/>
<path d="M11.0764 3.82677L10.6079 4.41242L11.0764 3.82677ZM11.4538 4.12864L10.9852 4.71429V4.71429L11.4538 4.12864ZM12.3897 4.13827L11.9333 3.5431L11.9333 3.5431L12.3897 4.13827ZM12.875 3.76612L13.3314 4.36129L12.875 3.76612ZM20.6302 12.4192L21.2084 12.8969L20.6302 12.4192ZM18.418 15L17.8617 14.497V14.497L18.418 15ZM12.5952 20.8586L13.1126 21.4016L12.5952 20.8586ZM11.2378 20.8616L10.7227 21.4066L10.7227 21.4066L11.2378 20.8616ZM5.41797 15L4.85757 15.4985H4.85757L5.41797 15ZM3.16685 12.3029L3.75276 11.8347L3.16685 12.3029ZM20.3602 4.42191L19.8073 4.92865L19.8073 4.92865L20.3602 4.42191ZM3.41043 4.50717L3.97478 5.00115H3.97478L3.41043 4.50717ZM11.9173 21.3148L11.9188 22.0648H11.9188L11.9173 21.3148ZM10.6079 4.41242L10.9852 4.71429L11.9223 3.54299L11.545 3.24112L10.6079 4.41242ZM12.8461 4.73344L13.3314 4.36129L12.4187 3.17095L11.9333 3.5431L12.8461 4.73344ZM20.052 11.9416C19.3073 12.843 18.5389 13.748 17.8617 14.497L18.9742 15.503C19.6729 14.7304 20.4572 13.8062 21.2084 12.8969L20.052 11.9416ZM17.8617 14.497C16.0771 16.4705 13.3429 19.1103 12.0779 20.3156L13.1126 21.4016C14.3754 20.1985 17.1474 17.5232 18.9742 15.503L17.8617 14.497ZM11.753 20.3165C10.4828 19.1158 7.74341 16.4859 5.97836 14.5015L4.85757 15.4985C6.67128 17.5375 9.45505 20.2084 10.7227 21.4066L11.753 20.3165ZM5.97836 14.5015C5.28746 13.7248 4.50405 12.7749 3.75276 11.8347L2.58094 12.7711C3.33938 13.7203 4.14142 14.6933 4.85757 15.4985L5.97836 14.5015ZM19.8073 4.92865C21.6215 6.90811 21.743 9.89461 20.052 11.9416L21.2084 12.8969C23.395 10.25 23.2126 6.42418 20.9131 3.91517L19.8073 4.92865ZM13.3314 4.36129C15.3109 2.84346 18.122 3.08974 19.8073 4.92865L20.9131 3.91517C18.7025 1.50306 15.0151 1.18001 12.4187 3.17095L13.3314 4.36129ZM10.9852 4.71429C11.5273 5.14792 12.2952 5.15583 12.8461 4.73344L11.9333 3.5431C11.9301 3.54561 11.9255 3.54556 11.9223 3.54299L10.9852 4.71429ZM3.97478 5.00115C5.67223 3.0619 8.59544 2.80245 10.6079 4.41242L11.545 3.24112C8.90575 1.12976 5.07218 1.47001 2.84609 4.01319L3.97478 5.00115ZM2.84609 4.01319C0.677269 6.49095 0.505076 10.1734 2.58094 12.7711L3.75276 11.8347C2.15032 9.82944 2.26276 6.95703 3.97478 5.00115L2.84609 4.01319ZM12.0779 20.3156C11.9961 20.3935 11.9338 20.4528 11.8793 20.5021C11.8247 20.5516 11.7914 20.5787 11.7707 20.5937C11.7506 20.6083 11.7576 20.6002 11.7858 20.589C11.8193 20.5757 11.8651 20.5649 11.9158 20.5648L11.9188 22.0648C12.2359 22.0642 12.4784 21.9336 12.6522 21.8074C12.8069 21.695 12.9682 21.5392 13.1126 21.4016L12.0779 20.3156ZM10.7227 21.4066C10.8675 21.5435 11.0293 21.6987 11.1845 21.8104C11.3588 21.9359 11.6017 22.0655 11.9188 22.0648L11.9158 20.5648C11.9664 20.5647 12.0122 20.5753 12.0458 20.5885C12.074 20.5996 12.0811 20.6076 12.061 20.5932C12.0403 20.5783 12.007 20.5514 11.9522 20.5021C11.8976 20.4531 11.8351 20.3941 11.753 20.3165L10.7227 21.4066Z" fill="#F16A6A"/>
</svg>
