<svg width="18" height="17" viewBox="0 0 18 17" fill="none" xmlns="http://www.w3.org/2000/svg">
<path d="M8.54281 3.26502L7.89102 2.78705C6.107 1.47877 3.6293 1.69702 2.10147 3.29703C0.381364 5.0984 0.257017 7.90515 1.90199 9.77537C2.45296 10.4018 3.01727 11.0238 3.52557 11.5476C4.97581 13.0422 7.19434 14.9994 8.2818 15.9433C8.58744 16.2085 8.74026 16.3412 8.92752 16.3408C9.11479 16.3405 9.26723 16.2071 9.57212 15.9405C10.6555 14.993 12.8674 13.031 14.3308 11.5476C14.8252 11.0464 15.3745 10.4576 15.916 9.86148C17.6414 7.96206 17.5097 5.05297 15.6954 3.23832C14.1858 1.72845 11.8092 1.52257 10.0624 2.75035L9.31912 3.27282C9.08548 3.43704 8.77311 3.43391 8.54281 3.26502Z" fill="#F16A6A"/>
<path d="M7.89102 2.78705L8.27541 2.26288L7.89102 2.78705ZM8.54281 3.26502L8.15842 3.78918V3.78918L8.54281 3.26502ZM9.31912 3.27282L8.94534 2.74104V2.74104L9.31912 3.27282ZM10.0624 2.75035L10.4362 3.28212L10.0624 2.75035ZM15.916 9.86148L16.3972 10.2985L16.3972 10.2985L15.916 9.86148ZM14.3308 11.5476L13.868 11.0911H13.868L14.3308 11.5476ZM9.57212 15.9405L9.1442 15.4512L9.57212 15.9405ZM8.2818 15.9433L7.85574 16.4342L8.2818 15.9433ZM3.52557 11.5476L3.99206 11.095H3.99205L3.52557 11.5476ZM1.90199 9.77537L1.41392 10.2047L1.90199 9.77537ZM15.6954 3.23832L16.155 2.77874L16.155 2.77874L15.6954 3.23832ZM2.10147 3.29703L1.63137 2.84814L2.10147 3.29703ZM7.50663 3.31121L8.15842 3.78918L8.92719 2.74086L8.27541 2.26288L7.50663 3.31121ZM9.69291 3.80459L10.4362 3.28212L9.68865 2.21857L8.94534 2.74104L9.69291 3.80459ZM15.4349 9.42443C14.8965 10.0171 14.3538 10.5988 13.868 11.0911L14.7935 12.0041C15.2966 11.4941 15.8525 10.8981 16.3972 10.2985L15.4349 9.42443ZM13.868 11.0911C12.4236 12.5554 10.2284 14.5029 9.1442 15.4512L10 16.4297C11.0825 15.483 13.3112 13.5066 14.7935 12.0041L13.868 11.0911ZM8.70786 15.4524C7.61934 14.5076 5.42048 12.5671 3.99206 11.095L3.05908 12.0003C4.53113 13.5173 6.76934 15.4912 7.85574 16.4342L8.70786 15.4524ZM3.99205 11.095C3.49408 10.5818 2.93752 9.9685 2.39006 9.34608L1.41392 10.2047C1.9684 10.8351 2.54047 11.4658 3.05908 12.0003L3.99205 11.095ZM15.2357 3.69789C16.8159 5.27836 16.9167 7.7932 15.4349 9.42443L16.3972 10.2985C18.3662 8.13093 18.2035 4.82758 16.155 2.77874L15.2357 3.69789ZM10.4362 3.28212C11.9245 2.23601 13.9495 2.41142 15.2357 3.69789L16.155 2.77874C14.4221 1.04547 11.6938 0.809129 9.68865 2.21857L10.4362 3.28212ZM8.15842 3.78918C8.61364 4.12301 9.23108 4.12921 9.69291 3.80459L8.94534 2.74104C8.93988 2.74488 8.93258 2.74481 8.92719 2.74086L8.15842 3.78918ZM2.57157 3.74592C3.87391 2.38206 5.98592 2.19602 7.50663 3.31121L8.27541 2.26288C6.22808 0.761512 3.3847 1.01198 1.63137 2.84814L2.57157 3.74592ZM1.63137 2.84814C-0.309741 4.88095 -0.464767 8.06871 1.41392 10.2047L2.39006 9.34608C0.978802 7.74158 1.07247 5.31585 2.57157 3.74592L1.63137 2.84814ZM9.1442 15.4512C9.06622 15.5194 9.00604 15.572 8.95335 15.6158C8.90056 15.6598 8.86678 15.6852 8.84407 15.7004C8.80426 15.7271 8.8449 15.691 8.92629 15.6908L8.92876 16.9908C9.19741 16.9903 9.4079 16.8874 9.56736 16.7806C9.70996 16.6851 9.86058 16.5517 10 16.4297L9.1442 15.4512ZM7.85574 16.4342C7.99553 16.5555 8.14658 16.6883 8.28951 16.7832C8.4494 16.8893 8.66021 16.9913 8.92876 16.9908L8.92629 15.6908C9.00757 15.6907 9.04834 15.7265 9.00859 15.7002C8.98587 15.6851 8.95205 15.6598 8.89915 15.6161C8.84635 15.5725 8.78603 15.5202 8.70786 15.4524L7.85574 16.4342Z" fill="#F16A6A"/>
</svg>
