<svg width="24" height="24" viewBox="0 0 24 24" fill="none" xmlns="http://www.w3.org/2000/svg">
<path d="M21.5694 2.43035L21.0373 2.95893L21.0411 2.96271L21.5694 2.43035ZM20.1395 2.05472L20.3428 2.77663L20.343 2.77657L20.1395 2.05472ZM3.06235 6.86467L2.859 6.14273L2.85233 6.14468L3.06235 6.86467ZM2.33459 7.34539L1.75474 6.8697L1.75474 6.8697L2.33459 7.34539ZM2.1902 9.005L1.53694 9.37344L1.53694 9.37344L2.1902 9.005ZM2.82402 9.60406L2.49288 10.2771L2.5037 10.2822L2.82402 9.60406ZM10.6797 13.3146L11.3577 12.994L11.2429 12.7512L11 12.6364L10.6797 13.3146ZM14.3921 21.1663L13.7141 21.4869L13.7155 21.4898L14.3921 21.1663ZM14.9318 21.7733L15.3324 21.1392L15.3324 21.1392L14.9318 21.7733ZM15.7121 22L15.7104 22.75H15.7121V22ZM15.8404 22V22.75H15.8692L15.8979 22.7478L15.8404 22ZM16.6545 21.6725L17.1308 22.2518L17.1308 22.2518L16.6545 21.6725ZM17.1329 20.9372L16.411 20.7338L16.4102 20.7365L17.1329 20.9372ZM21.9453 3.8596L21.2235 3.65587L21.2234 3.65617L21.9453 3.8596ZM21.9521 3.09381L22.6775 2.90308L22.6775 2.90307L21.9521 3.09381ZM10.229 12.7104C9.93091 12.998 9.92234 13.4728 10.2099 13.7709C10.4975 14.0691 10.9723 14.0776 11.2704 13.7901L10.229 12.7104ZM16.8748 8.38429C17.1729 8.09673 17.1815 7.62193 16.8939 7.3238C16.6064 7.02567 16.1316 7.01711 15.8334 7.30467L16.8748 8.38429ZM22.1015 1.90178C21.8241 1.62249 21.477 1.42248 21.0962 1.32246L20.7151 2.77324C20.8372 2.80531 20.9485 2.86944 21.0373 2.95892L22.1015 1.90178ZM21.0962 1.32246C20.7154 1.22244 20.3148 1.22603 19.9359 1.33286L20.343 2.77657C20.4645 2.74231 20.593 2.74116 20.7151 2.77324L21.0962 1.32246ZM19.9361 1.33281L2.85901 6.14276L3.26568 7.58658L20.3428 2.77663L19.9361 1.33281ZM2.85233 6.14468C2.42178 6.27027 2.03919 6.52296 1.75474 6.8697L2.91443 7.82108C3.00714 7.70807 3.13189 7.62564 3.27236 7.58467L2.85233 6.14468ZM1.75474 6.8697C1.47028 7.21645 1.29724 7.64106 1.25837 8.08787L2.75273 8.21788C2.76538 8.07239 2.82173 7.93408 2.91443 7.82108L1.75474 6.8697ZM1.25837 8.08787C1.2195 8.53469 1.31661 8.98279 1.53694 9.37344L2.84346 8.63656C2.77168 8.5093 2.74007 8.36337 2.75273 8.21788L1.25837 8.08787ZM1.53694 9.37344C1.75726 9.76409 2.0905 10.079 2.49292 10.277L3.15512 8.9311C3.02385 8.86652 2.91524 8.76383 2.84346 8.63656L1.53694 9.37344ZM2.5037 10.2822L10.3594 13.9928L11 12.6364L3.14434 8.9259L2.5037 10.2822ZM10.0016 13.6352L13.7141 21.4869L15.0701 20.8457L11.3577 12.994L10.0016 13.6352ZM13.7155 21.4898C13.8956 21.8664 14.1784 22.1845 14.5313 22.4074L15.3324 21.1392C15.2182 21.0671 15.1269 20.9643 15.0687 20.8427L13.7155 21.4898ZM14.5313 22.4074C14.8843 22.6303 15.293 22.7491 15.7104 22.75L15.7137 21.25C15.5787 21.2497 15.4465 21.2113 15.3324 21.1392L14.5313 22.4074ZM15.7121 22.75H15.8404V21.25H15.7121V22.75ZM15.8979 22.7478C16.3501 22.713 16.7805 22.5398 17.1308 22.2518L16.1781 21.0932C16.0659 21.1855 15.9279 21.2411 15.7828 21.2522L15.8979 22.7478ZM17.1308 22.2518C17.4811 21.9638 17.7341 21.5749 17.8555 21.1379L16.4102 20.7365C16.3714 20.8764 16.2904 21.0009 16.1781 21.0932L17.1308 22.2518ZM17.8547 21.1407L22.6671 4.06302L21.2234 3.65617L16.411 20.7338L17.8547 21.1407ZM22.6671 4.06332C22.774 3.68442 22.7776 3.28383 22.6775 2.90308L21.2268 3.28454C21.2588 3.4064 21.2577 3.53461 21.2235 3.65587L22.6671 4.06332ZM22.6775 2.90307C22.5774 2.52232 22.3772 2.17531 22.0977 1.898L21.0411 2.96271C21.1307 3.05155 21.1947 3.16267 21.2268 3.28454L22.6775 2.90307ZM11.2704 13.7901L16.8748 8.38429L15.8334 7.30467L10.229 12.7104L11.2704 13.7901Z" fill="#0D0D0D" fill-opacity="0.8"/>
</svg>
