<svg width="18" height="18" viewBox="0 0 18 18" fill="none" xmlns="http://www.w3.org/2000/svg">
<circle cx="9" cy="9" r="9" fill="#F0F0F0"/>
<path d="M8.90909 6.54545H9.72727M8.90909 8.18182H9.72727M5.63636 9.81818H9.72727M5.63636 11.4545H9.72727M11.3636 6.54545H13.2045C13.5433 6.54545 13.8182 6.82036 13.8182 7.15909V12.2727C13.8182 12.5982 13.6889 12.9104 13.4587 13.1405C13.2286 13.3707 12.9164 13.5 12.5909 13.5M11.3636 6.54545V12.2727C11.3636 12.5982 11.4929 12.9104 11.7231 13.1405C11.9533 13.3707 12.2654 13.5 12.5909 13.5M11.3636 6.54545V5.11364C11.3636 4.77491 11.0887 4.5 10.75 4.5H4.61364C4.27491 4.5 4 4.77491 4 5.11364V12.2727C4 12.5982 4.1293 12.9104 4.35946 13.1405C4.58962 13.3707 4.90178 13.5 5.22727 13.5H12.5909M5.63636 6.54545H7.27273V8.18182H5.63636V6.54545Z" stroke="#505050" stroke-linecap="round" stroke-linejoin="round"/>
</svg>
