<svg width="22" height="22" viewBox="0 0 22 22" fill="none" xmlns="http://www.w3.org/2000/svg">
<path d="M22 11C22 17.0751 17.0751 22 11 22C4.92487 22 0 17.0751 0 11C0 4.92487 4.92487 0 11 0C17.0751 0 22 4.92487 22 11Z" fill="#2199FC"/>
<path d="M11.0112 15.516C11.5019 15.516 11.9392 15.4093 12.3232 15.196C12.7072 14.972 13.0006 14.6787 13.2033 14.316C13.4166 13.9533 13.5233 13.564 13.5233 13.148C13.5233 12.732 13.4166 12.3427 13.2033 11.98C13.0006 11.6173 12.7072 11.3293 12.3232 11.116C11.9392 10.892 11.5019 10.78 11.0112 10.78C10.5099 10.78 10.0673 10.892 9.68325 11.116C9.29925 11.3293 9.00058 11.6173 8.78725 11.98C8.58458 12.3427 8.48325 12.732 8.48325 13.148C8.48325 13.564 8.58458 13.9533 8.78725 14.316C9.00058 14.6787 9.29925 14.972 9.68325 15.196C10.0673 15.4093 10.5099 15.516 11.0112 15.516ZM7.34725 13.148C7.34725 12.604 7.47525 12.1027 7.73125 11.644L11.7472 5.244L12.7393 5.852L10.2273 9.772C10.2806 9.76133 10.3713 9.74 10.4993 9.708C10.6273 9.676 10.7979 9.66 11.0112 9.66C11.6939 9.66 12.3126 9.81467 12.8673 10.124C13.4219 10.4333 13.8593 10.8547 14.1793 11.388C14.4993 11.9107 14.6593 12.4973 14.6593 13.148C14.6593 13.7987 14.4993 14.396 14.1793 14.94C13.8593 15.4733 13.4166 15.8947 12.8512 16.204C12.2966 16.5027 11.6832 16.652 11.0112 16.652C10.3286 16.652 9.70458 16.5027 9.13925 16.204C8.58458 15.8947 8.14725 15.4733 7.82725 14.94C7.50725 14.396 7.34725 13.7987 7.34725 13.148Z" fill="white"/>
</svg>
