<svg width="22" height="22" viewBox="0 0 22 22" fill="none" xmlns="http://www.w3.org/2000/svg">
<path d="M22 11C22 17.0751 17.0751 22 11 22C4.92487 22 0 17.0751 0 11C0 4.92487 4.92487 0 11 0C17.0751 0 22 4.92487 22 11Z" fill="#2199FC"/>
<path d="M11.2023 11.684C11.6929 11.684 12.1303 11.5773 12.5143 11.364C12.8983 11.14 13.1916 10.8467 13.3943 10.484C13.6076 10.1213 13.7143 9.732 13.7143 9.316C13.7143 8.9 13.6076 8.51067 13.3943 8.148C13.1916 7.78533 12.8983 7.49733 12.5143 7.284C12.1303 7.06 11.6929 6.948 11.2023 6.948C10.7116 6.948 10.2743 7.06 9.89028 7.284C9.50628 7.49733 9.20761 7.78533 8.99428 8.148C8.79162 8.51067 8.69028 8.9 8.69028 9.316C8.69028 9.732 8.79162 10.1213 8.99428 10.484C9.20761 10.8467 9.50628 11.14 9.89028 11.364C10.2743 11.5773 10.7116 11.684 11.2023 11.684ZM7.55428 9.316C7.55428 8.66533 7.71428 8.07333 8.03428 7.54C8.35428 6.996 8.79161 6.57467 9.34628 6.276C9.91161 5.96667 10.5356 5.812 11.2183 5.812C11.8903 5.812 12.5036 5.96667 13.0583 6.276C13.6129 6.57467 14.0503 6.996 14.3703 7.54C14.6903 8.07333 14.8503 8.66533 14.8503 9.316C14.8503 9.88133 14.7276 10.3773 14.4823 10.804L10.4823 17.172L9.49028 16.58L11.9703 12.692C11.8423 12.724 11.7196 12.7507 11.6023 12.772C11.4956 12.7827 11.3676 12.788 11.2183 12.788C10.5356 12.788 9.91695 12.6387 9.36228 12.34C8.80762 12.0413 8.36495 11.6307 8.03428 11.108C7.71428 10.5747 7.55428 9.97733 7.55428 9.316Z" fill="white"/>
</svg>
