<svg width="22" height="22" viewBox="0 0 22 22" fill="none" xmlns="http://www.w3.org/2000/svg">
<path d="M22 11C22 17.0751 17.0751 22 11 22C4.92487 22 0 17.0751 0 11C0 4.92487 4.92487 0 11 0C17.0751 0 22 4.92487 22 11Z" fill="#2199FC"/>
<path d="M11.0351 9.768C11.6751 9.768 12.2724 9.93333 12.8271 10.264C13.3817 10.5947 13.8244 11.0373 14.1551 11.592C14.4857 12.1467 14.6511 12.744 14.6511 13.384C14.6511 14.056 14.4857 14.664 14.1551 15.208C13.8351 15.752 13.3977 16.1787 12.8431 16.488C12.2991 16.7973 11.7071 16.952 11.0671 16.952C10.4057 16.952 9.7444 16.792 9.08306 16.472C8.4324 16.152 7.93106 15.7253 7.57906 15.192C7.5044 15.096 7.42973 14.9787 7.35506 14.84L8.34706 14.296L8.53906 14.584C8.7844 14.936 9.14173 15.2293 9.61106 15.464C10.0911 15.6987 10.5764 15.816 11.0671 15.816C11.5151 15.816 11.9257 15.7093 12.2991 15.496C12.6831 15.272 12.9817 14.9787 13.1951 14.616C13.4191 14.2427 13.5311 13.832 13.5311 13.384C13.5311 12.904 13.4191 12.4773 13.1951 12.104C12.9711 11.72 12.6671 11.4213 12.2831 11.208C11.9097 10.9947 11.5044 10.888 11.0671 10.888C10.6937 10.888 10.3097 10.968 9.91506 11.128C9.53106 11.2773 9.20573 11.4747 8.93906 11.72L8.13906 11.256L8.28306 5.624H14.0111V6.696H9.38706L9.29106 10.168C9.8244 9.90133 10.4057 9.768 11.0351 9.768Z" fill="white"/>
</svg>
