<svg width="22" height="22" viewBox="0 0 22 22" fill="none" xmlns="http://www.w3.org/2000/svg">
<path d="M22 11C22 17.0751 17.0751 22 11 22C4.92487 22 0 17.0751 0 11C0 4.92487 4.92487 0 11 0C17.0751 0 22 4.92487 22 11Z" fill="#2199FC"/>
<path d="M7.59056 15.14L12.5986 9.716C12.6306 9.67333 12.6839 9.59867 12.7586 9.492C12.8439 9.38533 12.9079 9.28933 12.9506 9.204C13.0786 8.92667 13.1426 8.644 13.1426 8.356C13.1426 7.95067 13.0199 7.57733 12.7746 7.236C12.5399 6.884 12.2092 6.612 11.7826 6.42C11.4626 6.28133 11.1212 6.212 10.7586 6.212C10.2999 6.212 9.88923 6.33467 9.52656 6.58C9.17456 6.81467 8.91856 7.16133 8.75856 7.62L7.54256 7.476C7.74523 6.708 8.14523 6.12133 8.74256 5.716C9.3399 5.31067 10.0172 5.108 10.7746 5.108C11.2866 5.108 11.7879 5.20933 12.2786 5.412C12.8972 5.668 13.3826 6.068 13.7346 6.612C14.0972 7.14533 14.2786 7.732 14.2786 8.372C14.2786 8.84133 14.1879 9.28933 14.0066 9.716C13.7826 10.1213 13.5799 10.4147 13.3986 10.596L9.19056 15.14H14.4546V16.26H7.59056V15.14Z" fill="white"/>
</svg>
