<svg width="22" height="22" viewBox="0 0 22 22" fill="none" xmlns="http://www.w3.org/2000/svg">
<path d="M22 11C22 17.0751 17.0751 22 11 22C4.92487 22 0 17.0751 0 11C0 4.92487 4.92487 0 11 0C17.0751 0 22 4.92487 22 11Z" fill="#2199FC"/>
<path d="M7.66331 17.024H6.55931V7.12L4.87931 8.032L4.38331 7.04L6.55931 5.824H7.66331V17.024Z" fill="white"/>
<path d="M15.7762 14.816C16.0215 14.432 16.1762 13.9947 16.2402 13.504C16.3149 13.0027 16.3522 12.304 16.3522 11.408C16.3522 10.5227 16.3149 9.83467 16.2402 9.344C16.1762 8.85333 16.0215 8.416 15.7762 8.032C15.6162 7.70133 15.3655 7.41867 15.0242 7.184C14.6829 6.94933 14.2242 6.832 13.6482 6.832C13.0722 6.832 12.6135 6.94933 12.2722 7.184C11.9309 7.408 11.6802 7.68533 11.5202 8.016C11.2749 8.41067 11.1149 8.85333 11.0402 9.344C10.9762 9.83467 10.9442 10.5227 10.9442 11.408C10.9442 12.2933 10.9762 12.9867 11.0402 13.488C11.1149 13.9787 11.2749 14.416 11.5202 14.8C11.6802 15.1307 11.9255 15.4133 12.2562 15.648C12.5975 15.8827 13.0615 16 13.6482 16C14.2242 16 14.6829 15.888 15.0242 15.664C15.3655 15.4293 15.6162 15.1467 15.7762 14.816ZM9.80819 11.408C9.80819 10.48 9.84552 9.728 9.92019 9.152C10.0055 8.56533 10.1975 8.016 10.4962 7.504C10.7415 7.01333 11.1255 6.592 11.6482 6.24C12.1709 5.87733 12.8375 5.696 13.6482 5.696C14.4695 5.696 15.1362 5.87733 15.6482 6.24C16.1602 6.592 16.5495 7.01333 16.8162 7.504C17.1149 8.016 17.3015 8.56 17.3762 9.136C17.4509 9.70133 17.4882 10.4587 17.4882 11.408C17.4882 12.3787 17.4509 13.152 17.3762 13.728C17.3015 14.2933 17.1149 14.832 16.8162 15.344C16.5495 15.8347 16.1602 16.2613 15.6482 16.624C15.1362 16.976 14.4695 17.152 13.6482 17.152C12.8375 17.152 12.1709 16.9707 11.6482 16.608C11.1362 16.2453 10.7522 15.824 10.4962 15.344C10.1975 14.832 10.0055 14.2827 9.92019 13.696C9.84552 13.1093 9.80819 12.3467 9.80819 11.408Z" fill="white"/>
</svg>
