<svg width="22" height="22" viewBox="0 0 22 22" fill="none" xmlns="http://www.w3.org/2000/svg">
<path d="M22 11C22 17.0751 17.0751 22 11 22C4.92487 22 0 17.0751 0 11C0 4.92487 4.92487 0 11 0C17.0751 0 22 4.92487 22 11Z" fill="#2199FC"/>
<path d="M12.9729 10.732C13.4849 11.0307 13.9009 11.4093 14.2209 11.868C14.5516 12.3267 14.7169 12.8227 14.7169 13.356C14.7169 13.964 14.5463 14.5187 14.2049 15.02C13.8636 15.5213 13.4049 15.916 12.8289 16.204C12.2529 16.4813 11.6396 16.62 10.9889 16.62C10.3383 16.62 9.72494 16.4813 9.14894 16.204C8.5836 15.916 8.13027 15.5213 7.78894 15.02C7.4476 14.5187 7.27694 13.964 7.27694 13.356H8.42894C8.42894 13.708 8.5356 14.0493 8.74894 14.38C8.97294 14.7107 9.27694 14.9773 9.66094 15.18C10.0556 15.3827 10.4983 15.484 10.9889 15.484C11.4796 15.484 11.9223 15.3827 12.3169 15.18C12.7116 14.9773 13.0209 14.716 13.2449 14.396C13.4689 14.0653 13.5809 13.724 13.5809 13.372C13.5809 12.7853 13.3676 12.2893 12.9409 11.884C12.5249 11.4787 11.8849 11.276 11.0209 11.276H10.1729V10.156H11.0209C11.7783 10.156 12.3703 9.96933 12.7969 9.596C13.2236 9.22267 13.4369 8.77467 13.4369 8.252C13.4369 7.94267 13.3356 7.644 13.1329 7.356C12.9303 7.05733 12.6476 6.81733 12.2849 6.636C11.9329 6.444 11.5329 6.348 11.0849 6.348C10.6369 6.348 10.2316 6.43867 9.86894 6.62C9.51694 6.80133 9.2396 7.04133 9.03694 7.34C8.84494 7.63867 8.74894 7.95333 8.74894 8.284H7.59694C7.59694 7.71867 7.75694 7.20133 8.07694 6.732C8.4076 6.26267 8.8396 5.89467 9.37294 5.628C9.90627 5.36133 10.4769 5.228 11.0849 5.228C11.6929 5.228 12.2636 5.36133 12.7969 5.628C13.3303 5.89467 13.7569 6.26267 14.0769 6.732C14.3969 7.19067 14.5569 7.708 14.5569 8.284C14.5569 8.764 14.4076 9.21733 14.1089 9.644C13.8209 10.0707 13.4423 10.4333 12.9729 10.732Z" fill="white"/>
</svg>
