<svg width="22" height="22" viewBox="0 0 22 22" fill="none" xmlns="http://www.w3.org/2000/svg">
<path d="M22 11C22 17.0751 17.0751 22 11 22C4.92487 22 0 17.0751 0 11C0 4.92487 4.92487 0 11 0C17.0751 0 22 4.92487 22 11Z" fill="#2199FC"/>
<path d="M10.9979 15.832C11.4885 15.832 11.9312 15.7307 12.3259 15.528C12.7312 15.3253 13.0459 15.0587 13.2699 14.728C13.4939 14.3973 13.6059 14.0507 13.6059 13.688C13.6059 13.3253 13.4939 12.984 13.2699 12.664C13.0459 12.3333 12.7312 12.0667 12.3259 11.864C11.9312 11.6613 11.4885 11.56 10.9979 11.56C10.5072 11.56 10.0592 11.6613 9.65388 11.864C9.25921 12.0667 8.94454 12.3333 8.70988 12.664C8.48588 12.984 8.37387 13.3253 8.37387 13.688C8.37387 14.0507 8.48588 14.3973 8.70988 14.728C8.93388 15.0587 9.24854 15.3253 9.65388 15.528C10.0592 15.7307 10.5072 15.832 10.9979 15.832ZM7.23787 13.656C7.23787 13.1013 7.39254 12.5893 7.70188 12.12C8.01121 11.64 8.42721 11.256 8.94987 10.968C8.52321 10.6907 8.18188 10.344 7.92588 9.928C7.66988 9.512 7.54187 9.064 7.54187 8.584C7.54187 8.01867 7.70188 7.50667 8.02188 7.048C8.34188 6.57867 8.76854 6.21067 9.30188 5.944C9.83521 5.67733 10.4005 5.544 10.9979 5.544C11.5952 5.544 12.1605 5.67733 12.6939 5.944C13.2272 6.21067 13.6539 6.57867 13.9739 7.048C14.3045 7.50667 14.4699 8.01867 14.4699 8.584C14.4699 9.064 14.3419 9.512 14.0859 9.928C13.8299 10.344 13.4885 10.6907 13.0619 10.968C13.5739 11.256 13.9845 11.64 14.2939 12.12C14.6032 12.5893 14.7579 13.1013 14.7579 13.656C14.7579 14.2747 14.5819 14.84 14.2299 15.352C13.8885 15.8533 13.4299 16.248 12.8539 16.536C12.2779 16.824 11.6592 16.968 10.9979 16.968C10.3365 16.968 9.71788 16.824 9.14188 16.536C8.56588 16.248 8.10188 15.8533 7.74988 15.352C7.40854 14.84 7.23787 14.2747 7.23787 13.656ZM8.69388 8.552C8.69388 8.872 8.78988 9.176 8.98188 9.464C9.18454 9.752 9.46187 9.98667 9.81388 10.168C10.1659 10.3387 10.5605 10.424 10.9979 10.424C11.4352 10.424 11.8299 10.3387 12.1819 10.168C12.5445 9.98667 12.8219 9.752 13.0139 9.464C13.2165 9.176 13.3179 8.872 13.3179 8.552C13.3179 8.232 13.2165 7.928 13.0139 7.64C12.8219 7.352 12.5445 7.12267 12.1819 6.952C11.8299 6.77067 11.4352 6.68 10.9979 6.68C10.5605 6.68 10.1659 6.77067 9.81388 6.952C9.46187 7.12267 9.18454 7.352 8.98188 7.64C8.78988 7.928 8.69388 8.232 8.69388 8.552Z" fill="white"/>
</svg>
