<svg width="112" height="20" viewBox="0 0 112 20" fill="none" xmlns="http://www.w3.org/2000/svg">
<path d="M6.64199 10.7996C8.79579 10.7996 10.5418 9.05361 10.5418 6.8998C10.5418 4.746 8.79579 3 6.64199 3C4.48819 3 2.74219 4.746 2.74219 6.8998C2.74219 9.05361 4.48819 10.7996 6.64199 10.7996Z" stroke="white" stroke-opacity="0.7" stroke-width="1.5" stroke-linecap="round" stroke-linejoin="round"/>
<path d="M1 16.0005C1 14.2673 2.29993 10.8008 6.63305 10.8008C10.9662 10.8008 12.2661 14.2673 12.2661 16.0005" stroke="white" stroke-opacity="0.7" stroke-width="1.5" stroke-linecap="round" stroke-linejoin="round"/>
<path d="M20.8616 4.472V6.068H25.6686C25.4026 9.526 23.8446 12.338 20.1396 14.485L21.2796 15.872C26.1056 13.098 27.6066 9.051 27.6066 4.472H20.8616ZM32.9646 2.306V9.013H31.0076V2.762H29.1646V18.665H31.0076V10.609H32.9646V19.463H34.8266V2.306H32.9646ZM51.8491 2.306H49.8921V14.77H51.8491V2.306ZM39.9551 7.74C39.9551 6.163 41.0761 5.137 42.5961 5.137C44.0971 5.137 45.2371 6.163 45.2371 7.74C45.2371 9.298 44.0971 10.343 42.5961 10.343C41.0761 10.343 39.9551 9.298 39.9551 7.74ZM47.1371 7.74C47.1371 5.232 45.1801 3.446 42.5961 3.446C40.0121 3.446 38.0361 5.232 38.0361 7.74C38.0361 10.229 40.0121 12.034 42.5961 12.034C45.1801 12.034 47.1371 10.229 47.1371 7.74ZM42.6151 17.544V13.516H40.6391V19.14H52.3431V17.544H42.6151ZM60.3712 4.016V5.612H66.1852C66.1282 6.562 65.9572 7.455 65.7292 8.31L59.4782 8.69L59.7632 10.362L65.1212 9.868C64.1142 11.977 62.3092 13.763 59.4022 15.245L60.4662 16.765C66.5652 13.649 68.1422 9.127 68.1422 4.016H60.3712ZM71.6952 2.306V9.051H68.0852V10.666H71.6952V19.482H73.6712V2.306H71.6952ZM79.8828 10.191H85.8678V3.826H77.8688V5.422H83.8918V8.614H77.9068V15.416H79.3698C82.3908 15.416 84.9558 15.321 87.9008 14.808L87.6918 13.212C84.9748 13.649 82.5998 13.782 79.8828 13.801V10.191ZM89.1168 2.268V19.501H91.0928V2.268H89.1168ZM99.0333 13.915C97.5703 13.915 96.5633 12.319 96.5633 9.602C96.5633 6.942 97.5703 5.327 99.0333 5.327C100.515 5.327 101.522 6.942 101.522 9.602C101.522 12.319 100.515 13.915 99.0333 13.915ZM106.69 2.287V8.69H103.346C103.08 5.536 101.332 3.56 99.0333 3.56C96.5063 3.56 94.7013 5.916 94.7013 9.602C94.7013 13.326 96.5063 15.663 99.0333 15.663C101.389 15.663 103.137 13.611 103.365 10.286H106.69V19.501H108.666V2.287H106.69Z" fill="white" fill-opacity="0.7"/>
</svg>
