<svg width="34" height="34" viewBox="0 0 34 34" fill="none" xmlns="http://www.w3.org/2000/svg">
<path d="M33 17C33 25.8366 25.8366 33 17 33C8.16344 33 1 25.8366 1 17C1 8.16344 8.16344 1 17 1C25.8366 1 33 8.16344 33 17Z" fill="#2199FC"/>
<path d="M13.8976 22.2258H22.0266V14.0968C22.0266 12.814 20.9867 11.7742 19.704 11.7742H11.575V19.9032C11.575 21.186 12.6148 22.2258 13.8976 22.2258Z" fill="#2199FC"/>
<path d="M25.8008 22.2258H22.0266M22.0266 22.2258H13.8976C12.6148 22.2258 11.575 21.186 11.575 19.9032V11.7742M22.0266 22.2258V14.0968C22.0266 12.814 20.9867 11.7742 19.704 11.7742H11.575M22.0266 22.2258V26M11.575 11.7742V8M11.575 11.7742H7.80078M33 17C33 25.8366 25.8366 33 17 33C8.16344 33 1 25.8366 1 17C1 8.16344 8.16344 1 17 1C25.8366 1 33 8.16344 33 17Z" stroke="white" stroke-width="1.5"/>
</svg>
