<svg width="28" height="28" viewBox="0 0 28 28" fill="none" xmlns="http://www.w3.org/2000/svg">
<path d="M16.7441 20.8782L17.1546 20.3742L16.7441 20.8782ZM11.2524 20.8782L10.8419 20.3742L11.2524 20.8782ZM10.5021 21.4892L10.9126 21.9933L10.5021 21.4892ZM17.4944 21.4892L17.084 21.9933L17.4944 21.4892ZM11.776 4.65H16.2205V3.35H11.776V4.65ZM22.2372 10.9098V18.7726H23.5372V10.9098H22.2372ZM5.75937 18.7726V10.9098H4.45938V18.7726H5.75937ZM17.9049 20.9852L17.1546 20.3742L16.3337 21.3822L17.084 21.9933L17.9049 20.9852ZM10.8419 20.3742L10.0917 20.9852L10.9126 21.9933L11.6628 21.3823L10.8419 20.3742ZM17.1546 20.3742C16.508 19.8477 15.9785 19.415 15.5118 19.1207C15.0305 18.8173 14.5519 18.618 13.9983 18.618V19.918C14.2132 19.918 14.4485 19.9871 14.8184 20.2204C15.2029 20.4628 15.662 20.8353 16.3337 21.3822L17.1546 20.3742ZM11.6628 21.3823C12.3345 20.8353 12.7936 20.4628 13.1781 20.2204C13.5481 19.9871 13.7833 19.918 13.9983 19.918V18.618C13.4447 18.618 12.966 18.8173 12.4847 19.1207C12.018 19.415 11.4885 19.8477 10.8419 20.3742L11.6628 21.3823ZM4.45938 18.7726C4.45938 20.2963 4.45779 21.5109 4.58301 22.3988C4.70633 23.2735 4.98277 24.0719 5.75505 24.4609L6.33991 23.2999C6.17408 23.2164 5.98147 23.0059 5.87027 22.2173C5.76096 21.4421 5.75937 20.339 5.75937 18.7726H4.45938ZM10.0917 20.9852C8.902 21.954 8.06722 22.6316 7.41525 23.0193C6.75543 23.4116 6.49513 23.3781 6.33991 23.2999L5.75505 24.4609C6.53793 24.8553 7.33277 24.5808 8.07966 24.1367C8.83439 23.6879 9.75787 22.9336 10.9126 21.9933L10.0917 20.9852ZM22.2372 18.7726C22.2372 20.339 22.2356 21.4421 22.1263 22.2173C22.0151 23.0059 21.8224 23.2164 21.6566 23.2999L22.2415 24.4609C23.0138 24.0719 23.2902 23.2735 23.4135 22.3988C23.5387 21.5109 23.5372 20.2963 23.5372 18.7726H22.2372ZM17.084 21.9933C18.2387 22.9336 19.1621 23.6879 19.9169 24.1367C20.6638 24.5808 21.4586 24.8553 22.2415 24.4609L21.6566 23.2999C21.5014 23.3781 21.2411 23.4116 20.5813 23.0193C19.9293 22.6316 19.0945 21.954 17.9049 20.9852L17.084 21.9933ZM16.2205 4.65C17.8109 4.65 18.9359 4.65148 19.7883 4.77027C20.6196 4.88611 21.0948 5.10222 21.4431 5.46323L22.3786 4.56059C21.7506 3.90969 20.9519 3.61985 19.9678 3.48271C19.0048 3.34852 17.7728 3.35 16.2205 3.35V4.65ZM23.5372 10.9098C23.5372 9.29886 23.5384 8.02756 23.4097 7.0352C23.2789 6.02645 23.0035 5.20823 22.3786 4.56059L21.4431 5.46323C21.7945 5.8275 22.0073 6.32955 22.1205 7.20243C22.2359 8.09169 22.2372 9.26336 22.2372 10.9098H23.5372ZM11.776 3.35C10.2237 3.35 8.99174 3.34852 8.02876 3.48271C7.04462 3.61985 6.24591 3.90969 5.61791 4.56059L6.55346 5.46323C6.90177 5.10222 7.37689 4.88611 8.20818 4.77027C9.06062 4.65148 10.1857 4.65 11.776 4.65V3.35ZM5.75937 10.9098C5.75937 9.26336 5.76066 8.09169 5.87601 7.20243C5.98924 6.32955 6.20201 5.8275 6.55346 5.46323L5.61791 4.56059C4.99305 5.20823 4.71767 6.02645 4.58681 7.0352C4.45809 8.02756 4.45938 9.29886 4.45938 10.9098H5.75937Z" fill="#505050"/>
</svg>
