<svg width="28" height="28" viewBox="0 0 28 28" fill="none" xmlns="http://www.w3.org/2000/svg">
<path d="M13.4019 7.12909L12.5464 6.50175C10.2049 4.78463 6.95291 5.07109 4.94763 7.1711C2.68999 9.5354 2.52679 13.2193 4.68581 15.6739C5.40896 16.4961 6.14963 17.3125 6.81676 18C8.81511 20.0594 11.9249 22.7882 13.2614 23.9444C13.5673 24.2091 13.7202 24.3414 13.9071 24.341C14.0939 24.3406 14.2464 24.2076 14.5514 23.9416C15.8826 22.7805 18.9821 20.0441 20.9986 18C21.6475 17.3422 22.3685 16.5693 23.0792 15.7869C25.3438 13.294 25.1709 9.47577 22.7896 7.09404C20.8083 5.11233 17.689 4.84212 15.3964 6.45358L14.4208 7.13932C14.1141 7.35487 13.7042 7.35075 13.4019 7.12909Z" fill="#F16A6A"/>
<path d="M12.5464 6.50175L12.162 7.02591L12.5464 6.50175ZM13.4019 7.12909L13.7863 6.60493L13.7863 6.60493L13.4019 7.12909ZM14.4208 7.13932L14.7946 7.6711L14.7946 7.6711L14.4208 7.13932ZM15.3964 6.45358L15.0226 5.92181L15.3964 6.45358ZM23.0792 15.7869L22.5981 15.3499V15.3499L23.0792 15.7869ZM20.9986 18L21.4613 18.4565L20.9986 18ZM14.5514 23.9416L14.9787 24.4314H14.9787L14.5514 23.9416ZM13.2614 23.9444L12.8362 24.436L12.8362 24.436L13.2614 23.9444ZM6.81676 18L7.28325 17.5474H7.28325L6.81676 18ZM4.68581 15.6739L5.17388 15.2446H5.17388L4.68581 15.6739ZM22.7896 7.09404L23.2493 6.63446L22.7896 7.09404ZM4.94763 7.1711L4.47753 6.72221V6.72221L4.94763 7.1711ZM13.9071 24.341L13.9084 24.991L13.9071 24.341ZM12.162 7.02591L13.0175 7.65325L13.7863 6.60493L12.9308 5.97758L12.162 7.02591ZM14.7946 7.6711L15.7702 6.98536L15.0226 5.92181L14.047 6.60755L14.7946 7.6711ZM22.5981 15.3499C21.8905 16.1289 21.1761 16.8945 20.5359 17.5435L21.4613 18.4565C22.1189 17.7899 22.8465 17.0098 23.5604 16.224L22.5981 15.3499ZM20.5359 17.5435C18.5387 19.5679 15.4567 22.2895 14.1242 23.4517L14.9787 24.4314C16.3086 23.2715 19.4254 20.5202 21.4613 18.4565L20.5359 17.5435ZM13.6867 23.4529C12.3486 22.2953 9.2592 19.5837 7.28325 17.5474L6.35027 18.4526C8.37102 20.5352 11.5012 23.2811 12.8362 24.436L13.6867 23.4529ZM7.28325 17.5474C6.62643 16.8705 5.89352 16.0628 5.17388 15.2446L4.19774 16.1032C4.9244 16.9294 5.67282 17.7545 6.35028 18.4526L7.28325 17.5474ZM22.3299 7.55362C24.4771 9.70117 24.619 13.1251 22.5981 15.3499L23.5604 16.224C26.0685 13.4628 25.8647 9.25038 23.2493 6.63446L22.3299 7.55362ZM15.7702 6.98536C17.8043 5.55556 20.572 5.79531 22.3299 7.55362L23.2493 6.63446C21.0446 4.42936 17.5737 4.12868 15.0226 5.92181L15.7702 6.98536ZM13.0175 7.65325C13.5447 8.03986 14.2597 8.04704 14.7946 7.6711L14.047 6.60754C13.9685 6.66271 13.8636 6.66165 13.7863 6.60493L13.0175 7.65325ZM5.41773 7.62C7.19752 5.75613 10.0838 5.50188 12.162 7.02591L12.9308 5.97758C10.326 4.06738 6.7083 4.38605 4.47753 6.72221L5.41773 7.62ZM4.47753 6.72221C1.99889 9.31795 1.805 13.3828 4.19774 16.1032L5.17388 15.2446C3.24857 13.0557 3.3811 9.75285 5.41773 7.62L4.47753 6.72221ZM14.1242 23.4517C14.0462 23.5198 13.9859 23.5722 13.9332 23.616C13.8804 23.6598 13.8466 23.6852 13.8238 23.7004C13.7838 23.7272 13.8244 23.6911 13.9058 23.691L13.9084 24.991C14.1766 24.9904 14.3869 24.8877 14.546 24.7814C14.6885 24.6862 14.8391 24.5531 14.9787 24.4314L14.1242 23.4517ZM12.8362 24.436C12.9761 24.5571 13.1272 24.6894 13.27 24.784C13.4296 24.8897 13.6402 24.9915 13.9084 24.991L13.9058 23.691C13.9871 23.6908 14.0278 23.7266 13.9878 23.7001C13.965 23.6851 13.9311 23.6598 13.8782 23.6162C13.8253 23.5727 13.7649 23.5205 13.6867 23.4529L12.8362 24.436Z" fill="#F16A6A"/>
</svg>
