<svg width="29" height="29" viewBox="0 0 29 29" fill="none" xmlns="http://www.w3.org/2000/svg">
<circle cx="14.4375" cy="14.9375" r="14.0625" fill="white"/>
<path d="M6.52734 13.0495C6.52734 12.1495 7.25693 11.4199 8.15693 11.4199V11.4199C8.77417 11.4199 9.33843 11.0712 9.61447 10.5191L10.3359 9.07617C10.3679 9.01217 10.3839 8.98017 10.3998 8.95099C10.7382 8.3269 11.382 7.92896 12.0916 7.9054C12.1247 7.9043 12.1605 7.9043 12.2321 7.9043H16.6429C16.7145 7.9043 16.7503 7.9043 16.7834 7.9054C17.493 7.92896 18.1368 8.3269 18.4752 8.95099C18.4911 8.98017 18.5071 9.01217 18.5391 9.07617L19.2605 10.5191C19.5366 11.0712 20.1008 11.4199 20.7181 11.4199V11.4199C21.6181 11.4199 22.3477 12.1495 22.3477 13.0495V17.4467C22.3477 18.8634 22.3477 19.5717 22.1132 20.1294C21.8091 20.8528 21.2337 21.4283 20.5103 21.7324C19.9526 21.9668 19.2443 21.9668 17.8276 21.9668H11.0474C9.63074 21.9668 8.9224 21.9668 8.36473 21.7324C7.64133 21.4283 7.06589 20.8528 6.76178 20.1294C6.52734 19.5717 6.52734 18.8634 6.52734 17.4467V13.0495Z" stroke="#2F2F2F" stroke-width="1.2"/>
<circle cx="14.4375" cy="15.8145" r="2.91563" stroke="#2F2F2F" stroke-width="1.2"/>
</svg>
