<svg width="24" height="24" viewBox="0 0 24 24" fill="none" xmlns="http://www.w3.org/2000/svg">
<rect width="24" height="24" fill="white"/>
<path fill-rule="evenodd" clip-rule="evenodd" d="M16.3237 7.26933C16.5514 7.02832 16.691 6.70321 16.691 6.34549C16.691 5.60239 16.0886 5 15.3455 5C14.6024 5 14 5.60239 14 6.34549C14 6.92702 14.3689 7.42238 14.8855 7.61029L14.371 8.54116C14.2819 8.69733 14.36 8.85192 14.5789 8.93717C14.7947 9.03362 14.9932 9.02871 15.1167 8.858L16.3237 7.26933Z" fill="#263238"/>
<path fill-rule="evenodd" clip-rule="evenodd" d="M19.6147 7.26933C19.8424 7.02832 19.982 6.70321 19.982 6.34549C19.982 5.60239 19.3796 5 18.6365 5C17.8934 5 17.291 5.60239 17.291 6.34549C17.291 6.92702 17.6599 7.42238 18.1765 7.61029L17.662 8.54116C17.5729 8.69733 17.6511 8.85192 17.8699 8.93717C18.0857 9.03362 18.2842 9.02871 18.4077 8.858L19.6147 7.26933Z" fill="#263238"/>
<path fill-rule="evenodd" clip-rule="evenodd" d="M7.67632 16.7307C7.44863 16.9717 7.30903 17.2968 7.30903 17.6545C7.30903 18.3976 7.91142 19 8.65451 19C9.39761 19 10 18.3976 10 17.6545C10 17.073 9.63107 16.5776 9.1145 16.3897L9.62902 15.4588C9.71813 15.3027 9.63995 15.1481 9.42108 15.0628C9.20533 14.9664 9.00678 14.9713 8.88329 15.142L7.67632 16.7307Z" fill="#263238"/>
<path fill-rule="evenodd" clip-rule="evenodd" d="M4.38531 16.7307C4.15761 16.9717 4.01801 17.2968 4.01801 17.6545C4.01801 18.3976 4.62041 19 5.3635 19C6.10659 19 6.70898 18.3976 6.70898 17.6545C6.70898 17.073 6.34006 16.5776 5.82348 16.3897L6.33801 15.4588C6.42711 15.3027 6.34894 15.1481 6.13006 15.0628C5.91432 14.9664 5.71577 14.9713 5.59227 15.142L4.38531 16.7307Z" fill="#263238"/>
</svg>
