<svg width="24" height="24" viewBox="0 0 24 24" fill="none" xmlns="http://www.w3.org/2000/svg">
<path d="M11.893 16.8195C12.1113 16.6503 12.151 16.3363 11.9818 16.118C11.8126 15.8998 11.4985 15.86 11.2803 16.0292L11.893 16.8195ZM10.4584 19.6148C10.5831 19.8612 10.8839 19.9598 11.1303 19.835C11.3767 19.7103 11.4753 19.4095 11.3505 19.1631L10.4584 19.6148ZM10.0842 17.5893L9.77781 17.1942L10.0842 17.5893ZM11.2803 16.0292L9.77781 17.1942L10.3905 17.9845L11.893 16.8195L11.2803 16.0292ZM9.61014 17.9393L10.4584 19.6148L11.3505 19.1631L10.5023 17.4877L9.61014 17.9393ZM9.77781 17.1942C9.55061 17.3703 9.48029 17.6829 9.61014 17.9393L10.5023 17.4877C10.5889 17.6587 10.542 17.867 10.3905 17.9845L9.77781 17.1942Z" fill="#263238"/>
<path d="M5.93782 14.5C5.14475 13.1264 4.84171 11.5241 5.07833 9.95573C5.31495 8.38734 6.07722 6.94581 7.24024 5.86729C8.40327 4.78877 9.8981 4.13721 11.4798 4.01935C13.0616 3.90149 14.6365 4.32432 15.9465 5.21856C17.2565 6.1128 18.224 7.42544 18.6905 8.94144C19.1569 10.4574 19.0947 12.0869 18.5139 13.5629C17.9332 15.0389 16.8684 16.2739 15.494 17.0656C14.1196 17.8573 12.517 18.1588 10.9489 17.9206" stroke="#263238" stroke-width="1.2" stroke-linecap="round"/>
</svg>
