<svg width="16" height="16" viewBox="0 0 16 16" fill="none" xmlns="http://www.w3.org/2000/svg">
<path d="M1.75 1C1.75 0.585786 1.41421 0.25 1 0.25C0.585786 0.25 0.25 0.585786 0.25 1H1.75ZM15.5303 10.5303C15.8232 10.2374 15.8232 9.76256 15.5303 9.46967L10.7574 4.6967C10.4645 4.40381 9.98959 4.40381 9.6967 4.6967C9.40381 4.98959 9.40381 5.46447 9.6967 5.75736L13.9393 10L9.6967 14.2426C9.40381 14.5355 9.40381 15.0104 9.6967 15.3033C9.98959 15.5962 10.4645 15.5962 10.7574 15.3033L15.5303 10.5303ZM0.25 1V2H1.75V1H0.25ZM9 10.75H15V9.25H9V10.75ZM0.25 2C0.25 6.83249 4.16751 10.75 9 10.75V9.25C4.99594 9.25 1.75 6.00406 1.75 2H0.25Z" fill="#5A5A5A" fill-opacity="0.5"/>
</svg>
