<svg width="18" height="18" viewBox="0 0 18 18" fill="none" xmlns="http://www.w3.org/2000/svg">
<path d="M1.65 4C1.65 3.64101 1.35898 3.35 1 3.35C0.641014 3.35 0.35 3.64101 0.35 4H1.65ZM17.4596 13.4596C17.7135 13.2058 17.7135 12.7942 17.4596 12.5404L13.323 8.40381C13.0692 8.14997 12.6576 8.14997 12.4038 8.40381C12.15 8.65765 12.15 9.0692 12.4038 9.32304L16.0808 13L12.4038 16.677C12.15 16.9308 12.15 17.3424 12.4038 17.5962C12.6576 17.85 13.0692 17.85 13.323 17.5962L17.4596 13.4596ZM0.35 4V5H1.65V4H0.35ZM9 13.65H17V12.35H9V13.65ZM0.35 5C0.35 9.77726 4.22274 13.65 9 13.65V12.35C4.94071 12.35 1.65 9.05929 1.65 5H0.35Z" fill="#C1C1C1"/>
</svg>
