<svg width="16" height="18" viewBox="0 0 16 18" fill="none" xmlns="http://www.w3.org/2000/svg">
<path d="M1.75 3C1.75 2.58579 1.41421 2.25 1 2.25C0.585787 2.25 0.25 2.58579 0.25 3H1.75ZM15.5303 12.5303C15.8232 12.2374 15.8232 11.7626 15.5303 11.4697L10.7574 6.6967C10.4645 6.40381 9.98959 6.40381 9.6967 6.6967C9.40381 6.98959 9.40381 7.46447 9.6967 7.75736L13.9393 12L9.6967 16.2426C9.40381 16.5355 9.40381 17.0104 9.6967 17.3033C9.98959 17.5962 10.4645 17.5962 10.7574 17.3033L15.5303 12.5303ZM0.25 3V4H1.75V3H0.25ZM9 12.75H15V11.25H9V12.75ZM0.25 4C0.25 8.83249 4.16751 12.75 9 12.75V11.25C4.99594 11.25 1.75 8.00406 1.75 4H0.25Z" fill="#5A5A5A" fill-opacity="0.5"/>
</svg>
