<svg width="20" height="22" viewBox="0 0 20 22" fill="none" xmlns="http://www.w3.org/2000/svg">
<path d="M8.65165 1.75H11.6847V0.25H8.65165V1.75ZM11.9457 2.01722V4.05166H13.4457V2.01722H11.9457ZM8.39062 4.05166V2.01722H6.89062V4.05166H8.39062ZM11.6847 1.75C11.8246 1.75 11.9457 1.86531 11.9457 2.01722H13.4457C13.4457 1.04554 12.6616 0.25 11.6847 0.25V1.75ZM8.65165 0.25C7.67475 0.25 6.89062 1.04554 6.89062 2.01722H8.39062C8.39062 1.86531 8.5118 1.75 8.65165 1.75V0.25Z" fill="#2199FC"/>
<path d="M17.5503 4.04688H2.72196C2.16359 4.04688 1.71094 4.5023 1.71094 5.06409V19.9833C1.71094 20.5451 2.16359 21.0005 2.72196 21.0005H17.5503C18.1086 21.0005 18.5613 20.5451 18.5613 19.9833V5.06409C18.5613 4.5023 18.1086 4.04688 17.5503 4.04688Z" fill="#2199FC"/>
<path d="M2.72196 4.79688H17.5503V3.29688H2.72196V4.79688ZM17.8113 5.06409V19.9833H19.3113V5.06409H17.8113ZM17.5503 20.2505H2.72196V21.7505H17.5503V20.2505ZM2.46094 19.9833V5.06409H0.960938V19.9833H2.46094ZM2.72196 20.2505C2.58212 20.2505 2.46094 20.1352 2.46094 19.9833H0.960938C0.960938 20.955 1.74506 21.7505 2.72196 21.7505V20.2505ZM17.8113 19.9833C17.8113 20.1352 17.6901 20.2505 17.5503 20.2505V21.7505C18.5272 21.7505 19.3113 20.955 19.3113 19.9833H17.8113ZM17.5503 4.79688C17.6901 4.79688 17.8113 4.91219 17.8113 5.06409H19.3113C19.3113 4.09241 18.5272 3.29688 17.5503 3.29688V4.79688ZM2.72196 3.29688C1.74506 3.29688 0.960938 4.09241 0.960938 5.06409H2.46094C2.46094 4.91218 2.58212 4.79688 2.72196 4.79688V3.29688Z" fill="#2199FC"/>
<path d="M7.43942 10.0879V11.7833C7.43942 12.345 6.98677 12.8005 6.4284 12.8005H5.75438C5.19601 12.8005 4.74336 12.345 4.74336 11.7833V10.0879M15.1906 10.0879V11.7833C15.1906 12.345 14.7379 12.8005 14.1796 12.8005H13.5055C12.9472 12.8005 12.4945 12.345 12.4945 11.7833V10.0879M1 10.2574H19.3333" stroke="white" stroke-width="1.5"/>
</svg>
