<svg width="22" height="23" viewBox="0 0 22 23" fill="none" xmlns="http://www.w3.org/2000/svg">
<path d="M14.0969 4.37712V2.29237C14.0969 1.71669 13.5596 1.25 12.8969 1.25H9.29687C8.63413 1.25 8.09687 1.71669 8.09687 2.29237V4.37712M8.09687 10.6314V12.3686C8.09687 12.9443 7.55962 13.411 6.89687 13.411H6.09687C5.43413 13.411 4.89688 12.9443 4.89688 12.3686V10.6314M17.2969 10.6314V12.3686C17.2969 12.9443 16.7596 13.411 16.0969 13.411H15.2969C14.6341 13.411 14.0969 12.9443 14.0969 12.3686V10.6314M1.29688 10.8051H21.2969M2.49687 21.75H20.0969C20.7596 21.75 21.2969 21.2833 21.2969 20.7076V5.41949C21.2969 4.8438 20.7596 4.37712 20.0969 4.37712H2.49687C1.83413 4.37712 1.29688 4.8438 1.29688 5.41949V20.7076C1.29688 21.2833 1.83413 21.75 2.49687 21.75Z" stroke="#505050" stroke-width="1.3"/>
</svg>
