<svg width="22" height="23" viewBox="0 0 22 23" fill="none" xmlns="http://www.w3.org/2000/svg">
<path d="M1 5.16949C1 4.5938 1.53726 4.12712 2.2 4.12712H19.8C20.4627 4.12712 21 4.5938 21 5.16949V20.4576C21 21.0333 20.4627 21.5 19.8 21.5H2.2C1.53726 21.5 1 21.0333 1 20.4576V5.16949Z" fill="#2199FC"/>
<path d="M13.8 4.12712V2.04237C13.8 1.46669 13.2627 1 12.6 1H9C8.33726 1 7.8 1.46669 7.8 2.04237V4.12712M7.8 10.3814V12.1186C7.8 12.6943 7.26274 13.161 6.6 13.161H5.8C5.13726 13.161 4.6 12.6943 4.6 12.1186V10.3814M17 10.3814V12.1186C17 12.6943 16.4627 13.161 15.8 13.161H15C14.3373 13.161 13.8 12.6943 13.8 12.1186V10.3814M1 10.5551H21M2.2 21.5H19.8C20.4627 21.5 21 21.0333 21 20.4576V5.16949C21 4.5938 20.4627 4.12712 19.8 4.12712H2.2C1.53726 4.12712 1 4.5938 1 5.16949V20.4576C1 21.0333 1.53726 21.5 2.2 21.5Z" stroke="#2199FC" stroke-width="1.3"/>
<path d="M7.8 10.2793V12.0166C7.8 12.5923 7.26274 13.059 6.6 13.059H5.8C5.13726 13.059 4.6 12.5923 4.6 12.0166V10.2793M17 10.2793V12.0166C17 12.5923 16.4627 13.059 15.8 13.059H15C14.3373 13.059 13.8 12.5923 13.8 12.0166V10.2793M1 10.453H21" stroke="white" stroke-width="1.3"/>
</svg>
