<svg width="20" height="22" viewBox="0 0 20 22" fill="none" xmlns="http://www.w3.org/2000/svg">
<path d="M8.6536 1.75H11.6867V0.25H8.6536V1.75ZM11.9477 2.01722V4.05166H13.4477V2.01722H11.9477ZM8.39258 4.05166V2.01722H6.89258V4.05166H8.39258ZM11.6867 1.75C11.8265 1.75 11.9477 1.86531 11.9477 2.01722H13.4477C13.4477 1.04554 12.6636 0.25 11.6867 0.25V1.75ZM8.6536 0.25C7.6767 0.25 6.89258 1.04554 6.89258 2.01722H8.39258C8.39258 1.86531 8.51376 1.75 8.6536 1.75V0.25Z" fill="#2199FC"/>
<path d="M17.5483 4.0459H2.72001C2.16163 4.0459 1.70898 4.50132 1.70898 5.06312V19.9823C1.70898 20.5441 2.16163 20.9995 2.72001 20.9995H17.5483C18.1067 20.9995 18.5593 20.5441 18.5593 19.9823V5.06312C18.5593 4.50132 18.1067 4.0459 17.5483 4.0459Z" fill="#2199FC"/>
<path d="M2.72001 4.7959H17.5483V3.2959H2.72001V4.7959ZM17.8093 5.06312V19.9823H19.3093V5.06312H17.8093ZM17.5483 20.2495H2.72001V21.7495H17.5483V20.2495ZM2.45898 19.9823V5.06312H0.958984V19.9823H2.45898ZM2.72001 20.2495C2.58016 20.2495 2.45898 20.1342 2.45898 19.9823H0.958984C0.958984 20.954 1.7431 21.7495 2.72001 21.7495V20.2495ZM17.8093 19.9823C17.8093 20.1342 17.6882 20.2495 17.5483 20.2495V21.7495C18.5252 21.7495 19.3093 20.954 19.3093 19.9823H17.8093ZM17.5483 4.7959C17.6882 4.7959 17.8093 4.91121 17.8093 5.06312H19.3093C19.3093 4.09144 18.5252 3.2959 17.5483 3.2959V4.7959ZM2.72001 3.2959C1.74311 3.2959 0.958984 4.09144 0.958984 5.06312H2.45898C2.45898 4.91121 2.58016 4.7959 2.72001 4.7959V3.2959Z" fill="#2199FC"/>
<path d="M7.43942 10.0879V11.7833C7.43942 12.345 6.98677 12.8005 6.4284 12.8005H5.75438C5.19601 12.8005 4.74336 12.345 4.74336 11.7833V10.0879M15.1906 10.0879V11.7833C15.1906 12.345 14.7379 12.8005 14.1796 12.8005H13.5055C12.9472 12.8005 12.4945 12.345 12.4945 11.7833V10.0879M1 10.2574H19.3333" stroke="white" stroke-width="1.5"/>
</svg>
