<svg width="21" height="22" viewBox="0 0 21 22" fill="none" xmlns="http://www.w3.org/2000/svg">
<path d="M12.7333 4.05085V2.01695C12.7333 1.4553 12.2408 1 11.6333 1H8.33333C7.72582 1 7.23333 1.4553 7.23333 2.01695V4.05085M7.23333 10.1525V11.8475C7.23333 12.4091 6.74085 12.8644 6.13333 12.8644H5.4C4.79249 12.8644 4.3 12.4091 4.3 11.8475V10.1525M15.6667 10.1525V11.8475C15.6667 12.4091 15.1742 12.8644 14.5667 12.8644H13.8333C13.2258 12.8644 12.7333 12.4091 12.7333 11.8475V10.1525M1 10.322H19.3333M2.1 21H18.2333C18.8408 21 19.3333 20.5447 19.3333 19.9831V5.0678C19.3333 4.50615 18.8408 4.05085 18.2333 4.05085H2.1C1.49249 4.05085 1 4.50615 1 5.0678V19.9831C1 20.5447 1.49249 21 2.1 21Z" stroke="#0D0D0D" stroke-opacity="0.8" stroke-width="1.5"/>
</svg>
