<svg width="21" height="21" viewBox="0 0 21 21" fill="none" xmlns="http://www.w3.org/2000/svg">
<path d="M16.646 8.82301C16.646 13.1435 13.1435 16.646 8.82301 16.646C4.50248 16.646 1 13.1435 1 8.82301C1 4.50248 4.50248 1 8.82301 1C13.1435 1 16.646 4.50248 16.646 8.82301Z" fill="#2199FC"/>
<path d="M14.1246 14.4683L19.6563 20M16.646 8.82301C16.646 13.1435 13.1435 16.646 8.82301 16.646C4.50248 16.646 1 13.1435 1 8.82301C1 4.50248 4.50248 1 8.82301 1C13.1435 1 16.646 4.50248 16.646 8.82301Z" stroke="#2199FC" stroke-width="1.5"/>
<ellipse cx="8.82884" cy="8.82688" rx="6.47727" ry="6.47727" fill="white"/>
</svg>
