<svg width="21" height="21" viewBox="0 0 21 21" fill="none" xmlns="http://www.w3.org/2000/svg">
<path d="M17.1734 8.82301C17.1734 13.1435 13.6709 16.646 9.35036 16.646C5.02983 16.646 1.52734 13.1435 1.52734 8.82301C1.52734 4.50248 5.02983 1 9.35036 1C13.6709 1 17.1734 4.50248 17.1734 8.82301Z" fill="#2199FC"/>
<path d="M14.6519 14.4683L20.1836 20M17.1734 8.82301C17.1734 13.1435 13.6709 16.646 9.35036 16.646C5.02983 16.646 1.52734 13.1435 1.52734 8.82301C1.52734 4.50248 5.02983 1 9.35036 1C13.6709 1 17.1734 4.50248 17.1734 8.82301Z" stroke="#2199FC" stroke-width="1.5"/>
<ellipse cx="9.35423" cy="8.82688" rx="6.47727" ry="6.47727" fill="white"/>
<ellipse cx="9.35423" cy="8.82688" rx="6.47727" ry="6.47727" fill="white"/>
</svg>
