<svg width="44" height="44" viewBox="0 0 44 44" fill="none" xmlns="http://www.w3.org/2000/svg">
<path d="M18.5367 13.2932H19.1867V13.2486L19.1807 13.2044L18.5367 13.2932ZM18.5367 13.2932L17.89 13.3579L17.8912 13.37L17.8928 13.382L18.5367 13.2932ZM18.5367 13.2932H17.8867V13.3257L17.89 13.3579L18.5367 13.2932ZM18.7696 14.5389L18.2217 14.8887L18.2217 14.8887L18.7696 14.5389ZM19.828 14.9773L19.6879 14.3426L19.6879 14.3426L19.828 14.9773ZM20.8725 14.2619L20.4609 13.7589L20.4609 13.7589L20.8725 14.2619ZM21.452 13.8532L21.6847 14.4601L21.6847 14.4601L21.452 13.8532ZM22.2592 13.8935L22.5512 13.3128L22.5512 13.3128L22.2592 13.8935ZM22.7951 14.3578L22.3355 14.8175L22.3455 14.8274L22.3559 14.837L22.7951 14.3578ZM22.7951 14.3578L23.2548 13.8982L23.2448 13.8882L23.2344 13.8787L22.7951 14.3578ZM23.6453 15.208L24.1049 14.7484L24.1049 14.7484L23.6453 15.208ZM24.1112 15.746L24.6922 15.4547L24.6922 15.4547L24.1112 15.746ZM24.1513 16.5511L23.5441 16.319L23.5441 16.319L24.1513 16.5511ZM23.7409 17.1332L23.2378 16.7216L23.2261 16.736L23.2152 16.7509L23.7409 17.1332ZM23.7409 17.1332L24.2439 17.5449L24.2557 17.5305L24.2665 17.5156L23.7409 17.1332ZM23.0239 18.1801L23.6587 18.3198L23.6587 18.3198L23.0239 18.1801ZM23.462 19.2376L23.1119 19.7853L23.1119 19.7853L23.462 19.2376ZM25.4074 19.5917L25.6722 18.9981L25.6722 18.9981L25.4074 19.5917ZM25.9493 20.1905L25.3322 20.3949L25.3322 20.3949L25.9493 20.1905ZM25.9493 22.8095L26.5663 23.0138L26.5663 23.0138L25.9493 22.8095ZM25.4073 23.4083L25.1426 22.8147L25.1426 22.8147L25.4073 23.4083ZM24.7079 23.5292L24.6432 22.8824L24.6432 22.8824L24.7079 23.5292ZM23.4623 23.7623L23.8123 24.31L23.8123 24.31L23.4623 23.7623ZM23.0242 24.82L23.659 24.6802L23.659 24.6802L23.0242 24.82ZM23.7416 25.8673L23.2385 26.279L23.2433 26.2847L23.2481 26.2904L23.7416 25.8673ZM23.7416 25.8674L24.2447 25.4558L24.24 25.45L24.2352 25.4444L23.7416 25.8674ZM24.1529 26.4508L23.5456 26.6826L23.5456 26.6826L24.1529 26.4508ZM24.1128 27.255L24.6941 27.546L24.6941 27.546L24.1128 27.255ZM23.6463 27.7939L24.0624 28.2932L24.0851 28.2743L24.1059 28.2535L23.6463 27.7939ZM23.6463 27.7939L23.2302 27.2946L23.2075 27.3134L23.1867 27.3343L23.6463 27.7939ZM22.797 28.6432L22.3374 28.1835L22.3374 28.1835L22.797 28.6432ZM22.2602 29.1082L22.5519 29.689L22.5519 29.689L22.2602 29.1082ZM21.4539 29.1484L21.2215 29.7554L21.2215 29.7554L21.4539 29.1484ZM20.8735 28.7391L20.4619 29.2422L20.4619 29.2422L20.8735 28.7391ZM19.8273 28.0228L19.9669 27.3879L19.9669 27.3879L19.8273 28.0228ZM18.77 28.4607L19.3176 28.8109L19.3176 28.8109L18.77 28.4607ZM18.5367 29.7073L17.8899 29.6426L17.8899 29.6426L18.5367 29.7073ZM18.4156 30.4077L17.822 30.1427L17.822 30.1427L18.4156 30.4077ZM17.8172 30.9492L18.0218 31.5661L18.0218 31.5661L17.8172 30.9492ZM15.1964 30.9488L14.991 31.5654L14.991 31.5654L15.1964 30.9488ZM14.5998 30.4089L14.0066 30.6746L14.0066 30.6746L14.5998 30.4089ZM14.478 29.7059L15.1248 29.6412L15.1248 29.6412L14.478 29.7059ZM14.2432 28.454L14.7901 28.1026L14.7901 28.1026L14.2432 28.454ZM13.1892 28.0174L13.3275 28.6525L13.3275 28.6525L13.1892 28.0174ZM12.137 28.7374L11.7254 28.2343L11.7254 28.2343L12.137 28.7374ZM11.5519 29.1496L11.3208 28.5421L11.3208 28.5421L11.5519 29.1496ZM10.7496 29.1096L10.4593 29.6911L10.4593 29.6911L10.7496 29.1096ZM9.36147 27.7942L8.87733 28.2279L8.88924 28.2412L8.90185 28.2538L9.36147 27.7942ZM9.36146 27.7942L9.84561 27.3605L9.8337 27.3472L9.82108 27.3346L9.36146 27.7942ZM8.89508 27.2555L9.47627 26.9645L9.47627 26.9645L8.89508 27.2555ZM8.85496 26.4512L9.46223 26.683L9.46223 26.683L8.85496 26.4512ZM9.26544 25.8688L9.76851 26.2804L9.7772 26.2697L9.78544 26.2588L9.26544 25.8688ZM9.26544 25.8688L8.76237 25.4572L8.75368 25.4678L8.74544 25.4788L9.26544 25.8688ZM9.9838 24.819L9.34876 24.6803L9.34876 24.6803L9.9838 24.819ZM9.54683 23.764L9.89784 23.2169L9.89784 23.2169L9.54683 23.764ZM8.29523 23.5295L8.35991 22.8827L8.32765 22.8795H8.29523V23.5295ZM8.29522 23.5295L8.23054 24.1763L8.2628 24.1795H8.29522V23.5295ZM7.59081 23.4075L7.85679 22.8144L7.85678 22.8144L7.59081 23.4075ZM7.05136 22.8114L6.43475 23.017L6.43475 23.017L7.05136 22.8114ZM7.05138 20.1886L7.66798 20.3942L7.66798 20.3942L7.05138 20.1886ZM7.59075 19.5926L7.85676 20.1856L7.85676 20.1856L7.59075 19.5926ZM8.29576 19.4704V18.8204H8.26334L8.23108 18.8236L8.29576 19.4704ZM8.29577 19.4704V20.1204H8.32819L8.36045 20.1172L8.29577 19.4704ZM9.54645 19.2364L9.19584 18.689L9.19584 18.689L9.54645 19.2364ZM9.98389 18.1803L10.6188 18.0412L9.98389 18.1803ZM9.26649 17.1322L8.76341 17.5438L8.76341 17.5438L9.26649 17.1322ZM8.85658 16.5507L9.46373 16.3186L9.46373 16.3186L8.85658 16.5507ZM8.89674 15.7454L8.3157 15.4541L8.89674 15.7454ZM9.36247 15.2076L9.82209 15.6673L9.82209 15.6673L9.36247 15.2076ZM10.2108 14.3593L10.6704 14.819L10.6704 14.819L10.2108 14.3593ZM10.7506 13.8921L11.0413 14.4735L10.7506 13.8921ZM11.5538 13.852L11.3224 14.4594L11.3224 14.4594L11.5538 13.852ZM12.1376 14.2633L12.5492 13.7603L12.5492 13.7603L12.1376 14.2633ZM13.1893 14.9828L13.0511 15.618L13.0511 15.618L13.1893 14.9828ZM14.2431 14.5463L14.79 14.8977L14.79 14.8977L14.2431 14.5463ZM14.478 13.2942L15.1248 13.3589L15.128 13.3266V13.2942H14.478ZM14.478 13.2942L13.8312 13.2295L13.828 13.2618V13.2942H14.478ZM14.5998 12.5911L15.193 12.8569L15.193 12.8569L14.5998 12.5911ZM15.1963 12.0513L14.9909 11.4346L14.9909 11.4346L15.1963 12.0513ZM17.8173 12.0509L18.0219 11.4339L18.0219 11.4339L17.8173 12.0509ZM18.4155 12.5923L17.822 12.8573L17.822 12.8573L18.4155 12.5923ZM19.1807 13.2044L19.1806 13.2044L17.8928 13.382L17.8928 13.382L19.1807 13.2044ZM19.1867 13.2932V13.2932H17.8867V13.2932H19.1867ZM19.3175 14.1891C19.3262 14.2028 19.3021 14.1727 19.2722 13.9941C19.2432 13.8214 19.2193 13.586 19.1835 13.2286L17.89 13.3579C17.9239 13.6969 17.9522 13.9837 17.9901 14.2094C18.027 14.4293 18.0846 14.6739 18.2217 14.8887L19.3175 14.1891ZM19.6879 14.3426C19.5445 14.3742 19.3965 14.313 19.3175 14.1891L18.2217 14.8887C18.5944 15.4724 19.2919 15.7613 19.9681 15.612L19.6879 14.3426ZM20.4609 13.7589C20.1832 13.9861 20.0001 14.1354 19.8577 14.2369C19.7105 14.3418 19.6722 14.3461 19.6879 14.3426L19.9681 15.612C20.2168 15.5571 20.4303 15.4251 20.6119 15.2957C20.7982 15.163 21.0208 14.9805 21.2841 14.765L20.4609 13.7589ZM21.2193 13.2463C20.9467 13.3509 20.7083 13.5565 20.4609 13.7589L21.2841 14.765C21.6087 14.4994 21.6564 14.471 21.6847 14.4601L21.2193 13.2463ZM22.5512 13.3128C22.1363 13.1042 21.6528 13.0801 21.2193 13.2463L21.6847 14.4601C21.7767 14.4249 21.8793 14.43 21.9673 14.4742L22.5512 13.3128ZM23.2548 13.8982C23.0287 13.6722 22.812 13.4439 22.5512 13.3128L21.9673 14.4742C21.9944 14.4879 22.039 14.5209 22.3355 14.8175L23.2548 13.8982ZM23.2344 13.8787L23.2344 13.8787L22.3559 14.837L22.3559 14.837L23.2344 13.8787ZM24.1049 14.7484L23.2548 13.8982L22.3355 14.8175L23.1857 15.6676L24.1049 14.7484ZM24.6922 15.4547C24.5609 15.1927 24.3318 14.9752 24.1049 14.7484L23.1857 15.6676C23.4833 15.9653 23.5164 16.01 23.5301 16.0373L24.6922 15.4547ZM24.7585 16.7831C24.9238 16.3506 24.8997 15.8686 24.6922 15.4547L23.5301 16.0373C23.5741 16.1251 23.5792 16.2273 23.5441 16.319L24.7585 16.7831ZM24.244 17.5448C24.4473 17.2963 24.6539 17.0568 24.7585 16.7831L23.5441 16.319C23.5333 16.3475 23.5047 16.3954 23.2378 16.7216L24.244 17.5448ZM24.2665 17.5156L24.2666 17.5155L23.2152 16.7509L23.2152 16.7509L24.2665 17.5156ZM23.6587 18.3198C23.6552 18.3356 23.6595 18.2973 23.7647 18.1497C23.8664 18.0068 24.0162 17.8232 24.2439 17.5449L23.2378 16.7216C23.0218 16.9856 22.8388 17.2088 22.7058 17.3954C22.5763 17.5773 22.444 17.7912 22.3891 18.0404L23.6587 18.3198ZM23.812 18.69C23.6884 18.6109 23.6272 18.4631 23.6587 18.3198L22.3891 18.0404C22.2404 18.716 22.529 19.4127 23.1119 19.7853L23.812 18.69ZM24.7725 18.824C24.4151 18.7883 24.1797 18.7644 24.007 18.7354C23.8286 18.7054 23.7985 18.6813 23.812 18.69L23.1119 19.7853C23.3268 19.9227 23.5714 19.9804 23.7915 20.0174C24.0173 20.0553 24.3042 20.0837 24.6432 20.1176L24.7725 18.824ZM25.6722 18.9981C25.4053 18.879 25.091 18.8559 24.7725 18.824L24.6432 20.1176C25.061 20.1593 25.1148 20.173 25.1426 20.1854L25.6722 18.9981ZM26.5663 19.9861C26.4204 19.5457 26.0959 19.1871 25.6722 18.9981L25.1426 20.1853C25.2325 20.2254 25.3013 20.3015 25.3322 20.3949L26.5663 19.9861ZM26.65 20.8986C26.65 20.5786 26.6582 20.2635 26.5663 19.9861L25.3322 20.3949C25.3418 20.4238 25.35 20.4787 25.35 20.8986H26.65ZM26.65 22.1015V20.8986H25.35V22.1015H26.65ZM26.5663 23.0138C26.6582 22.7364 26.65 22.4214 26.65 22.1015H25.35C25.35 22.5213 25.3418 22.5762 25.3322 22.6051L26.5663 23.0138ZM25.6721 24.0019C26.0958 23.8129 26.4204 23.4543 26.5663 23.0138L25.3322 22.6051C25.3013 22.6985 25.2325 22.7746 25.1426 22.8147L25.6721 24.0019ZM24.7726 24.176C25.091 24.1441 25.4052 24.121 25.6721 24.0019L25.1426 22.8147C25.1148 22.827 25.061 22.8407 24.6432 22.8824L24.7726 24.176ZM23.8123 24.31C23.7987 24.3187 23.8288 24.2946 24.0072 24.2646C24.1799 24.2356 24.4152 24.2117 24.7726 24.176L24.6432 22.8824C24.3044 22.9163 24.0175 22.9447 23.7918 22.9826C23.5717 23.0196 23.3271 23.0773 23.1123 23.2146L23.8123 24.31ZM23.659 24.6802C23.6274 24.5368 23.6886 24.389 23.8123 24.31L23.1123 23.2146C22.5292 23.5872 22.2406 24.284 22.3894 24.9598L23.659 24.6802ZM24.2447 25.4557C24.0168 25.1772 23.8669 24.9934 23.765 24.8505C23.6597 24.7027 23.6555 24.6643 23.659 24.6802L22.3894 24.9598C22.4443 25.2089 22.5767 25.4229 22.7062 25.6048C22.8393 25.7915 23.0224 26.0148 23.2385 26.279L24.2447 25.4557ZM24.2352 25.4444L24.2351 25.4443L23.2481 26.2904L23.2481 26.2904L24.2352 25.4444ZM24.7602 26.2191C24.6556 25.9449 24.4486 25.7049 24.2447 25.4558L23.2386 26.279C23.5061 26.606 23.5348 26.6541 23.5456 26.6826L24.7602 26.2191ZM24.6941 27.546C24.9011 27.1325 24.9251 26.6512 24.7602 26.2191L23.5456 26.6826C23.5806 26.7742 23.5755 26.8763 23.5316 26.964L24.6941 27.546ZM24.1059 28.2535C24.3331 28.0263 24.5627 27.8085 24.6941 27.546L23.5316 26.964C23.5179 26.9913 23.4848 27.0361 23.1867 27.3343L24.1059 28.2535ZM24.0624 28.2932L24.0624 28.2932L23.2302 27.2945L23.2302 27.2946L24.0624 28.2932ZM23.2566 29.1028L24.1059 28.2535L23.1867 27.3343L22.3374 28.1835L23.2566 29.1028ZM22.5519 29.689C22.8132 29.5578 23.0302 29.3292 23.2566 29.1028L22.3374 28.1835C22.0404 28.4806 21.9957 28.5136 21.9685 28.5273L22.5519 29.689ZM21.2215 29.7554C21.6546 29.9212 22.1374 29.8971 22.5519 29.689L21.9685 28.5273C21.8806 28.5714 21.7782 28.5765 21.6863 28.5413L21.2215 29.7554ZM20.4619 29.2422C20.7097 29.4449 20.9484 29.6508 21.2215 29.7554L21.6863 28.5414C21.6579 28.5305 21.6102 28.502 21.2851 28.236L20.4619 29.2422ZM19.6877 28.6576C19.6719 28.6541 19.7102 28.6584 19.8577 28.7634C20.0004 28.865 20.1838 29.0146 20.4619 29.2422L21.2851 28.236C21.0214 28.0202 20.7984 27.8374 20.6118 27.7045C20.4299 27.575 20.2161 27.4427 19.9669 27.3879L19.6877 28.6576ZM19.3176 28.8109C19.3966 28.6873 19.5444 28.6261 19.6877 28.6576L19.9669 27.3879C19.2914 27.2394 18.5949 27.5279 18.2224 28.1106L19.3176 28.8109ZM19.1835 29.772C19.2192 29.4143 19.2431 29.1788 19.2722 29.006C19.3022 28.8274 19.3263 28.7973 19.3176 28.8109L18.2224 28.1106C18.0849 28.3255 18.0272 28.5703 17.9902 28.7905C17.9522 29.0164 17.9238 29.3035 17.8899 29.6426L19.1835 29.772ZM19.0091 30.6727C19.1284 30.4055 19.1516 30.0908 19.1835 29.772L17.8899 29.6426C17.8481 30.061 17.8344 30.1149 17.822 30.1427L19.0091 30.6727ZM18.0218 31.5661C18.4618 31.4202 18.8201 31.0959 19.0091 30.6727L17.822 30.1427C17.7819 30.2325 17.7059 30.3013 17.6126 30.3322L18.0218 31.5661ZM17.1084 31.65C17.4288 31.65 17.7441 31.6582 18.0218 31.5661L17.6126 30.3322C17.5837 30.3418 17.5288 30.35 17.1084 30.35V31.65ZM15.908 31.65H17.1084V30.35H15.908V31.65ZM14.991 31.5654C15.2697 31.6583 15.5864 31.65 15.908 31.65V30.35C15.486 30.35 15.4308 30.3417 15.4018 30.3321L14.991 31.5654ZM14.0066 30.6746C14.1955 31.0963 14.5526 31.4194 14.991 31.5654L15.4018 30.3321C15.3088 30.3011 15.2331 30.2325 15.193 30.1431L14.0066 30.6746ZM13.8312 29.7705C13.8632 30.0906 13.8865 30.4065 14.0066 30.6746L15.193 30.1431C15.1805 30.1152 15.1668 30.0611 15.1248 29.6412L13.8312 29.7705ZM13.6964 28.8053C13.6876 28.7917 13.7119 28.8219 13.7421 29.0012C13.7713 29.1747 13.7953 29.4113 13.8312 29.7705L15.1248 29.6412C15.0907 29.3005 15.0622 29.0122 15.024 28.7853C14.9868 28.5641 14.9286 28.3183 14.7901 28.1026L13.6964 28.8053ZM13.3275 28.6525C13.4703 28.6215 13.6173 28.6824 13.6964 28.8053L14.7901 28.1026C14.4176 27.523 13.7242 27.2357 13.051 27.3823L13.3275 28.6525ZM12.5486 29.2405C12.8283 29.0116 13.0129 28.8611 13.1564 28.7589C13.3048 28.6533 13.3433 28.6491 13.3275 28.6525L13.051 27.3823C12.8004 27.4368 12.5853 27.5697 12.4025 27.6998C12.2149 27.8333 11.9907 28.0173 11.7254 28.2343L12.5486 29.2405ZM11.7829 29.7571C12.0582 29.6524 12.2988 29.4448 12.5486 29.2405L11.7254 28.2343C11.3976 28.5025 11.3494 28.5312 11.3208 28.5421L11.7829 29.7571ZM10.4593 29.6911C10.8719 29.8971 11.3519 29.9211 11.783 29.7571L11.3208 28.5421C11.2294 28.5768 11.1275 28.5718 11.04 28.5281L10.4593 29.6911ZM9.74928 29.1013C9.97724 29.3292 10.1958 29.5596 10.4593 29.6911L11.04 28.5281C11.0126 28.5144 10.9676 28.4812 10.6685 28.182L9.74928 29.1013ZM8.90185 28.2538L9.74928 29.1013L10.6685 28.182L9.82109 27.3346L8.90185 28.2538ZM8.87732 28.2279L8.87733 28.2279L9.84562 27.3605L9.84561 27.3605L8.87732 28.2279ZM8.31389 27.5466C8.44527 27.8089 8.67471 28.0267 8.90184 28.2538L9.82108 27.3346C9.52306 27.0366 9.48993 26.9918 9.47627 26.9645L8.31389 27.5466ZM8.24769 26.2194C8.08275 26.6515 8.10677 27.133 8.31389 27.5466L9.47627 26.9645C9.43234 26.8768 9.42724 26.7746 9.46223 26.683L8.24769 26.2194ZM8.76236 25.4572C8.55896 25.7058 8.35232 25.9453 8.24769 26.2194L9.46223 26.683C9.47311 26.6545 9.50162 26.6066 9.76851 26.2804L8.76236 25.4572ZM8.74544 25.4788L8.74544 25.4788L9.78544 26.2588L9.78544 26.2588L8.74544 25.4788ZM9.34876 24.6803C9.35221 24.6645 9.348 24.703 9.2427 24.8509C9.14079 24.9941 8.99067 25.1781 8.76237 25.4572L9.76851 26.2804C9.98501 26.0157 10.1685 25.792 10.3018 25.6048C10.4317 25.4223 10.5642 25.2077 10.6188 24.9576L9.34876 24.6803ZM9.19582 24.3111C9.31896 24.3901 9.37997 24.5374 9.34876 24.6803L10.6188 24.9576C10.766 24.2837 10.4784 23.5894 9.89784 23.2169L9.19582 24.3111ZM8.23055 24.1763C8.58973 24.2122 8.82636 24.2362 8.99991 24.2654C9.17931 24.2956 9.20949 24.3199 9.19582 24.3111L9.89784 23.2169C9.68231 23.0786 9.4366 23.0206 9.21562 22.9835C8.98879 22.9453 8.70055 22.9168 8.35991 22.8827L8.23055 24.1763ZM8.29522 24.1795H8.29523V22.8795H8.29522V24.1795ZM7.32483 24.0006C7.59323 24.1209 7.90978 24.1442 8.23054 24.1763L8.3599 22.8827C7.93896 22.8407 7.88467 22.8269 7.85679 22.8144L7.32483 24.0006ZM6.43475 23.017C6.58079 23.4549 6.90362 23.8117 7.32484 24.0006L7.85678 22.8144C7.76743 22.7743 7.69896 22.6986 7.66798 22.6057L6.43475 23.017ZM6.35 22.099C6.35 22.421 6.3417 22.738 6.43475 23.017L7.66798 22.6057C7.6583 22.5767 7.65 22.5215 7.65 22.099H6.35ZM6.35 20.9011V22.099H7.65V20.9011H6.35ZM6.43478 19.9829C6.34169 20.262 6.35 20.579 6.35 20.9011H7.65C7.65 20.4785 7.65831 20.4232 7.66798 20.3942L6.43478 19.9829ZM7.32474 18.9995C6.9036 19.1884 6.58083 19.545 6.43478 19.9829L7.66798 20.3942C7.69896 20.3014 7.76743 20.2257 7.85676 20.1856L7.32474 18.9995ZM8.23108 18.8236C7.91 18.8558 7.59319 18.8791 7.32474 18.9995L7.85676 20.1856C7.88464 20.1731 7.93906 20.1593 8.36044 20.1172L8.23108 18.8236ZM8.29576 18.8204H8.29576V20.1204H8.29576V18.8204ZM8.29577 18.8204H8.29576V20.1204H8.29577V18.8204ZM9.19584 18.689C9.20956 18.6802 9.17938 18.7044 9 18.7346C8.82654 18.7638 8.59002 18.7878 8.23109 18.8236L8.36045 20.1172C8.70089 20.0832 8.98889 20.0547 9.21552 20.0166C9.43624 19.9795 9.68172 19.9216 9.89706 19.7837L9.19584 18.689ZM9.34894 18.3194C9.3803 18.4625 9.3192 18.61 9.19584 18.689L9.89706 19.7837C10.4786 19.4112 10.7666 18.7158 10.6188 18.0412L9.34894 18.3194ZM8.76341 17.5438C8.99136 17.8224 9.14123 18.0061 9.243 18.1491C9.34816 18.2968 9.3524 18.3352 9.34894 18.3194L10.6188 18.0412C10.5641 17.7915 10.4317 17.5773 10.302 17.3951C10.1689 17.2082 9.98572 16.9848 9.76956 16.7206L8.76341 17.5438ZM8.24942 16.7828C8.35402 17.0564 8.56032 17.2956 8.76341 17.5438L9.76956 16.7206C9.50309 16.3949 9.4746 16.3471 9.46373 16.3186L8.24942 16.7828ZM8.3157 15.4541C8.10811 15.8681 8.08406 16.3502 8.24942 16.7828L9.46373 16.3186C9.42865 16.2269 9.43375 16.1246 9.47779 16.0368L8.3157 15.4541ZM8.90286 14.748C8.67607 14.9748 8.447 15.1922 8.3157 15.4541L9.47779 16.0368C9.49144 16.0096 9.52454 15.9648 9.82209 15.6673L8.90286 14.748ZM9.75115 13.8997L8.90286 14.748L9.82209 15.6673L10.6704 14.819L9.75115 13.8997ZM10.46 13.3107C10.197 13.4422 9.97876 13.6721 9.75115 13.8997L10.6704 14.819C10.969 14.5203 11.014 14.4871 11.0413 14.4735L10.46 13.3107ZM11.7852 13.2446C11.3536 13.0802 10.873 13.1042 10.46 13.3107L11.0413 14.4735C11.1289 14.4297 11.2309 14.4246 11.3224 14.4594L11.7852 13.2446ZM12.5492 13.7603C12.3 13.5564 12.0599 13.3493 11.7852 13.2446L11.3224 14.4594C11.351 14.4703 11.399 14.4989 11.726 14.7664L12.5492 13.7603ZM13.3275 14.3477C13.3433 14.3511 13.3048 14.347 13.1565 14.2415C13.0131 14.1394 12.8287 13.989 12.5492 13.7603L11.726 14.7664C11.9911 14.9833 12.2152 15.1671 12.4028 15.3006C12.5855 15.4307 12.8005 15.5635 13.0511 15.618L13.3275 14.3477ZM13.6963 14.1949C13.6173 14.3179 13.4702 14.3788 13.3275 14.3477L13.0511 15.618C13.7242 15.7644 14.4175 15.4773 14.79 14.8977L13.6963 14.1949ZM13.8312 13.2295C13.7953 13.5888 13.7713 13.8255 13.742 13.999C13.7118 14.1784 13.6876 14.2085 13.6963 14.1949L14.79 14.8977C14.9286 14.682 14.9867 14.4362 15.024 14.215C15.0622 13.988 15.0907 13.6996 15.1248 13.3589L13.8312 13.2295ZM13.828 13.2942V13.2942H15.128V13.2942H13.828ZM14.0067 12.3253C13.8865 12.5934 13.8632 12.9094 13.8312 13.2295L15.1248 13.3589C15.1668 12.9389 15.1805 12.8848 15.193 12.8569L14.0067 12.3253ZM14.9909 11.4346C14.5526 11.5806 14.1956 11.9037 14.0067 12.3253L15.193 12.8569C15.2331 12.7675 15.3088 12.6989 15.4018 12.6679L14.9909 11.4346ZM15.9081 11.35C15.5864 11.35 15.2697 11.3417 14.9909 11.4346L15.4018 12.6679C15.4308 12.6583 15.486 12.65 15.9081 12.65V11.35ZM17.1084 11.35H15.9081V12.65H17.1084V11.35ZM18.0219 11.4339C17.7442 11.3418 17.4288 11.35 17.1084 11.35V12.65C17.5288 12.65 17.5838 12.6582 17.6126 12.6678L18.0219 11.4339ZM19.0091 12.3272C18.8201 11.904 18.4618 11.5798 18.0219 11.4339L17.6126 12.6678C17.7059 12.6988 17.7819 12.7675 17.822 12.8573L19.0091 12.3272ZM19.1835 13.2285C19.1516 12.9094 19.1284 12.5945 19.0091 12.3272L17.822 12.8573C17.8344 12.8851 17.8481 12.9391 17.89 13.3579L19.1835 13.2285ZM19.65 21.5C19.65 23.2397 18.2397 24.65 16.5 24.65V25.95C18.9577 25.95 20.95 23.9577 20.95 21.5H19.65ZM16.5 18.35C18.2397 18.35 19.65 19.7603 19.65 21.5H20.95C20.95 19.0423 18.9577 17.05 16.5 17.05V18.35ZM13.35 21.5C13.35 19.7603 14.7603 18.35 16.5 18.35V17.05C14.0423 17.05 12.05 19.0423 12.05 21.5H13.35ZM16.5 24.65C14.7603 24.65 13.35 23.2397 13.35 21.5H12.05C12.05 23.9577 14.0423 25.95 16.5 25.95V24.65Z" fill="#2F2F2F"/>
</svg>
