<svg width="26" height="26" viewBox="0 0 26 26" fill="none" xmlns="http://www.w3.org/2000/svg">
<path d="M15.5683 2.63376L16.1653 2.57406V2.57406L15.5683 2.63376ZM15.2658 1.35697L14.8063 1.74279V1.74279L15.2658 1.35697ZM16.155 4.87294L15.8193 5.37029L15.8193 5.37029L16.155 4.87294ZM16.5237 5.0257L16.6381 4.43669H16.6381L16.5237 5.0257ZM18.5215 3.85746L18.1416 3.39309L18.5215 3.85746ZM19.6376 3.16892L19.5853 2.5712V2.5712L19.6376 3.16892ZM19.9105 3.18253L19.799 3.77209L19.799 3.77209L19.9105 3.18253ZM20.9525 3.97871L21.3768 3.55445V3.55445L20.9525 3.97871ZM22.025 5.05118L22.4492 4.62691L22.025 5.05118ZM22.8216 6.09406L22.232 6.20526V6.20526L22.8216 6.09406ZM22.8352 6.36602L22.2375 6.31404V6.31404L22.8352 6.36602ZM22.1457 7.48364L21.6814 7.1037L21.6705 7.11692L21.6605 7.13074L22.1457 7.48364ZM22.1457 7.48365L22.6101 7.8636L22.6209 7.85037L22.631 7.83656L22.1457 7.48365ZM20.9771 9.48098L21.5662 9.36707V9.36707L20.9771 9.48098ZM21.1304 9.85114L20.6334 10.1871L20.6334 10.1871L21.1304 9.85114ZM23.3674 10.437L23.4271 9.83995L23.3674 10.437ZM24.6424 10.7389L24.257 11.1987L24.257 11.1987L24.6424 10.7389ZM24.8265 10.9422L25.3223 10.6044L25.3223 10.6044L24.8265 10.9422ZM24.8264 15.0583L24.3306 14.7205L24.3306 14.7205L24.8264 15.0583ZM24.6425 15.2615L25.0281 15.7213L25.0281 15.7212L24.6425 15.2615ZM23.3673 15.5635L23.427 16.1605L23.3673 15.5635ZM21.1298 16.1495L20.6326 15.8136L21.1298 16.1495ZM20.9766 16.5193L20.3876 16.4053L20.3876 16.4053L20.9766 16.5193ZM22.1452 18.5168L21.6808 18.8968V18.8968L22.1452 18.5168ZM22.8344 19.6341L22.2367 19.6861V19.6861L22.8344 19.6341ZM22.8208 19.9062L23.4104 20.0175L22.8208 19.9062ZM19.91 22.8176L20.0216 23.4071L20.0216 23.4071L19.91 22.8176ZM19.6366 22.8312L19.5842 23.429L19.5842 23.429L19.6366 22.8312ZM18.521 22.1429L18.0967 22.5672L18.1179 22.5884L18.1411 22.6073L18.521 22.1429ZM18.521 22.1429L18.9453 21.7187L18.9241 21.6975L18.9009 21.6785L18.521 22.1429ZM16.524 20.975L16.6382 21.5641H16.6382L16.524 20.975ZM16.1546 21.128L16.4904 21.6253L16.4904 21.6253L16.1546 21.128ZM15.5683 23.3665L16.1653 23.4262L15.5683 23.3665ZM15.2659 24.6429L14.8063 24.2571L14.8063 24.2572L15.2659 24.6429ZM15.0634 24.8261L14.7253 24.3305H14.7253L15.0634 24.8261ZM10.946 24.8258L10.6077 25.3214L10.6077 25.3214L10.946 24.8258ZM10.7443 24.6433L10.2849 25.0292L10.2849 25.0292L10.7443 24.6433ZM9.85412 21.1254L10.1893 20.6278L10.1893 20.6278L9.85412 21.1254ZM9.48686 20.9733L9.60172 20.3844L9.60172 20.3844L9.48686 20.9733ZM7.48675 22.1426L7.10681 21.6782L7.08365 21.6972L7.06249 21.7183L7.48675 22.1426ZM7.48674 22.1426L7.86668 22.607L7.88985 22.588L7.91101 22.5669L7.48674 22.1426ZM6.36888 22.832L6.42064 23.4298L6.36888 22.832ZM6.09765 22.8185L5.98667 23.4081L5.98668 23.4081L6.09765 22.8185ZM5.05409 22.0214L4.62982 22.4457H4.62982L5.05409 22.0214ZM3.98226 20.9496L4.40653 20.5253H4.40653L3.98226 20.9496ZM3.1857 19.9069L2.5961 20.0182L2.5961 20.0182L3.1857 19.9069ZM3.17212 19.6347L2.57438 19.5827L3.17212 19.6347ZM3.86098 18.518L3.39661 18.138H3.39661L3.86098 18.518ZM5.0297 16.5189L5.61864 16.4042V16.4042L5.0297 16.5189ZM4.87736 16.1511L4.37983 16.4865H4.37983L4.87736 16.1511ZM2.63572 15.5638L2.69542 14.9668L2.66564 14.9638H2.63572V15.5638ZM2.63571 15.5638L2.57601 16.1608L2.60578 16.1638H2.63571V15.5638ZM1.35613 15.2604L0.9698 15.7195L0.969803 15.7195L1.35613 15.2604ZM1.1746 15.0598L1.66984 14.7211H1.66984L1.1746 15.0598ZM1.17452 10.9408L1.66981 11.2794L1.17452 10.9408ZM1.35623 10.74L0.969975 10.2809L0.969974 10.2809L1.35623 10.74ZM2.63533 10.4367L2.69503 11.0337H2.69503L2.63533 10.4367ZM4.87692 9.84927L4.37933 9.51399H4.37933L4.87692 9.84927ZM5.02914 9.48177L4.44022 9.36699L4.44022 9.367L5.02914 9.48177ZM3.86028 7.48234L3.38028 7.84234L3.38788 7.85247L3.39591 7.86228L3.86028 7.48234ZM3.86028 7.48233L4.34028 7.12233L4.33267 7.11219L4.32465 7.10239L3.86028 7.48233ZM3.17132 6.36534L3.76906 6.31336L3.76906 6.31336L3.17132 6.36534ZM3.18488 6.09339L3.77449 6.20459L3.77449 6.20458L3.18488 6.09339ZM3.98157 5.0505L4.40583 5.47476L3.98157 5.0505ZM5.05308 3.97898L5.47735 4.40325V4.40324L5.05308 3.97898ZM6.0971 3.18166L6.20794 3.77133L6.20794 3.77133L6.0971 3.18166ZM6.36785 3.16815L6.31624 3.76593L6.36785 3.16815ZM7.48622 3.8578L7.86616 3.39342L7.86616 3.39342L7.48622 3.8578ZM9.48708 5.0274L9.60211 5.61627L9.48708 5.0274ZM9.85379 4.8755L10.1888 5.37323L9.85379 4.8755ZM10.4415 2.63417L11.0386 2.69387V2.69387L10.4415 2.63417ZM10.7444 1.35657L10.2851 0.970518L10.2851 0.970519L10.7444 1.35657ZM10.9459 1.17427L11.2843 1.66971V1.66971L10.9459 1.17427ZM15.0636 1.17398L15.4018 0.678366V0.678365L15.0636 1.17398ZM16.1653 2.57406C16.1319 2.24008 16.103 1.94301 16.0529 1.7019C16.0005 1.4492 15.9136 1.19535 15.7253 0.971146L14.8063 1.74279C14.8165 1.75497 14.8462 1.79272 14.878 1.94592C14.9122 2.11071 14.9353 2.33384 14.9713 2.69347L16.1653 2.57406ZM16.4906 4.37559C16.4893 4.37471 16.4738 4.3658 16.4484 4.31765C16.4196 4.26305 16.3852 4.17124 16.3505 4.0173C16.279 3.69944 16.2329 3.24925 16.1653 2.57406L14.9713 2.69347C15.0356 3.33607 15.0883 3.87423 15.1799 4.28089C15.2705 4.68335 15.4287 5.10666 15.8193 5.37029L16.4906 4.37559ZM16.6381 4.43669C16.5853 4.42645 16.5352 4.40567 16.4906 4.37559L15.8193 5.37029C15.9976 5.49058 16.1983 5.57371 16.4094 5.6147L16.6381 4.43669ZM18.1416 3.39309C17.6165 3.82268 17.2657 4.10833 16.9904 4.28243C16.8571 4.36675 16.7679 4.40734 16.7089 4.42556C16.6569 4.44164 16.6397 4.437 16.6381 4.43669L16.4094 5.6147C16.872 5.70452 17.2832 5.51712 17.6318 5.29664C17.984 5.07388 18.4018 4.73069 18.9015 4.32184L18.1416 3.39309ZM19.5853 2.5712C19.2938 2.59669 19.053 2.71468 18.8374 2.85619C18.6316 2.9912 18.4012 3.18069 18.1416 3.39309L18.9015 4.32184C19.181 4.09313 19.355 3.95178 19.4956 3.85952C19.6264 3.77375 19.674 3.76803 19.6899 3.76664L19.5853 2.5712ZM20.022 2.59298C19.8781 2.56578 19.7312 2.55845 19.5853 2.5712L19.6899 3.76664C19.7263 3.76345 19.7631 3.76529 19.799 3.77209L20.022 2.59298ZM21.3768 3.55445C21.1396 3.31727 20.9292 3.1058 20.7379 2.95098C20.5374 2.78871 20.3095 2.64735 20.022 2.59298L19.799 3.77209C19.8147 3.77504 19.8615 3.78548 19.983 3.88383C20.1138 3.98962 20.2729 4.14758 20.5282 4.40297L21.3768 3.55445ZM22.4492 4.62691L21.3768 3.55445L20.5282 4.40297L21.6007 5.47544L22.4492 4.62691ZM23.4113 5.98286C23.357 5.69509 23.2155 5.46701 23.0532 5.26631C22.8982 5.07482 22.6866 4.86428 22.4492 4.62691L21.6007 5.47544C21.8563 5.73104 22.0144 5.89022 22.1203 6.02108C22.2187 6.14271 22.2291 6.1896 22.232 6.20526L23.4113 5.98286ZM23.433 6.418C23.4456 6.27265 23.4383 6.12624 23.4113 5.98286L22.232 6.20526C22.2388 6.2411 22.2406 6.2777 22.2375 6.31404L23.433 6.418ZM22.6101 7.86358C22.8229 7.60355 23.0126 7.37286 23.1478 7.16682C23.2894 6.95091 23.4076 6.70981 23.433 6.418L22.2375 6.31404C22.2361 6.32985 22.2304 6.37756 22.1445 6.50856C22.052 6.64942 21.9104 6.82372 21.6814 7.1037L22.6101 7.86358ZM22.631 7.83656L22.631 7.83654L21.6605 7.13074L21.6605 7.13075L22.631 7.83656ZM21.5662 9.36707C21.5659 9.36562 21.5613 9.34841 21.5774 9.29635C21.5957 9.23735 21.6363 9.14811 21.7207 9.01478C21.8949 8.73947 22.1805 8.3886 22.6101 7.8636L21.6814 7.10371C21.2725 7.60341 20.9294 8.02108 20.7066 8.37319C20.4862 8.72159 20.2986 9.13251 20.388 9.59489L21.5662 9.36707ZM21.6275 9.51514C21.5973 9.47042 21.5765 9.42006 21.5662 9.36707L20.388 9.59488C20.429 9.80684 20.5125 10.0083 20.6334 10.1871L21.6275 9.51514ZM23.4271 9.83995C22.7527 9.77251 22.303 9.72645 21.9855 9.65498C21.8318 9.62037 21.74 9.58604 21.6855 9.55727C21.6373 9.5319 21.6284 9.51644 21.6275 9.51514L20.6334 10.1871C20.897 10.5772 21.3199 10.7352 21.722 10.8257C22.1283 10.9171 22.6659 10.9698 23.3077 11.034L23.4271 9.83995ZM25.0279 10.2791C24.8039 10.0913 24.5503 10.0045 24.298 9.95216C24.0572 9.90218 23.7606 9.87329 23.4271 9.83995L23.3077 11.034C23.6668 11.0699 23.8896 11.093 24.0541 11.1271C24.2071 11.1589 24.2448 11.1885 24.257 11.1987L25.0279 10.2791ZM25.3223 10.6044C25.2396 10.483 25.1405 10.3735 25.0279 10.2791L24.257 11.1987C24.2851 11.2223 24.3099 11.2497 24.3306 11.28L25.3223 10.6044ZM25.6 12.2409C25.6 11.9058 25.6008 11.6078 25.575 11.3632C25.548 11.1069 25.4869 10.8461 25.3223 10.6044L24.3306 11.28C24.3395 11.2932 24.3652 11.3336 24.3816 11.489C24.3992 11.6561 24.4 11.8801 24.4 12.2409H25.6ZM25.6 13.7593V12.2409H24.4V13.7593H25.6ZM25.3222 15.3962C25.4869 15.1546 25.548 14.8936 25.575 14.6372C25.6008 14.3926 25.6 14.0945 25.6 13.7593H24.4C24.4 14.1203 24.3992 14.3443 24.3816 14.5115C24.3652 14.6668 24.3395 14.7073 24.3306 14.7205L25.3222 15.3962ZM25.0281 15.7212C25.1406 15.6269 25.2395 15.5175 25.3222 15.3962L24.3306 14.7205C24.3099 14.7508 24.2851 14.7782 24.257 14.8017L25.0281 15.7212ZM23.427 16.1605C23.7605 16.1272 24.0572 16.0983 24.298 16.0483C24.5504 15.9959 24.804 15.9091 25.0281 15.7213L24.257 14.8017C24.2448 14.812 24.2071 14.8416 24.0541 14.8733C23.8895 14.9075 23.6667 14.9306 23.3076 14.9665L23.427 16.1605ZM21.627 16.4854C21.6279 16.4841 21.6368 16.4687 21.6849 16.4433C21.7395 16.4145 21.8312 16.3802 21.985 16.3455C22.3026 16.2741 22.7524 16.228 23.427 16.1605L23.3076 14.9665C22.6655 15.0307 22.1278 15.0834 21.7215 15.1748C21.3193 15.2654 20.8963 15.4234 20.6326 15.8136L21.627 16.4854ZM21.5657 16.6334C21.5759 16.5804 21.5968 16.5301 21.627 16.4854L20.6326 15.8136C20.5119 15.9923 20.4286 16.1936 20.3876 16.4053L21.5657 16.6334ZM22.6095 18.1369C22.18 17.6118 21.8943 17.261 21.7201 16.9857C21.6358 16.8523 21.5951 16.7631 21.5769 16.7041C21.5608 16.6521 21.5654 16.6348 21.5657 16.6334L20.3876 16.4053C20.2981 16.8677 20.4856 17.2787 20.706 17.6272C20.9288 17.9794 21.2719 18.397 21.6808 18.8968L22.6095 18.1369ZM23.4321 19.582C23.4067 19.2903 23.2887 19.0492 23.147 18.8334C23.0119 18.6274 22.8222 18.3968 22.6095 18.1369L21.6808 18.8968C21.9098 19.1766 22.0513 19.3508 22.1437 19.4917C22.2296 19.6226 22.2353 19.6703 22.2367 19.6861L23.4321 19.582ZM23.4104 20.0175C23.4375 19.874 23.4448 19.7275 23.4321 19.582L22.2367 19.6861C22.2398 19.7225 22.238 19.7591 22.2312 19.795L23.4104 20.0175ZM22.4485 21.3732C22.6859 21.1359 22.8975 20.9254 23.0524 20.7339C23.2147 20.5332 23.3561 20.3052 23.4104 20.0175L22.2312 19.795C22.2283 19.8106 22.2179 19.8575 22.1195 19.9791C22.0136 20.1099 21.8556 20.2691 21.6 20.5247L22.4485 21.3732ZM21.3758 22.446L22.4485 21.3732L21.6 20.5247L20.5272 21.5974L21.3758 22.446ZM20.0216 23.4071C20.309 23.3527 20.5367 23.2114 20.7372 23.0492C20.9284 22.8944 21.1387 22.683 21.3758 22.446L20.5272 21.5974C20.2719 21.8527 20.113 22.0106 19.9823 22.1164C19.8608 22.2147 19.814 22.2251 19.7983 22.2281L20.0216 23.4071ZM19.5842 23.429C19.7303 23.4418 19.8775 23.4344 20.0216 23.4071L19.7983 22.2281C19.7623 22.2349 19.7255 22.2367 19.689 22.2335L19.5842 23.429ZM18.1411 22.6073C18.4005 22.8196 18.6308 23.009 18.8365 23.144C19.0521 23.2854 19.2928 23.4034 19.5842 23.429L19.689 22.2335C19.6731 22.2321 19.6255 22.2264 19.4948 22.1407C19.3543 22.0484 19.1804 21.9072 18.9009 21.6786L18.1411 22.6073ZM18.0967 22.5672L18.0967 22.5672L18.9453 21.7187L18.9453 21.7187L18.0967 22.5672ZM16.6382 21.5641C16.6397 21.5637 16.657 21.5591 16.709 21.5752C16.7679 21.5934 16.8571 21.634 16.9903 21.7183C17.2655 21.8924 17.6162 22.1779 18.141 22.6073L18.9009 21.6785C18.4014 21.2699 17.9839 20.9268 17.6318 20.7041C17.2833 20.4837 16.8723 20.2964 16.4099 20.386L16.6382 21.5641ZM16.4904 21.6253C16.535 21.5951 16.5853 21.5743 16.6382 21.5641L16.4099 20.386C16.1984 20.427 15.9973 20.5102 15.8188 20.6308L16.4904 21.6253ZM16.1653 23.4262C16.2328 22.7512 16.2789 22.3012 16.3504 21.9835C16.3851 21.8296 16.4194 21.7378 16.4482 21.6832C16.4736 21.635 16.4891 21.6261 16.4904 21.6253L15.8188 20.6308C15.4284 20.8945 15.2703 21.3176 15.1797 21.7199C15.0882 22.1264 15.0355 22.6644 14.9713 23.3068L16.1653 23.4262ZM15.7255 25.0286C15.9137 24.8044 16.0005 24.5507 16.053 24.298C16.103 24.057 16.1319 23.76 16.1653 23.4262L14.9713 23.3068C14.9353 23.6663 14.9122 23.8893 14.878 24.0541C14.8462 24.2072 14.8166 24.245 14.8063 24.2571L15.7255 25.0286ZM15.4015 25.3218C15.5224 25.2394 15.6314 25.1407 15.7255 25.0286L14.8063 24.2572C14.7828 24.2852 14.7556 24.3098 14.7253 24.3305L15.4015 25.3218ZM13.7635 25.6C14.099 25.6 14.3973 25.6008 14.6421 25.575C14.8986 25.5479 15.1597 25.4867 15.4015 25.3218L14.7253 24.3305C14.7122 24.3394 14.6717 24.3652 14.5162 24.3816C14.3489 24.3992 14.1247 24.4 13.7635 24.4V25.6ZM12.247 25.6H13.7635V24.4H12.247V25.6ZM10.6077 25.3214C10.8496 25.4865 11.1109 25.5478 11.3677 25.5749C11.6127 25.6008 11.9113 25.6 12.247 25.6V24.4C11.8855 24.4 11.6611 24.3992 11.4937 24.3815C11.3381 24.3651 11.2975 24.3393 11.2844 24.3303L10.6077 25.3214ZM10.2849 25.0292C10.3787 25.1409 10.4873 25.2391 10.6077 25.3214L11.2844 24.3303C11.2543 24.3098 11.2271 24.2852 11.2037 24.2573L10.2849 25.0292ZM9.84453 23.4258C9.87794 23.7599 9.90687 24.057 9.95699 24.2982C10.0095 24.5511 10.0965 24.805 10.2849 25.0292L11.2037 24.2573C11.1934 24.2451 11.1637 24.2073 11.1319 24.0541C11.0977 23.8893 11.0745 23.6661 11.0386 23.3064L9.84453 23.4258ZM9.51891 21.6231C9.52028 21.624 9.53577 21.6329 9.56119 21.681C9.59003 21.7356 9.62446 21.8275 9.65916 21.9815C9.73082 22.2996 9.77696 22.7501 9.84453 23.4258L11.0386 23.3064C10.9743 22.6633 10.9215 22.1247 10.8298 21.7178C10.7391 21.315 10.5806 20.8914 10.1893 20.6278L9.51891 21.6231ZM9.372 21.5622C9.42456 21.5725 9.47451 21.5932 9.51891 21.6231L10.1893 20.6278C10.0117 20.5082 9.8119 20.4254 9.60172 20.3844L9.372 21.5622ZM7.8667 22.607C8.39239 22.1769 8.74367 21.8909 9.01931 21.7166C9.15281 21.6322 9.24212 21.5915 9.30113 21.5733C9.35317 21.5573 9.37042 21.5619 9.37201 21.5622L9.60172 20.3844C9.13865 20.2941 8.72702 20.4816 8.37801 20.7023C8.02537 20.9253 7.60714 21.2689 7.10681 21.6782L7.8667 22.607ZM7.91101 22.5669L7.91102 22.5669L7.06249 21.7183L7.06248 21.7183L7.91101 22.5669ZM6.42064 23.4298C6.7126 23.4045 6.9538 23.2864 7.16982 23.1447C7.37592 23.0095 7.60666 22.8197 7.86668 22.607L7.1068 21.6782C6.82681 21.9073 6.65253 22.0489 6.51167 22.1413C6.38072 22.2272 6.333 22.2329 6.31713 22.2342L6.42064 23.4298ZM5.98668 23.4081C6.12967 23.435 6.27567 23.4423 6.42064 23.4298L6.31713 22.2342C6.28088 22.2374 6.24438 22.2356 6.20863 22.2288L5.98668 23.4081ZM4.62982 22.4457C4.86734 22.6832 5.07801 22.895 5.26962 23.05C5.47046 23.2124 5.6987 23.3539 5.98667 23.4081L6.20864 22.2288C6.19296 22.2259 6.14604 22.2155 6.02433 22.117C5.89339 22.0111 5.73411 21.8529 5.47835 21.5972L4.62982 22.4457ZM3.558 21.3739L4.62982 22.4457L5.47835 21.5972L4.40653 20.5253L3.558 21.3739ZM2.5961 20.0182C2.65039 20.3059 2.79181 20.5339 2.95417 20.7346C3.10907 20.926 3.32067 21.1365 3.558 21.3739L4.40653 20.5253C4.15097 20.2698 3.99292 20.1106 3.88707 19.9798C3.78867 19.8582 3.77824 19.8113 3.77529 19.7956L2.5961 20.0182ZM2.57438 19.5827C2.56172 19.7282 2.56902 19.8747 2.5961 20.0182L3.77529 19.7956C3.76852 19.7598 3.76669 19.7231 3.76986 19.6868L2.57438 19.5827ZM3.39661 18.138C3.18407 18.3978 2.99447 18.6283 2.85939 18.8342C2.7178 19.05 2.59978 19.291 2.57438 19.5827L3.76986 19.6868C3.77124 19.6709 3.77695 19.6232 3.86276 19.4924C3.95507 19.3517 4.0965 19.1776 4.32536 18.8979L3.39661 18.138ZM4.44076 16.6336C4.44108 16.6352 4.44572 16.6524 4.42966 16.7044C4.41144 16.7634 4.37085 16.8527 4.28649 16.9861C4.11231 17.2616 3.82647 17.6126 3.39661 18.138L4.32536 18.8979C4.73447 18.3979 5.07788 17.9799 5.30074 17.6274C5.52133 17.2785 5.70878 16.8671 5.61864 16.4042L4.44076 16.6336ZM4.37983 16.4865C4.40979 16.5309 4.43052 16.5809 4.44076 16.6336L5.61864 16.4042C5.57765 16.1937 5.49476 15.9936 5.37489 15.8158L4.37983 16.4865ZM2.57602 16.1608C3.25203 16.2284 3.70284 16.2746 4.02111 16.3463C4.17526 16.381 4.2672 16.4154 4.32186 16.4443C4.37008 16.4697 4.37897 16.4852 4.37983 16.4865L5.37489 15.8158C5.11125 15.4246 4.68751 15.2663 4.28471 15.1756C3.87764 15.0839 3.33885 15.0311 2.69542 14.9668L2.57602 16.1608ZM2.63571 16.1638H2.63572V14.9638H2.63571V16.1638ZM0.969803 15.7195C1.19427 15.9083 1.44862 15.9955 1.70183 16.0481C1.94344 16.0983 2.2412 16.1273 2.57601 16.1608L2.69541 14.9668C2.33492 14.9307 2.1112 14.9076 1.94601 14.8732C1.79241 14.8413 1.75462 14.8115 1.74245 14.8013L0.969803 15.7195ZM0.679356 15.3985C0.761188 15.5182 0.858897 15.6261 0.9698 15.7195L1.74245 14.8013C1.71472 14.778 1.6903 14.751 1.66984 14.7211L0.679356 15.3985ZM0.4 13.7572C0.4 14.0934 0.399219 14.3924 0.425149 14.6377C0.452329 14.8948 0.513779 15.1564 0.679356 15.3985L1.66984 14.7211C1.66082 14.7079 1.63497 14.6673 1.6185 14.5115C1.60078 14.3439 1.6 14.1192 1.6 13.7572H0.4ZM0.4 12.2431V13.7572H1.6V12.2431H0.4ZM0.679229 10.6021C0.513726 10.8442 0.452305 11.1058 0.425138 11.3628C0.399219 11.6081 0.4 11.907 0.4 12.2431H1.6C1.6 11.8812 1.60078 11.6565 1.61849 11.4889C1.63495 11.3332 1.66079 11.2926 1.66981 11.2794L0.679229 10.6021ZM0.969974 10.2809C0.85894 10.3743 0.761128 10.4824 0.679229 10.6021L1.66981 11.2794C1.69028 11.2495 1.71474 11.2225 1.74249 11.1991L0.969974 10.2809ZM2.57563 9.83967C2.24097 9.87314 1.94333 9.90212 1.7018 9.95232C1.44867 10.0049 1.1944 10.0921 0.969975 10.2809L1.74249 11.1991C1.75467 11.1889 1.79246 11.1591 1.94597 11.1272C2.11108 11.0929 2.33469 11.0698 2.69503 11.0337L2.57563 9.83967ZM4.37933 9.51399C4.37846 9.5153 4.36956 9.53079 4.32137 9.55623C4.26672 9.58508 4.1748 9.61952 4.02066 9.65423C3.70242 9.7259 3.25164 9.77207 2.57563 9.83967L2.69503 11.0337C3.33844 10.9694 3.87723 10.9166 4.28431 10.8249C4.68715 10.7342 5.11089 10.5758 5.37451 10.1845L4.37933 9.51399ZM4.44022 9.367C4.42998 9.41958 4.40927 9.46957 4.37933 9.51399L5.37451 10.1845C5.49425 10.0068 5.57707 9.80687 5.61806 9.59654L4.44022 9.367ZM3.39591 7.86228C3.82585 8.38777 4.11174 8.7389 4.28595 9.01443C4.37032 9.14786 4.41091 9.23713 4.42913 9.29612C4.44518 9.34813 4.44054 9.36538 4.44022 9.36699L5.61806 9.59654C5.70829 9.13357 5.52084 8.72206 5.30021 8.37313C5.07732 8.0206 4.73385 7.60252 4.32466 7.10239L3.39591 7.86228ZM3.38028 7.84233L3.38028 7.84234L4.34028 7.12234L4.34028 7.12233L3.38028 7.84233ZM2.57358 6.41731C2.59894 6.70906 2.71698 6.95008 2.85859 7.16595C2.99369 7.37191 3.18333 7.60246 3.3959 7.86227L4.32465 7.10239C4.09575 6.82262 3.95429 6.6485 3.86197 6.50776C3.77615 6.37693 3.77045 6.32924 3.76906 6.31336L2.57358 6.41731ZM2.59528 5.98219C2.56824 6.12557 2.56094 6.27196 2.57358 6.41732L3.76906 6.31336C3.76591 6.27703 3.76773 6.24043 3.77449 6.20459L2.59528 5.98219ZM3.5573 4.62623C3.31993 4.8636 3.10829 5.07414 2.95336 5.26563C2.79098 5.46634 2.64955 5.69442 2.59528 5.9822L3.77449 6.20458C3.77744 6.18892 3.78787 6.14204 3.88628 6.0204C3.99214 5.88955 4.15023 5.73036 4.40583 5.47476L3.5573 4.62623ZM4.62882 3.55472L3.5573 4.62623L4.40583 5.47476L5.47735 4.40325L4.62882 3.55472ZM5.98626 2.59198C5.69816 2.64614 5.46982 2.78766 5.26889 2.95018C5.07719 3.10524 4.86643 3.3171 4.62882 3.55472L5.47735 4.40324C5.73321 4.14738 5.89256 3.98913 6.02356 3.88317C6.14532 3.78468 6.19225 3.77428 6.20794 3.77133L5.98626 2.59198ZM6.41946 2.57038C6.27475 2.55788 6.12901 2.56515 5.98626 2.59198L6.20794 3.77133C6.24362 3.76462 6.28006 3.76281 6.31624 3.76593L6.41946 2.57038ZM7.86616 3.39342C7.60602 3.18058 7.37518 2.9907 7.16898 2.85547C6.95286 2.71372 6.71155 2.5956 6.41946 2.57038L6.31624 3.76593C6.33212 3.7673 6.37986 3.77298 6.51087 3.8589C6.6518 3.95133 6.82616 4.09298 7.10628 4.32217L7.86616 3.39342ZM9.37205 4.43853C9.37045 4.43884 9.35319 4.4435 9.30115 4.42744C9.24212 4.40922 9.15278 4.3686 9.01923 4.28417C8.74348 4.10983 8.39206 3.8237 7.86616 3.39342L7.10628 4.32217C7.6068 4.73169 8.02519 5.07541 8.37796 5.29845C8.72711 5.51919 9.1389 5.70675 9.60211 5.61627L9.37205 4.43853ZM9.51873 4.37777C9.47439 4.40762 9.42451 4.42828 9.37205 4.43853L9.60211 5.61627C9.81196 5.57527 10.0115 5.49263 10.1888 5.37323L9.51873 4.37777ZM9.84451 2.57447C9.77691 3.25042 9.73075 3.70109 9.65906 4.01925C9.62434 4.17333 9.58989 4.26519 9.56104 4.31979C9.53561 4.36792 9.52011 4.37684 9.51873 4.37777L10.1888 5.37323C10.5803 5.1097 10.7389 4.68598 10.8297 4.28305C10.9214 3.87597 10.9742 3.33719 11.0386 2.69387L9.84451 2.57447ZM10.2851 0.970519C10.0966 1.19481 10.0096 1.44882 9.95701 1.70172C9.90687 1.943 9.87793 2.24027 9.84451 2.57447L11.0386 2.69387C11.0745 2.33401 11.0976 2.11074 11.1319 1.94586C11.1638 1.7926 11.1935 1.75484 11.2037 1.74263L10.2851 0.970519ZM10.6074 0.678827C10.4872 0.760943 10.3788 0.85908 10.2851 0.970518L11.2037 1.74263C11.2271 1.71477 11.2543 1.69023 11.2843 1.66971L10.6074 0.678827ZM12.2473 0.4C11.9114 0.4 11.6127 0.39922 11.3677 0.425101C11.1108 0.452229 10.8494 0.513558 10.6074 0.678827L11.2843 1.66971C11.2975 1.66071 11.338 1.6349 11.4937 1.61847C11.6611 1.60078 11.8856 1.6 12.2473 1.6V0.4ZM13.7633 0.4H12.2473V1.6H13.7633V0.4ZM15.4018 0.678365C15.16 0.513365 14.8988 0.452142 14.6421 0.42506C14.3973 0.399222 14.0988 0.4 13.7633 0.4V1.6C14.1246 1.6 14.3489 1.60078 14.5162 1.61843C14.6717 1.63485 14.7123 1.66061 14.7254 1.66959L15.4018 0.678365ZM15.7253 0.971147C15.6313 0.859237 15.5225 0.760728 15.4018 0.678366L14.7254 1.66959C14.7556 1.69018 14.7828 1.71481 14.8063 1.74279L15.7253 0.971147ZM17.2018 13.0005C17.2018 15.3201 15.3214 17.2005 13.0018 17.2005V18.4005C15.9842 18.4005 18.4018 15.9829 18.4018 13.0005H17.2018ZM13.0018 8.80052C15.3214 8.80052 17.2018 10.6809 17.2018 13.0005H18.4018C18.4018 10.0182 15.9842 7.60052 13.0018 7.60052V8.80052ZM8.80182 13.0005C8.80182 10.6809 10.6822 8.80052 13.0018 8.80052V7.60052C10.0195 7.60052 7.60182 10.0182 7.60182 13.0005H8.80182ZM13.0018 17.2005C10.6822 17.2005 8.80182 15.3201 8.80182 13.0005H7.60182C7.60182 15.9829 10.0195 18.4005 13.0018 18.4005V17.2005Z" fill="#263238"/>
</svg>
