<svg width="36" height="36" viewBox="0 0 36 36" fill="none" xmlns="http://www.w3.org/2000/svg">
<mask id="path-1-inside-1_2334_4277" fill="white">
<path d="M23.4628 28H12.038C11.7975 27.9943 11.5605 27.9413 11.3405 27.844C11.1205 27.7467 10.9218 27.607 10.7558 27.4329C10.5898 27.2587 10.4597 27.0536 10.373 26.8292C10.2863 26.6048 10.2447 26.3655 10.2505 26.125V13.769H11.5005V26.125C11.4945 26.2014 11.5037 26.2782 11.5275 26.351C11.5514 26.4238 11.5893 26.4912 11.6393 26.5493C11.6892 26.6074 11.7502 26.655 11.8186 26.6895C11.887 26.7239 11.9616 26.7445 12.038 26.75H23.4628C23.5392 26.7445 23.6138 26.7239 23.6822 26.6895C23.7506 26.655 23.8116 26.6074 23.8615 26.5493C23.9115 26.4912 23.9495 26.4238 23.9733 26.351C23.9971 26.2782 24.0063 26.2014 24.0003 26.125V13.769H25.2503V26.125C25.2561 26.3655 25.2145 26.6048 25.1278 26.8292C25.0411 27.0536 24.911 27.2587 24.745 27.4329C24.579 27.607 24.3804 27.7467 24.1604 27.844C23.9403 27.9413 23.7033 27.9943 23.4628 28Z"/>
<path d="M25.7373 12.3749H9.62499C9.45923 12.3749 9.30026 12.3091 9.18306 12.1919C9.06585 12.0747 9 11.9157 9 11.7499C9 11.5842 9.06585 11.4252 9.18306 11.308C9.30026 11.1908 9.45923 11.125 9.62499 11.125H25.7373C25.903 11.125 26.062 11.1908 26.1792 11.308C26.2964 11.4252 26.3622 11.5842 26.3622 11.7499C26.3622 11.9157 26.2964 12.0747 26.1792 12.1919C26.062 12.3091 25.903 12.3749 25.7373 12.3749Z"/>
<path d="M19.6248 14.8749H20.8748V24.2498H19.6248V14.8749Z"/>
<path d="M14.6249 14.8749H15.8749V24.2498H14.6249V14.8749Z"/>
<path d="M20.8748 10.4125H19.6873V9.24998H15.8124V10.4125H14.6249V9.24998C14.6245 8.92902 14.7476 8.62019 14.9687 8.38749C15.1897 8.15479 15.4918 8.01605 15.8124 8H19.6873C20.0079 8.01605 20.31 8.15479 20.5311 8.38749C20.7521 8.62019 20.8752 8.92902 20.8748 9.24998V10.4125Z"/>
</mask>
<path d="M23.4628 28V29.3H23.4782L23.4935 29.2996L23.4628 28ZM12.038 28L12.0073 29.2996L12.0226 29.3H12.038V28ZM10.2505 26.125L11.5501 26.1564L11.5505 26.1407V26.125H10.2505ZM10.2505 13.769V12.469H8.95052V13.769H10.2505ZM11.5005 13.769H12.8005V12.469H11.5005V13.769ZM11.5005 26.125L12.7965 26.2263L12.8005 26.1757V26.125H11.5005ZM12.038 26.75L11.9441 28.0466L11.991 28.05H12.038V26.75ZM23.4628 26.75V28.05H23.5098L23.5567 28.0466L23.4628 26.75ZM24.0003 26.125H22.7003V26.1757L22.7043 26.2263L24.0003 26.125ZM24.0003 13.769V12.469H22.7003V13.769H24.0003ZM25.2503 13.769H26.5503V12.469H25.2503V13.769ZM25.2503 26.125H23.9503V26.1407L23.9507 26.1564L25.2503 26.125ZM9.62499 11.125V12.425V11.125ZM19.6248 14.8749V13.5749H18.3248V14.8749H19.6248ZM20.8748 14.8749H22.1748V13.5749H20.8748V14.8749ZM20.8748 24.2498V25.5498H22.1748V24.2498H20.8748ZM19.6248 24.2498H18.3248V25.5498H19.6248V24.2498ZM14.6249 14.8749V13.5749H13.3249V14.8749H14.6249ZM15.8749 14.8749H17.1749V13.5749H15.8749V14.8749ZM15.8749 24.2498V25.5498H17.1749V24.2498H15.8749ZM14.6249 24.2498H13.3249V25.5498H14.6249V24.2498ZM20.8748 10.4125V11.7125H22.1748V10.4125H20.8748ZM19.6873 10.4125H18.3873V11.7125H19.6873V10.4125ZM19.6873 9.24998H20.9873V7.94998H19.6873V9.24998ZM15.8124 9.24998V7.94998H14.5124V9.24998H15.8124ZM15.8124 10.4125V11.7125H17.1124V10.4125H15.8124ZM14.6249 10.4125H13.3249V11.7125H14.6249V10.4125ZM14.6249 9.24998H15.9249L15.9249 9.24836L14.6249 9.24998ZM15.8124 8V6.7H15.7799L15.7474 6.70163L15.8124 8ZM19.6873 8L19.7523 6.70163L19.7199 6.7H19.6873V8ZM20.8748 9.24998L19.5748 9.24836V9.24998H20.8748ZM23.4628 26.7H12.038V29.3H23.4628V26.7ZM12.0687 26.7004C11.9989 26.6987 11.9301 26.6833 11.8663 26.6551L10.8146 29.0329C11.1908 29.1993 11.5961 29.2899 12.0073 29.2996L12.0687 26.7004ZM11.8663 26.6551C11.8025 26.6269 11.7449 26.5864 11.6967 26.5358L9.81485 28.3299C10.0987 28.6276 10.4384 28.8665 10.8146 29.0329L11.8663 26.6551ZM11.6967 26.5358C11.6486 26.4853 11.6108 26.4258 11.5857 26.3607L9.16038 27.2977C9.30862 27.6814 9.53101 28.0322 9.81485 28.3299L11.6967 26.5358ZM11.5857 26.3607C11.5605 26.2956 11.5484 26.2262 11.5501 26.1564L8.9509 26.0936C8.94095 26.5048 9.01214 26.914 9.16038 27.2977L11.5857 26.3607ZM11.5505 26.125V13.769H8.95052V26.125H11.5505ZM10.2505 15.069H11.5005V12.469H10.2505V15.069ZM10.2005 13.769V26.125H12.8005V13.769H10.2005ZM10.2044 26.0238C10.1851 26.271 10.2149 26.5195 10.292 26.7552L12.7631 25.9468C12.7926 26.0369 12.8039 26.1318 12.7965 26.2263L10.2044 26.0238ZM10.292 26.7552C10.3691 26.9909 10.492 27.209 10.6536 27.3969L12.6249 25.7016C12.6867 25.7735 12.7337 25.8568 12.7631 25.9468L10.292 26.7552ZM10.6536 27.3969C10.8153 27.5849 11.0125 27.7391 11.234 27.8506L12.4032 25.5283C12.4878 25.5709 12.5632 25.6298 12.6249 25.7016L10.6536 27.3969ZM11.234 27.8506C11.4555 27.9621 11.6968 28.0287 11.9441 28.0466L12.1319 25.4534C12.2264 25.4603 12.3186 25.4857 12.4032 25.5283L11.234 27.8506ZM12.038 28.05H23.4628V25.45H12.038V28.05ZM23.5567 28.0466C23.804 28.0287 24.0453 27.9621 24.2668 27.8506L23.0976 25.5283C23.1822 25.4857 23.2744 25.4603 23.3689 25.4534L23.5567 28.0466ZM24.2668 27.8506C24.4883 27.7391 24.6855 27.5849 24.8472 27.3969L22.8759 25.7016C22.9377 25.6298 23.013 25.5709 23.0976 25.5283L24.2668 27.8506ZM24.8472 27.3969C25.0088 27.209 25.1318 26.9909 25.2088 26.7552L22.7377 25.9468C22.7672 25.8568 22.8141 25.7735 22.8759 25.7016L24.8472 27.3969ZM25.2088 26.7552C25.2859 26.5195 25.3157 26.271 25.2964 26.0238L22.7043 26.2263C22.6969 26.1318 22.7083 26.0369 22.7377 25.9468L25.2088 26.7552ZM25.3003 26.125V13.769H22.7003V26.125H25.3003ZM24.0003 15.069H25.2503V12.469H24.0003V15.069ZM23.9503 13.769V26.125H26.5503V13.769H23.9503ZM23.9507 26.1564C23.9524 26.2262 23.9403 26.2956 23.9151 26.3607L26.3404 27.2977C26.4887 26.914 26.5599 26.5048 26.5499 26.0936L23.9507 26.1564ZM23.9151 26.3607C23.89 26.4258 23.8523 26.4853 23.8041 26.5358L25.686 28.3299C25.9698 28.0322 26.1922 27.6814 26.3404 27.2977L23.9151 26.3607ZM23.8041 26.5358C23.7559 26.5864 23.6983 26.6269 23.6345 26.6551L24.6862 29.0329C25.0624 28.8665 25.4021 28.6276 25.686 28.3299L23.8041 26.5358ZM23.6345 26.6551C23.5707 26.6833 23.5019 26.6987 23.4321 26.7004L23.4935 29.2996C23.9047 29.2899 24.31 29.1993 24.6862 29.0329L23.6345 26.6551ZM25.7373 11.0749H9.62499V13.6749H25.7373V11.0749ZM9.62499 11.0749C9.80402 11.0749 9.97571 11.1461 10.1023 11.2726L8.26382 13.1111C8.62482 13.4721 9.11445 13.6749 9.62499 13.6749V11.0749ZM10.1023 11.2726C10.2289 11.3992 10.3 11.5709 10.3 11.7499H7.7C7.7 12.2605 7.90281 12.7501 8.26382 13.1111L10.1023 11.2726ZM10.3 11.7499C10.3 11.929 10.2289 12.1007 10.1023 12.2272L8.26382 10.3888C7.90281 10.7498 7.7 11.2394 7.7 11.7499H10.3ZM10.1023 12.2272C9.97571 12.3538 9.80402 12.425 9.62499 12.425V9.82495C9.11445 9.82495 8.62482 10.0278 8.26382 10.3888L10.1023 12.2272ZM9.62499 12.425H25.7373V9.82495H9.62499V12.425ZM25.7373 12.425C25.5582 12.425 25.3865 12.3538 25.26 12.2272L27.0984 10.3888C26.7374 10.0278 26.2478 9.82495 25.7373 9.82495V12.425ZM25.26 12.2272C25.1334 12.1007 25.0622 11.929 25.0622 11.7499H27.6622C27.6622 11.2394 27.4594 10.7498 27.0984 10.3888L25.26 12.2272ZM25.0622 11.7499C25.0622 11.5709 25.1334 11.3992 25.26 11.2726L27.0984 13.1111C27.4594 12.7501 27.6622 12.2605 27.6622 11.7499H25.0622ZM25.26 11.2726C25.3865 11.1461 25.5582 11.0749 25.7373 11.0749V13.6749C26.2478 13.6749 26.7374 13.4721 27.0984 13.1111L25.26 11.2726ZM19.6248 16.1749H20.8748V13.5749H19.6248V16.1749ZM19.5748 14.8749V24.2498H22.1748V14.8749H19.5748ZM20.8748 22.9498H19.6248V25.5498H20.8748V22.9498ZM20.9248 24.2498V14.8749H18.3248V24.2498H20.9248ZM14.6249 16.1749H15.8749V13.5749H14.6249V16.1749ZM14.5749 14.8749V24.2498H17.1749V14.8749H14.5749ZM15.8749 22.9498H14.6249V25.5498H15.8749V22.9498ZM15.9249 24.2498V14.8749H13.3249V24.2498H15.9249ZM20.8748 9.11246H19.6873V11.7125H20.8748V9.11246ZM20.9873 10.4125V9.24998H18.3873V10.4125H20.9873ZM19.6873 7.94998H15.8124V10.55H19.6873V7.94998ZM14.5124 9.24998V10.4125H17.1124V9.24998H14.5124ZM15.8124 9.11246H14.6249V11.7125H15.8124V9.11246ZM15.9249 10.4125V9.24998H13.3249V10.4125H15.9249ZM15.9249 9.24836C15.9249 9.2612 15.92 9.27356 15.9112 9.28287L14.0262 7.49212C13.5752 7.96683 13.3241 8.59683 13.3249 9.25161L15.9249 9.24836ZM15.9112 9.28287C15.9023 9.29218 15.8902 9.29773 15.8774 9.29837L15.7474 6.70163C15.0934 6.73436 14.4771 7.01741 14.0262 7.49212L15.9112 9.28287ZM15.8124 9.3H19.6873V6.7H15.8124V9.3ZM19.6223 9.29837C19.6095 9.29773 19.5974 9.29218 19.5886 9.28287L21.4736 7.49212C21.0226 7.01741 20.4063 6.73436 19.7523 6.70163L19.6223 9.29837ZM19.5886 9.28287C19.5797 9.27356 19.5748 9.2612 19.5748 9.24836L22.1748 9.25161C22.1756 8.59683 21.9246 7.96683 21.4736 7.49212L19.5886 9.28287ZM19.5748 9.24998V10.4125H22.1748V9.24998H19.5748Z" fill="white" mask="url(#path-1-inside-1_2334_4277)"/>
</svg>
