<svg width="24" height="24" viewBox="0 0 24 24" fill="none" xmlns="http://www.w3.org/2000/svg">
<path d="M18.9986 16L18.5358 15.5435L18.9986 16ZM4.81676 16L4.35027 16.4526L4.81676 16ZM11.4019 5.12909L11.0175 5.65325L11.4019 5.12909ZM2.68581 13.6739L2.19774 14.1032L2.68581 13.6739ZM11.2614 21.9444L11.6867 21.4529L11.2614 21.9444ZM11.9071 22.341L11.9058 21.691L11.9071 22.341ZM10.162 5.02591L11.0175 5.65325L11.7863 4.60493L10.9308 3.97758L10.162 5.02591ZM12.7946 5.6711L13.7702 4.98536L13.0226 3.92181L12.047 4.60755L12.7946 5.6711ZM20.5981 13.3499C19.8905 14.1289 19.1761 14.8945 18.5358 15.5435L19.4613 16.4565C20.1189 15.7899 20.8465 15.0098 21.5604 14.224L20.5981 13.3499ZM18.5358 15.5435C16.5387 17.5679 13.4567 20.2895 12.1242 21.4517L12.9787 22.4314C14.3086 21.2715 17.4254 18.5202 19.4613 16.4565L18.5358 15.5435ZM11.6867 21.4529C10.3486 20.2953 7.2592 17.5837 5.28325 15.5474L4.35027 16.4526C6.37102 18.5352 9.50124 21.2811 10.8362 22.436L11.6867 21.4529ZM5.28325 15.5474C4.62643 14.8705 3.89352 14.0628 3.17388 13.2446L2.19774 14.1032C2.9244 14.9294 3.67282 15.7545 4.35027 16.4526L5.28325 15.5474ZM20.3299 5.55362C22.4771 7.70117 22.619 11.1251 20.5981 13.3499L21.5604 14.224C24.0685 11.4628 23.8647 7.25038 21.2493 4.63446L20.3299 5.55362ZM13.7702 4.98536C15.8043 3.55556 18.572 3.79531 20.3299 5.55362L21.2493 4.63446C19.0446 2.42936 15.5737 2.12868 13.0226 3.92181L13.7702 4.98536ZM11.0175 5.65325C11.5447 6.03985 12.2597 6.04704 12.7946 5.6711L12.047 4.60755C11.9685 4.66271 11.8636 4.66165 11.7863 4.60493L11.0175 5.65325ZM3.41773 5.62C5.19752 3.75613 8.08381 3.50188 10.162 5.02591L10.9308 3.97758C8.32597 2.06738 4.7083 2.38605 2.47753 4.72221L3.41773 5.62ZM2.47753 4.72221C-0.0011121 7.31795 -0.194997 11.3828 2.19774 14.1032L3.17388 13.2446C1.24857 11.0557 1.3811 7.75285 3.41773 5.62L2.47753 4.72221ZM12.1242 21.4517C12.0462 21.5198 11.9859 21.5722 11.9332 21.616C11.8804 21.6598 11.8466 21.6852 11.8238 21.7004C11.7838 21.7272 11.8244 21.6911 11.9058 21.691L11.9084 22.991C12.1766 22.9904 12.3869 22.8877 12.546 22.7814C12.6885 22.6862 12.8391 22.5531 12.9787 22.4314L12.1242 21.4517ZM10.8362 22.436C10.9761 22.5571 11.1272 22.6894 11.27 22.784C11.4296 22.8897 11.6402 22.9915 11.9084 22.991L11.9058 21.691C11.9871 21.6908 12.0278 21.7266 11.9878 21.7001C11.965 21.6851 11.9311 21.6598 11.8782 21.6162C11.8253 21.5727 11.7649 21.5205 11.6867 21.4529L10.8362 22.436Z" fill="#505050"/>
</svg>
